<svg width="12" height="6" viewBox="0 0 12 6" fill="none" xmlns="http://www.w3.org/2000/svg">
<path d="M10.7312 0.193736C11.0215 -0.0644484 11.4921 -0.0645354 11.7824 0.193736C12.0725 0.452018 12.0725 0.870795 11.7824 1.12908L6.52567 5.80643C6.48936 5.83874 6.45005 5.86682 6.40879 5.89105C6.36756 5.91526 6.32433 5.93563 6.27957 5.95176C6.21251 5.97595 6.14224 5.99093 6.07122 5.99698C6.0239 6.00101 5.97625 6.001 5.92893 5.99698C5.76305 5.98291 5.60153 5.91941 5.47447 5.80643L0.217734 1.12908C-0.0725781 0.870762 -0.0725781 0.452051 0.217734 0.193736C0.508047 -0.0645785 0.978624 -0.0645787 1.26894 0.193736L6.00007 4.40341L10.7312 0.193736Z" fill="#E44F19"/>
</svg>
