<svg width="16" height="16" viewBox="0 0 16 16" fill="none" xmlns="http://www.w3.org/2000/svg">
<path d="M14.5604 0.247039C14.8898 -0.0823463 15.4236 -0.0823463 15.753 0.247039C16.0821 0.576443 16.0823 1.11026 15.753 1.43957L9.19202 7.99952L15.753 14.5605C16.0823 14.8899 16.0823 15.4236 15.753 15.753C15.4236 16.0823 14.8898 16.0824 14.5604 15.753L7.99949 9.19205L1.43957 15.753C1.11026 16.0823 0.576441 16.0822 0.247038 15.753C-0.082346 15.4236 -0.082346 14.8899 0.247038 14.5605L6.80696 7.99952L0.247038 1.43957C-0.0823086 1.11022 -0.0822336 0.576433 0.247038 0.247039C0.576422 -0.0823463 1.11018 -0.0823463 1.43957 0.247039L7.99949 6.80699L14.5604 0.247039Z" fill="black"/>
</svg>
