<svg width="105" height="68" viewBox="0 0 105 68" fill="none" xmlns="http://www.w3.org/2000/svg">
<path fill-rule="evenodd" clip-rule="evenodd" d="M81.9525 23.9106C83.8356 23.911 85.5947 24.4341 87.0895 25.3417L102.506 34.1366L102.503 34.1393C104.89 35.5011 105.708 38.5158 104.331 40.8744C103.364 42.528 101.575 43.4166 99.7689 43.3326H81.9525C76.5245 43.3326 72.123 38.9845 72.1226 33.6216C72.1226 28.2584 76.5242 23.9106 81.9525 23.9106ZM81.7117 26.686C77.9289 26.686 74.8623 29.7924 74.8623 33.6243C74.8623 37.4563 77.9289 40.5627 81.7117 40.5627C85.4945 40.5627 88.5611 37.4563 88.5611 33.6243C88.5611 29.7924 85.4945 26.686 81.7117 26.686Z" fill="#E44F19"/>
<path d="M104.743 18.3244L102.813 17.7718C101.944 17.5263 101.153 17.0614 100.514 16.4217C99.8759 15.7819 99.412 14.9886 99.1671 14.1178L98.6156 12.184C98.5879 12.1164 98.5407 12.0585 98.4801 12.0178C98.4195 11.9771 98.3482 11.9553 98.2752 11.9553C98.2022 11.9553 98.1308 11.9771 98.0702 12.0178C98.0096 12.0585 97.9624 12.1164 97.9347 12.184L97.3833 14.1178C97.1383 14.9886 96.6744 15.7819 96.036 16.4217C95.3976 17.0614 94.6061 17.5263 93.7372 17.7718L91.8076 18.3244C91.7335 18.3455 91.6683 18.3902 91.6218 18.4518C91.5754 18.5134 91.5503 18.5885 91.5503 18.6656C91.5503 18.7428 91.5754 18.8179 91.6218 18.8795C91.6683 18.9411 91.7335 18.9858 91.8076 19.0068L93.7372 19.5595C94.6061 19.805 95.3976 20.2698 96.036 20.9096C96.6744 21.5494 97.1383 22.3426 97.3833 23.2135L97.9347 25.1472C97.9557 25.2215 98.0003 25.2868 98.0618 25.3334C98.1232 25.3799 98.1982 25.4051 98.2752 25.4051C98.3522 25.4051 98.4271 25.3799 98.4885 25.3334C98.55 25.2868 98.5946 25.2215 98.6156 25.1472L99.1671 23.2135C99.412 22.3426 99.8759 21.5494 100.514 20.9096C101.153 20.2698 101.944 19.805 102.813 19.5595L104.743 19.0068C104.817 18.9858 104.882 18.9411 104.928 18.8795C104.975 18.8179 105 18.7428 105 18.6656C105 18.5885 104.975 18.5134 104.928 18.4518C104.882 18.3902 104.817 18.3455 104.743 18.3244Z" fill="#E44F19"/>
<path d="M94.3675 4.24607L93.0811 3.87766C92.5018 3.71399 91.9741 3.40407 91.5485 2.97755C91.1229 2.55104 90.8137 2.02221 90.6504 1.44166L90.2827 0.152477C90.2643 0.107373 90.2328 0.0687953 90.1924 0.0416456C90.152 0.0144958 90.1044 0 90.0558 0C90.0071 0 89.9595 0.0144958 89.9191 0.0416456C89.8787 0.0687953 89.8473 0.107373 89.8288 0.152477L89.4612 1.44166C89.2978 2.02221 88.9886 2.55104 88.563 2.97755C88.1374 3.40407 87.6097 3.71399 87.0304 3.87766L85.744 4.24607C85.6946 4.26012 85.6512 4.28993 85.6202 4.33098C85.5893 4.37203 85.5725 4.42209 85.5725 4.47354C85.5725 4.525 85.5893 4.57505 85.6202 4.6161C85.6512 4.65715 85.6946 4.68696 85.744 4.70101L87.0304 5.06942C87.6097 5.23309 88.1374 5.54301 88.563 5.96953C88.9886 6.39604 89.2978 6.92487 89.4612 7.50543L89.8288 8.7946C89.8428 8.8441 89.8725 8.88767 89.9135 8.91869C89.9545 8.94971 90.0044 8.9665 90.0558 8.9665C90.1071 8.9665 90.157 8.94971 90.198 8.91869C90.239 8.88767 90.2687 8.8441 90.2827 8.7946L90.6504 7.50543C90.8137 6.92487 91.1229 6.39604 91.5485 5.96953C91.9741 5.54301 92.5018 5.23309 93.0811 5.06942L94.3675 4.70101C94.4169 4.68696 94.4604 4.65715 94.4913 4.6161C94.5223 4.57505 94.539 4.525 94.539 4.47354C94.539 4.42209 94.5223 4.37203 94.4913 4.33098C94.4604 4.28993 94.4169 4.26012 94.3675 4.24607Z" fill="#E44F19"/>
<path d="M5.60812 9.81272V12.9863C5.60812 13.5284 5.78838 13.9449 6.1489 14.2358C6.52278 14.5267 7.00347 14.6722 7.59099 14.6722C8.19186 14.6722 8.62582 14.5796 8.89288 14.3945C9.15993 14.2094 9.38025 13.9383 9.55383 13.5813C9.74077 13.2243 9.98112 13.0458 10.2749 13.0458H14.6011C14.7213 13.0458 14.8215 13.092 14.9016 13.1846C14.995 13.2639 15.0418 13.3631 15.0418 13.4821C15.0418 14.7119 14.4543 15.8358 13.2792 16.854C12.6917 17.3565 11.9106 17.7664 10.9358 18.0838C9.96109 18.3879 8.81276 18.5399 7.49085 18.5399C6.16893 18.5399 4.96052 18.3416 3.8656 17.9449C2.78403 17.535 1.90276 16.8738 1.22177 15.9614C0.540783 15.0358 0.20029 13.9053 0.20029 12.5697V10.2292C0.20029 8.89372 0.540783 7.76315 1.22177 6.83753C2.50363 5.11853 4.64673 4.25903 7.65108 4.25903C8.86617 4.25903 9.96109 4.41771 10.9358 4.73506C11.9106 5.03919 12.6917 5.4425 13.2792 5.94498C14.4543 6.96315 15.0418 8.08711 15.0418 9.31686C15.0418 9.43587 14.995 9.54165 14.9016 9.63421C14.8215 9.71355 14.7213 9.75322 14.6011 9.75322H10.2749C9.98112 9.75322 9.74077 9.57471 9.55383 9.21768C9.38025 8.86066 9.15993 8.58959 8.89288 8.40447C8.62582 8.21934 8.19186 8.12678 7.59099 8.12678C7.00347 8.12678 6.52278 8.27223 6.1489 8.56314C5.78838 8.85405 5.60812 9.27058 5.60812 9.81272Z" fill="black"/>
<path d="M17.5576 4.45738H31.3776C31.5245 4.45738 31.6514 4.51027 31.7582 4.61606C31.865 4.72184 31.9184 4.84746 31.9184 4.99291V8.18628C31.9184 8.33174 31.865 8.45736 31.7582 8.56314C31.6514 8.66893 31.5245 8.72182 31.3776 8.72182H27.0714V17.8061C27.0714 17.9515 27.018 18.0771 26.9112 18.1829C26.8043 18.2887 26.6775 18.3416 26.5306 18.3416H22.4046C22.2577 18.3416 22.1309 18.2887 22.0241 18.1829C21.9173 18.0771 21.8638 17.9515 21.8638 17.8061V8.72182H17.5576C17.4107 8.72182 17.2839 8.66893 17.1771 8.56314C17.0702 8.45736 17.0168 8.33174 17.0168 8.18628V4.99291C17.0168 4.84746 17.0702 4.72184 17.1771 4.61606C17.2839 4.51027 17.4107 4.45738 17.5576 4.45738Z" fill="black"/>
<path d="M37.699 18.3416H33.9135C33.7933 18.3416 33.6865 18.3019 33.593 18.2226C33.5129 18.13 33.4728 18.0441 33.4728 17.9647C33.4728 17.8854 33.4795 17.8259 33.4929 17.7862L37.8592 5.11192C37.9794 4.67556 38.2798 4.45738 38.7605 4.45738H44.3286C44.8093 4.45738 45.1097 4.67556 45.2299 5.11192L49.5962 17.7862C49.6095 17.8259 49.6162 17.8854 49.6162 17.9647C49.6162 18.0441 49.5695 18.13 49.476 18.2226C49.3959 18.3019 49.2958 18.3416 49.1756 18.3416H45.3901C44.9628 18.3416 44.6624 18.1168 44.4888 17.6672L43.9881 16.2788H39.101L38.6003 17.6672C38.4267 18.1168 38.1262 18.3416 37.699 18.3416ZM42.9666 12.4111L41.5445 8.28546L40.1225 12.4111H42.9666Z" fill="black"/>
<path d="M51.2908 18.5399C51.1439 18.5399 51.0104 18.4871 50.8902 18.3813C50.7834 18.2755 50.73 18.1499 50.73 18.0044V14.8309C50.73 14.6854 50.7834 14.5598 50.8902 14.454C50.9971 14.3482 51.1239 14.2953 51.2708 14.2953C51.8316 14.2953 52.2188 14.1763 52.4325 13.9383C52.6461 13.6871 52.7529 13.297 52.7529 12.7681V4.99291C52.7529 4.84746 52.8064 4.72184 52.9132 4.61606C53.02 4.51027 53.1468 4.45738 53.2937 4.45738H64.6702C64.8171 4.45738 64.9439 4.51027 65.0508 4.61606C65.1576 4.72184 65.211 4.84746 65.211 4.99291V17.8061C65.211 17.9515 65.1576 18.0771 65.0508 18.1829C64.9439 18.2887 64.8171 18.3416 64.6702 18.3416H60.9448C60.7979 18.3416 60.6711 18.2887 60.5643 18.1829C60.4574 18.0771 60.404 17.9515 60.404 17.8061V8.72182H57.5599V12.7086C57.5599 14.6656 57.0058 16.1267 55.8975 17.092C54.8026 18.0573 53.267 18.5399 51.2908 18.5399Z" fill="black"/>
<path d="M75.0174 12.4904V14.6325H77.3207C77.748 14.6325 78.0751 14.5334 78.3021 14.335C78.5291 14.1367 78.6426 13.8656 78.6426 13.5218C78.6426 12.8342 78.202 12.4904 77.3207 12.4904H75.0174ZM75.0174 4.99291V8.8805H77.3207C79.1901 8.8805 80.7123 9.29041 81.8873 10.1102C83.0624 10.9301 83.6499 12.0871 83.6499 13.5813C83.6499 15.0755 83.0624 16.2457 81.8873 17.092C80.7256 17.9251 79.2101 18.3416 77.3407 18.3416H70.3506C70.2037 18.3416 70.0769 18.2887 69.9701 18.1829C69.8632 18.0771 69.8098 17.9515 69.8098 17.8061V4.99291C69.8098 4.84746 69.8632 4.72184 69.9701 4.61606C70.0769 4.51027 70.2037 4.45738 70.3506 4.45738H74.4766C74.6235 4.45738 74.7503 4.51027 74.8571 4.61606C74.964 4.72184 75.0174 4.84746 75.0174 4.99291Z" fill="black"/>
<path d="M0.540783 28.6997H14.3608C14.5077 28.6997 14.6345 28.7526 14.7413 28.8583C14.8482 28.9641 14.9016 29.0898 14.9016 29.2352V32.4286C14.9016 32.574 14.8482 32.6996 14.7413 32.8054C14.6345 32.9112 14.5077 32.9641 14.3608 32.9641H10.0546V42.0484C10.0546 42.1938 10.0011 42.3194 9.89433 42.4252C9.78751 42.531 9.66066 42.5839 9.51378 42.5839H5.3878C5.24092 42.5839 5.11407 42.531 5.00725 42.4252C4.90043 42.3194 4.84702 42.1938 4.84702 42.0484V32.9641H0.540783C0.393904 32.9641 0.267053 32.9112 0.160232 32.8054C0.0534107 32.6996 0 32.574 0 32.4286V29.2352C0 29.0898 0.0534107 28.9641 0.160232 28.8583C0.267053 28.7526 0.393904 28.6997 0.540783 28.6997Z" fill="black"/>
<path d="M19.0197 28.6997H26.5106C28.4067 28.6997 29.9088 29.1559 31.0171 30.0683C32.1254 30.9807 32.6795 32.1509 32.6795 33.579C32.6795 35.0071 32.2122 36.1443 31.2775 36.9905C30.3428 37.8236 28.7538 38.2401 26.5106 38.2401H23.8667V42.0484C23.8667 42.1938 23.8133 42.3194 23.7065 42.4252C23.5997 42.531 23.4728 42.5839 23.326 42.5839H19.0197C18.8728 42.5839 18.746 42.531 18.6392 42.4252C18.5324 42.3194 18.4789 42.1938 18.4789 42.0484V29.2352C18.4789 29.0898 18.5324 28.9641 18.6392 28.8583C18.746 28.7526 18.8728 28.6997 19.0197 28.6997ZM23.8868 32.3889V34.5707H26.4305C26.7376 34.5707 26.9846 34.4782 27.1715 34.293C27.3718 34.1079 27.472 33.8501 27.472 33.5195C27.472 33.1889 27.3785 32.9178 27.1916 32.7063C27.0046 32.4947 26.7509 32.3889 26.4305 32.3889H23.8868Z" fill="black"/>
<path d="M38.8406 42.5839H35.2154C35.0685 42.5839 34.9416 42.531 34.8348 42.4252C34.728 42.3194 34.6746 42.1938 34.6746 42.0484V38.8748C34.6746 38.7294 34.728 38.6038 34.8348 38.498C34.9416 38.3922 35.0685 38.3393 35.2154 38.3393H38.0395C38.7872 38.3393 39.2011 38.2864 39.2812 38.1806L34.935 29.3145C34.9216 29.2749 34.9149 29.2286 34.9149 29.1757C34.9683 28.8583 35.1353 28.6997 35.4157 28.6997H39.802C40.0824 28.6997 40.2961 28.8583 40.4429 29.1757L42.6862 34.3724L44.649 29.1757C44.7826 28.8583 45.0095 28.6997 45.33 28.6997H49.476C49.5962 28.6997 49.703 28.746 49.7965 28.8385C49.8899 28.9179 49.9367 29.0104 49.9367 29.1162C49.9367 29.222 49.93 29.2881 49.9167 29.3145L46.9123 36.2765C46.3381 37.6252 45.8908 38.5971 45.5704 39.1922C45.2499 39.7872 44.7892 40.4021 44.1884 41.0368C43.5875 41.6583 42.8731 42.0748 42.0453 42.2864C41.2174 42.4847 40.1492 42.5839 38.8406 42.5839Z" fill="black"/>
<path d="M56.8989 33.9162H60.5042C62.2934 33.9162 63.6754 34.2996 64.6502 35.0666C65.6383 35.8203 66.1323 36.8715 66.1323 38.2203C66.1323 39.569 65.6383 40.6335 64.6502 41.4137C63.6621 42.1938 62.2734 42.5839 60.4841 42.5839H52.2322C52.0853 42.5839 51.9585 42.531 51.8516 42.4252C51.7448 42.3194 51.6914 42.1938 51.6914 42.0484V29.2352C51.6914 29.0898 51.7448 28.9641 51.8516 28.8583C51.9585 28.7526 52.0853 28.6997 52.2322 28.6997H64.0092C64.1561 28.6997 64.283 28.7526 64.3898 28.8583C64.4966 28.9641 64.55 29.0898 64.55 29.2352V32.012C64.55 32.1575 64.4966 32.2831 64.3898 32.3889C64.283 32.4947 64.1561 32.5476 64.0092 32.5476H56.8989V33.9162ZM56.8989 37.2285V39.1723H59.8032C60.1103 39.1723 60.3373 39.0732 60.4841 38.8748C60.6444 38.6633 60.7245 38.4319 60.7245 38.1806V38.1608C60.7245 37.9095 60.6377 37.6914 60.4641 37.5062C60.3039 37.3211 60.0836 37.2285 59.8032 37.2285H56.8989Z" fill="black"/>
<path d="M5.60812 58.2973V61.4708C5.60812 62.013 5.78838 62.4295 6.1489 62.7204C6.52278 63.0113 7.00347 63.1568 7.59099 63.1568C8.19186 63.1568 8.62582 63.0642 8.89288 62.8791C9.15993 62.694 9.38025 62.4229 9.55383 62.0659C9.74077 61.7089 9.98112 61.5303 10.2749 61.5303H14.6011C14.7213 61.5303 14.8215 61.5766 14.9016 61.6692C14.995 61.7485 15.0418 61.8477 15.0418 61.9667C15.0418 63.1965 14.4543 64.3204 13.2792 65.3386C12.6917 65.8411 11.9106 66.251 10.9358 66.5683C9.96109 66.8725 8.81276 67.0245 7.49085 67.0245C6.16893 67.0245 4.96052 66.8262 3.8656 66.4295C2.78403 66.0196 1.90276 65.3584 1.22177 64.446C0.540783 63.5204 0.20029 62.3898 0.20029 61.0543V58.7138C0.20029 57.3783 0.540783 56.2477 1.22177 55.3221C2.50363 53.6031 4.64673 52.7436 7.65108 52.7436C8.86617 52.7436 9.96109 52.9023 10.9358 53.2196C11.9106 53.5238 12.6917 53.9271 13.2792 54.4296C14.4543 55.4477 15.0418 56.5717 15.0418 57.8014C15.0418 57.9204 14.995 58.0262 14.9016 58.1188C14.8215 58.1981 14.7213 58.2378 14.6011 58.2378H10.2749C9.98112 58.2378 9.74077 58.0593 9.55383 57.7023C9.38025 57.3452 9.15993 57.0742 8.89288 56.8891C8.62582 56.7039 8.19186 56.6114 7.59099 56.6114C7.00347 56.6114 6.52278 56.7568 6.1489 57.0477C5.78838 57.3386 5.60812 57.7552 5.60812 58.2973Z" fill="black"/>
<path d="M22.9654 62.9584H30.957C31.1039 62.9584 31.2307 63.0113 31.3376 63.1171C31.4444 63.2229 31.4978 63.3485 31.4978 63.494V66.2907C31.4978 66.4361 31.4444 66.5617 31.3376 66.6675C31.2307 66.7733 31.1039 66.8262 30.957 66.8262H18.2987C18.1518 66.8262 18.025 66.7733 17.9181 66.6675C17.8113 66.5617 17.7579 66.4361 17.7579 66.2907V53.4775C17.7579 53.332 17.8113 53.2064 17.9181 53.1006C18.025 52.9949 18.1518 52.942 18.2987 52.942H30.7567C30.9036 52.942 31.0305 52.9949 31.1373 53.1006C31.2441 53.2064 31.2975 53.332 31.2975 53.4775V56.2742C31.2975 56.4196 31.2441 56.5453 31.1373 56.651C31.0305 56.7568 30.9036 56.8097 30.7567 56.8097H22.9654V58.0593H29.6551C29.802 58.0593 29.9289 58.1122 30.0357 58.218C30.1425 58.3238 30.1959 58.4494 30.1959 58.5948V61.1733C30.1959 61.3188 30.1425 61.4444 30.0357 61.5502C29.9289 61.656 29.802 61.7089 29.6551 61.7089H22.9654V62.9584Z" fill="black"/>
<path d="M36.0366 52.942H43.5274C45.4235 52.942 46.9257 53.3982 48.0339 54.3106C49.1422 55.2229 49.6963 56.3932 49.6963 57.8213C49.6963 59.2494 49.229 60.3866 48.2943 61.2328C47.3596 62.0659 45.7706 62.4824 43.5274 62.4824H40.8836V66.2907C40.8836 66.4361 40.8302 66.5617 40.7233 66.6675C40.6165 66.7733 40.4897 66.8262 40.3428 66.8262H36.0366C35.8897 66.8262 35.7628 66.7733 35.656 66.6675C35.5492 66.5617 35.4958 66.4361 35.4958 66.2907V53.4775C35.4958 53.332 35.5492 53.2064 35.656 53.1006C35.7628 52.9949 35.8897 52.942 36.0366 52.942ZM40.9036 56.6312V58.813H43.4473C43.7544 58.813 44.0014 58.7204 44.1884 58.5353C44.3886 58.3502 44.4888 58.0924 44.4888 57.7618C44.4888 57.4312 44.3953 57.1601 44.2084 56.9486C44.0215 56.737 43.7677 56.6312 43.4473 56.6312H40.9036Z" fill="black"/>
<path d="M66.1323 62.4626C66.1323 65.3717 64.2496 66.8262 60.4841 66.8262H52.2322C52.0853 66.8262 51.9585 66.7733 51.8516 66.6675C51.7448 66.5617 51.6914 66.4361 51.6914 66.2907V53.4775C51.6914 53.332 51.7448 53.2064 51.8516 53.1006C51.9585 52.9949 52.0853 52.942 52.2322 52.942H60.2839C62.1799 52.942 63.5753 53.2858 64.4699 53.9734C65.3779 54.6477 65.8319 55.6725 65.8319 57.0477V57.1072C65.8319 57.7419 65.6583 58.2841 65.3111 58.7337C64.964 59.1833 64.6034 59.4675 64.2296 59.5866C64.7503 59.7452 65.1976 60.0956 65.5715 60.6378C65.9454 61.1667 66.1323 61.775 66.1323 62.4626ZM56.8989 61.4708V63.4146H59.8032C60.1103 63.4146 60.3373 63.3155 60.4841 63.1171C60.6444 62.9055 60.7245 62.6741 60.7245 62.4229V62.4031C60.7245 62.1518 60.6377 61.9337 60.4641 61.7485C60.3039 61.5634 60.0836 61.4708 59.8032 61.4708H56.8989ZM60.1837 57.8808C60.3306 57.6824 60.404 57.4643 60.404 57.2262C60.404 56.9882 60.3306 56.7833 60.1837 56.6114C60.0502 56.4395 59.8499 56.3535 59.5828 56.3535H56.8989V58.1585H59.5828C59.8499 58.1585 60.0502 58.0659 60.1837 57.8808Z" fill="black"/>
<path d="M69.1288 52.942H72.8542C73.0011 52.942 73.128 52.9949 73.2348 53.1006C73.3416 53.2064 73.395 53.332 73.395 53.4775V59.3089L77.7613 53.3387C77.9616 53.0742 78.222 52.942 78.5425 52.942H81.7872C81.9341 52.942 82.0609 52.9949 82.1677 53.1006C82.2745 53.2064 82.328 53.332 82.328 53.4775V66.2907C82.328 66.4361 82.2745 66.5617 82.1677 66.6675C82.0609 66.7733 81.9341 66.8262 81.7872 66.8262H78.0618C77.9149 66.8262 77.788 66.7733 77.6812 66.6675C77.5744 66.5617 77.521 66.4361 77.521 66.2907V60.8956L73.1547 66.4097C72.941 66.6873 72.674 66.8262 72.3535 66.8262H69.1288C68.982 66.8262 68.8551 66.7733 68.7483 66.6675C68.6415 66.5617 68.5881 66.4361 68.5881 66.2907V53.4775C68.5881 53.332 68.6415 53.2064 68.7483 53.1006C68.8551 52.9949 68.982 52.942 69.1288 52.942Z" fill="black"/>
<path d="M90.6923 58.2973V61.4708C90.6923 62.013 90.8725 62.4295 91.233 62.7204C91.6069 63.0113 92.0876 63.1568 92.6751 63.1568C93.276 63.1568 93.71 63.0642 93.977 62.8791C94.2441 62.694 94.4644 62.4229 94.638 62.0659C94.8249 61.7089 95.0653 61.5303 95.359 61.5303H99.6853C99.8055 61.5303 99.9056 61.5766 99.9857 61.6692C100.079 61.7485 100.126 61.8477 100.126 61.9667C100.126 63.1965 99.5384 64.3204 98.3634 65.3386C97.7758 65.8411 96.9947 66.251 96.02 66.5683C95.0452 66.8725 93.8969 67.0245 92.575 67.0245C91.2531 67.0245 90.0446 66.8262 88.9497 66.4295C87.8682 66.0196 86.9869 65.3584 86.3059 64.446C85.6249 63.5204 85.2844 62.3898 85.2844 61.0543V58.7138C85.2844 57.3783 85.6249 56.2477 86.3059 55.3221C87.5878 53.6031 89.7309 52.7436 92.7352 52.7436C93.9503 52.7436 95.0452 52.9023 96.02 53.2196C96.9947 53.5238 97.7758 53.9271 98.3634 54.4296C99.5384 55.4477 100.126 56.5717 100.126 57.8014C100.126 57.9204 100.079 58.0262 99.9857 58.1188C99.9056 58.1981 99.8055 58.2378 99.6853 58.2378H95.359C95.0653 58.2378 94.8249 58.0593 94.638 57.7023C94.4644 57.3452 94.2441 57.0742 93.977 56.8891C93.71 56.7039 93.276 56.6114 92.6751 56.6114C92.0876 56.6114 91.6069 56.7568 91.233 57.0477C90.8725 57.3386 90.6923 57.7552 90.6923 58.2973Z" fill="black"/>
</svg>
