<svg width="336" height="48" viewBox="0 0 336 48" fill="none" xmlns="http://www.w3.org/2000/svg">
<path d="M64.84 42V33.36H65.722V37.44L69.664 33.36H70.792L66.766 37.53L71.122 42H69.97L65.722 37.68V42H64.84ZM74.1905 42.18C73.5465 42.18 72.9965 42.034 72.5405 41.742C72.0845 41.45 71.7345 41.046 71.4905 40.53C71.2465 40.014 71.1245 39.422 71.1245 38.754C71.1245 38.074 71.2485 37.478 71.4965 36.966C71.7445 36.454 72.0965 36.056 72.5525 35.772C73.0125 35.484 73.5585 35.34 74.1905 35.34C74.8385 35.34 75.3905 35.486 75.8465 35.778C76.3065 36.066 76.6565 36.468 76.8965 36.984C77.1405 37.496 77.2625 38.086 77.2625 38.754C77.2625 39.434 77.1405 40.032 76.8965 40.548C76.6525 41.06 76.3005 41.46 75.8405 41.748C75.3805 42.036 74.8305 42.18 74.1905 42.18ZM74.1905 41.334C74.9105 41.334 75.4465 41.096 75.7985 40.62C76.1505 40.14 76.3265 39.518 76.3265 38.754C76.3265 37.97 76.1485 37.346 75.7925 36.882C75.4405 36.418 74.9065 36.186 74.1905 36.186C73.7065 36.186 73.3065 36.296 72.9905 36.516C72.6785 36.732 72.4445 37.034 72.2885 37.422C72.1365 37.806 72.0605 38.25 72.0605 38.754C72.0605 39.534 72.2405 40.16 72.6005 40.632C72.9605 41.1 73.4905 41.334 74.1905 41.334ZM78.5801 42V35.52H79.3661L81.8921 40.824L84.4241 35.52H85.2041V42H84.3521V37.404L82.1741 42H81.6161L79.4381 37.404V42H78.5801ZM86.877 42V35.52H92.031V42H91.149V36.366H87.759V42H86.877ZM95.569 42.18C95.081 42.18 94.671 42.092 94.339 41.916C94.011 41.74 93.765 41.506 93.601 41.214C93.437 40.922 93.355 40.604 93.355 40.26C93.355 39.908 93.425 39.608 93.565 39.36C93.709 39.108 93.903 38.902 94.147 38.742C94.395 38.582 94.681 38.46 95.005 38.376C95.333 38.296 95.695 38.226 96.091 38.166C96.491 38.102 96.881 38.048 97.261 38.004C97.645 37.956 97.981 37.91 98.269 37.866L97.957 38.058C97.969 37.418 97.845 36.944 97.585 36.636C97.325 36.328 96.873 36.174 96.229 36.174C95.785 36.174 95.409 36.274 95.101 36.474C94.797 36.674 94.583 36.99 94.459 37.422L93.601 37.17C93.749 36.59 94.047 36.14 94.495 35.82C94.943 35.5 95.525 35.34 96.241 35.34C96.833 35.34 97.335 35.452 97.747 35.676C98.163 35.896 98.457 36.216 98.629 36.636C98.709 36.824 98.761 37.034 98.785 37.266C98.809 37.498 98.821 37.734 98.821 37.974V42H98.035V40.374L98.263 40.47C98.043 41.026 97.701 41.45 97.237 41.742C96.773 42.034 96.217 42.18 95.569 42.18ZM95.671 41.418C96.083 41.418 96.443 41.344 96.751 41.196C97.059 41.048 97.307 40.846 97.495 40.59C97.683 40.33 97.805 40.038 97.861 39.714C97.909 39.506 97.935 39.278 97.939 39.03C97.943 38.778 97.945 38.59 97.945 38.466L98.281 38.64C97.981 38.68 97.655 38.72 97.303 38.76C96.955 38.8 96.611 38.846 96.271 38.898C95.935 38.95 95.631 39.012 95.359 39.084C95.175 39.136 94.997 39.21 94.825 39.306C94.653 39.398 94.511 39.522 94.399 39.678C94.291 39.834 94.237 40.028 94.237 40.26C94.237 40.448 94.283 40.63 94.375 40.806C94.471 40.982 94.623 41.128 94.831 41.244C95.043 41.36 95.323 41.418 95.671 41.418ZM100.377 42V35.52H101.259V38.334H104.913V35.52H105.795V42H104.913V39.18H101.259V42H100.377ZM112.621 35.52V42H111.763V36.954L108.211 42H107.467V35.52H108.325V40.524L111.883 35.52H112.621ZM118.367 42V39.558H116.855C116.679 39.558 116.497 39.552 116.309 39.54C116.125 39.524 115.953 39.502 115.793 39.474C115.337 39.386 114.949 39.186 114.629 38.874C114.313 38.558 114.155 38.122 114.155 37.566C114.155 37.022 114.303 36.586 114.599 36.258C114.895 35.926 115.253 35.71 115.673 35.61C115.865 35.566 116.059 35.54 116.255 35.532C116.455 35.524 116.627 35.52 116.771 35.52H119.249L119.255 42H118.367ZM113.945 42L115.751 39.282H116.729L114.911 42H113.945ZM116.807 38.802H118.367V36.276H116.807C116.711 36.276 116.577 36.28 116.405 36.288C116.233 36.296 116.071 36.322 115.919 36.366C115.787 36.406 115.655 36.476 115.523 36.576C115.395 36.672 115.287 36.802 115.199 36.966C115.111 37.126 115.067 37.322 115.067 37.554C115.067 37.878 115.155 38.138 115.331 38.334C115.511 38.526 115.735 38.658 116.003 38.73C116.147 38.762 116.291 38.782 116.435 38.79C116.579 38.798 116.703 38.802 116.807 38.802ZM126.25 42.18C125.654 42.18 125.15 42.03 124.738 41.73C124.326 41.426 124.014 41.016 123.802 40.5C123.59 39.98 123.484 39.398 123.484 38.754C123.484 38.098 123.59 37.514 123.802 37.002C124.018 36.486 124.334 36.08 124.75 35.784C125.166 35.488 125.678 35.34 126.286 35.34C126.878 35.34 127.386 35.49 127.81 35.79C128.234 36.09 128.558 36.498 128.782 37.014C129.01 37.53 129.124 38.11 129.124 38.754C129.124 39.402 129.01 39.984 128.782 40.5C128.554 41.016 128.226 41.426 127.798 41.73C127.37 42.03 126.854 42.18 126.25 42.18ZM123.334 44.88V35.52H124.126V40.398H124.222V44.88H123.334ZM126.16 41.358C126.612 41.358 126.988 41.244 127.288 41.016C127.588 40.788 127.812 40.478 127.96 40.086C128.112 39.69 128.188 39.246 128.188 38.754C128.188 38.266 128.114 37.826 127.966 37.434C127.818 37.042 127.592 36.732 127.288 36.504C126.988 36.276 126.606 36.162 126.142 36.162C125.69 36.162 125.314 36.272 125.014 36.492C124.718 36.712 124.496 37.018 124.348 37.41C124.2 37.798 124.126 38.246 124.126 38.754C124.126 39.254 124.2 39.702 124.348 40.098C124.496 40.49 124.72 40.798 125.02 41.022C125.32 41.246 125.7 41.358 126.16 41.358ZM132.296 42.18C131.808 42.18 131.398 42.092 131.066 41.916C130.738 41.74 130.492 41.506 130.328 41.214C130.164 40.922 130.082 40.604 130.082 40.26C130.082 39.908 130.152 39.608 130.292 39.36C130.436 39.108 130.63 38.902 130.874 38.742C131.122 38.582 131.408 38.46 131.732 38.376C132.06 38.296 132.422 38.226 132.818 38.166C133.218 38.102 133.608 38.048 133.988 38.004C134.372 37.956 134.708 37.91 134.996 37.866L134.684 38.058C134.696 37.418 134.572 36.944 134.312 36.636C134.052 36.328 133.6 36.174 132.956 36.174C132.512 36.174 132.136 36.274 131.828 36.474C131.524 36.674 131.31 36.99 131.186 37.422L130.328 37.17C130.476 36.59 130.774 36.14 131.222 35.82C131.67 35.5 132.252 35.34 132.968 35.34C133.56 35.34 134.062 35.452 134.474 35.676C134.89 35.896 135.184 36.216 135.356 36.636C135.436 36.824 135.488 37.034 135.512 37.266C135.536 37.498 135.548 37.734 135.548 37.974V42H134.762V40.374L134.99 40.47C134.77 41.026 134.428 41.45 133.964 41.742C133.5 42.034 132.944 42.18 132.296 42.18ZM132.398 41.418C132.81 41.418 133.17 41.344 133.478 41.196C133.786 41.048 134.034 40.846 134.222 40.59C134.41 40.33 134.532 40.038 134.588 39.714C134.636 39.506 134.662 39.278 134.666 39.03C134.67 38.778 134.672 38.59 134.672 38.466L135.008 38.64C134.708 38.68 134.382 38.72 134.03 38.76C133.682 38.8 133.338 38.846 132.998 38.898C132.662 38.95 132.358 39.012 132.086 39.084C131.902 39.136 131.724 39.21 131.552 39.306C131.38 39.398 131.238 39.522 131.126 39.678C131.018 39.834 130.964 40.028 130.964 40.26C130.964 40.448 131.01 40.63 131.102 40.806C131.198 40.982 131.35 41.128 131.558 41.244C131.77 41.36 132.05 41.418 132.398 41.418ZM139.444 42.18C138.792 42.18 138.222 42.038 137.734 41.754C137.25 41.466 136.868 41.068 136.588 40.56L137.296 40.11C137.532 40.51 137.826 40.814 138.178 41.022C138.53 41.23 138.934 41.334 139.39 41.334C139.866 41.334 140.248 41.224 140.536 41.004C140.824 40.784 140.968 40.482 140.968 40.098C140.968 39.834 140.906 39.624 140.782 39.468C140.662 39.312 140.478 39.2 140.23 39.132C139.986 39.064 139.68 39.03 139.312 39.03H138.544V38.274H139.3C139.748 38.274 140.108 38.194 140.38 38.034C140.656 37.87 140.794 37.614 140.794 37.266C140.794 36.898 140.656 36.626 140.38 36.45C140.108 36.27 139.782 36.18 139.402 36.18C139.018 36.18 138.654 36.26 138.31 36.42C137.97 36.576 137.684 36.778 137.452 37.026L136.888 36.432C137.212 36.076 137.59 35.806 138.022 35.622C138.458 35.434 138.94 35.34 139.468 35.34C139.884 35.34 140.26 35.414 140.596 35.562C140.936 35.706 141.204 35.918 141.4 36.198C141.6 36.478 141.7 36.814 141.7 37.206C141.7 37.574 141.61 37.892 141.43 38.16C141.254 38.428 141.004 38.65 140.68 38.826L140.632 38.496C140.912 38.548 141.144 38.66 141.328 38.832C141.512 39.004 141.648 39.21 141.736 39.45C141.824 39.69 141.868 39.934 141.868 40.182C141.868 40.594 141.76 40.95 141.544 41.25C141.332 41.546 141.042 41.776 140.674 41.94C140.31 42.1 139.9 42.18 139.444 42.18ZM143.186 42V35.52H143.972L146.498 40.824L149.03 35.52H149.81V42H148.958V37.404L146.78 42H146.222L144.044 37.404V42H143.186ZM154.23 42.18C153.598 42.18 153.05 42.04 152.586 41.76C152.126 41.48 151.768 41.086 151.512 40.578C151.256 40.07 151.128 39.474 151.128 38.79C151.128 38.082 151.254 37.47 151.506 36.954C151.758 36.438 152.112 36.04 152.568 35.76C153.028 35.48 153.57 35.34 154.194 35.34C154.834 35.34 155.38 35.488 155.832 35.784C156.284 36.076 156.626 36.496 156.858 37.044C157.09 37.592 157.196 38.246 157.176 39.006H156.276V38.694C156.26 37.854 156.078 37.22 155.73 36.792C155.386 36.364 154.882 36.15 154.218 36.15C153.522 36.15 152.988 36.376 152.616 36.828C152.248 37.28 152.064 37.924 152.064 38.76C152.064 39.576 152.248 40.21 152.616 40.662C152.988 41.11 153.514 41.334 154.194 41.334C154.658 41.334 155.062 41.228 155.406 41.016C155.754 40.8 156.028 40.49 156.228 40.086L157.05 40.404C156.794 40.968 156.416 41.406 155.916 41.718C155.42 42.026 154.858 42.18 154.23 42.18ZM151.752 39.006V38.268H156.702V39.006H151.752ZM165.894 43.122V42H158.502V35.52H159.36V41.184H161.79V35.52H162.648V41.184H165.072V35.52H165.93V41.184H166.776V43.122H165.894ZM170.473 42.18C169.841 42.18 169.293 42.04 168.829 41.76C168.369 41.48 168.011 41.086 167.755 40.578C167.499 40.07 167.371 39.474 167.371 38.79C167.371 38.082 167.497 37.47 167.749 36.954C168.001 36.438 168.355 36.04 168.811 35.76C169.271 35.48 169.813 35.34 170.437 35.34C171.077 35.34 171.623 35.488 172.075 35.784C172.527 36.076 172.869 36.496 173.101 37.044C173.333 37.592 173.439 38.246 173.419 39.006H172.519V38.694C172.503 37.854 172.321 37.22 171.973 36.792C171.629 36.364 171.125 36.15 170.461 36.15C169.765 36.15 169.231 36.376 168.859 36.828C168.491 37.28 168.307 37.924 168.307 38.76C168.307 39.576 168.491 40.21 168.859 40.662C169.231 41.11 169.757 41.334 170.437 41.334C170.901 41.334 171.305 41.228 171.649 41.016C171.997 40.8 172.271 40.49 172.471 40.086L173.293 40.404C173.037 40.968 172.659 41.406 172.159 41.718C171.663 42.026 171.101 42.18 170.473 42.18ZM167.995 39.006V38.268H172.945V39.006H167.995ZM174.744 42V35.52H175.626V38.334H179.28V35.52H180.162V42H179.28V39.18H175.626V42H174.744ZM183.694 42.18C183.206 42.18 182.796 42.092 182.464 41.916C182.136 41.74 181.89 41.506 181.726 41.214C181.562 40.922 181.48 40.604 181.48 40.26C181.48 39.908 181.55 39.608 181.69 39.36C181.834 39.108 182.028 38.902 182.272 38.742C182.52 38.582 182.806 38.46 183.13 38.376C183.458 38.296 183.82 38.226 184.216 38.166C184.616 38.102 185.006 38.048 185.386 38.004C185.77 37.956 186.106 37.91 186.394 37.866L186.082 38.058C186.094 37.418 185.97 36.944 185.71 36.636C185.45 36.328 184.998 36.174 184.354 36.174C183.91 36.174 183.534 36.274 183.226 36.474C182.922 36.674 182.708 36.99 182.584 37.422L181.726 37.17C181.874 36.59 182.172 36.14 182.62 35.82C183.068 35.5 183.65 35.34 184.366 35.34C184.958 35.34 185.46 35.452 185.872 35.676C186.288 35.896 186.582 36.216 186.754 36.636C186.834 36.824 186.886 37.034 186.91 37.266C186.934 37.498 186.946 37.734 186.946 37.974V42H186.16V40.374L186.388 40.47C186.168 41.026 185.826 41.45 185.362 41.742C184.898 42.034 184.342 42.18 183.694 42.18ZM183.796 41.418C184.208 41.418 184.568 41.344 184.876 41.196C185.184 41.048 185.432 40.846 185.62 40.59C185.808 40.33 185.93 40.038 185.986 39.714C186.034 39.506 186.06 39.278 186.064 39.03C186.068 38.778 186.07 38.59 186.07 38.466L186.406 38.64C186.106 38.68 185.78 38.72 185.428 38.76C185.08 38.8 184.736 38.846 184.396 38.898C184.06 38.95 183.756 39.012 183.484 39.084C183.3 39.136 183.122 39.21 182.95 39.306C182.778 39.398 182.636 39.522 182.524 39.678C182.416 39.834 182.362 40.028 182.362 40.26C182.362 40.448 182.408 40.63 182.5 40.806C182.596 40.982 182.748 41.128 182.956 41.244C183.168 41.36 183.448 41.418 183.796 41.418ZM196.058 35.52V42H195.2V36.954L191.648 42H190.904V35.52H191.762V40.524L195.32 35.52H196.058ZM200.139 42V35.52H205.293V42H204.411V36.366H201.021V42H200.139ZM209.887 42.18C209.291 42.18 208.787 42.03 208.375 41.73C207.963 41.426 207.651 41.016 207.439 40.5C207.227 39.98 207.121 39.398 207.121 38.754C207.121 38.098 207.227 37.514 207.439 37.002C207.655 36.486 207.971 36.08 208.387 35.784C208.803 35.488 209.315 35.34 209.923 35.34C210.515 35.34 211.023 35.49 211.447 35.79C211.871 36.09 212.195 36.498 212.419 37.014C212.647 37.53 212.761 38.11 212.761 38.754C212.761 39.402 212.647 39.984 212.419 40.5C212.191 41.016 211.863 41.426 211.435 41.73C211.007 42.03 210.491 42.18 209.887 42.18ZM206.971 44.88V35.52H207.763V40.398H207.859V44.88H206.971ZM209.797 41.358C210.249 41.358 210.625 41.244 210.925 41.016C211.225 40.788 211.449 40.478 211.597 40.086C211.749 39.69 211.825 39.246 211.825 38.754C211.825 38.266 211.751 37.826 211.603 37.434C211.455 37.042 211.229 36.732 210.925 36.504C210.625 36.276 210.243 36.162 209.779 36.162C209.327 36.162 208.951 36.272 208.651 36.492C208.355 36.712 208.133 37.018 207.985 37.41C207.837 37.798 207.763 38.246 207.763 38.754C207.763 39.254 207.837 39.702 207.985 40.098C208.133 40.49 208.357 40.798 208.657 41.022C208.957 41.246 209.337 41.358 209.797 41.358ZM216.784 42.18C216.14 42.18 215.59 42.034 215.134 41.742C214.678 41.45 214.328 41.046 214.084 40.53C213.84 40.014 213.718 39.422 213.718 38.754C213.718 38.074 213.842 37.478 214.09 36.966C214.338 36.454 214.69 36.056 215.146 35.772C215.606 35.484 216.152 35.34 216.784 35.34C217.432 35.34 217.984 35.486 218.44 35.778C218.9 36.066 219.25 36.468 219.49 36.984C219.734 37.496 219.856 38.086 219.856 38.754C219.856 39.434 219.734 40.032 219.49 40.548C219.246 41.06 218.894 41.46 218.434 41.748C217.974 42.036 217.424 42.18 216.784 42.18ZM216.784 41.334C217.504 41.334 218.04 41.096 218.392 40.62C218.744 40.14 218.92 39.518 218.92 38.754C218.92 37.97 218.742 37.346 218.386 36.882C218.034 36.418 217.5 36.186 216.784 36.186C216.3 36.186 215.9 36.296 215.584 36.516C215.272 36.732 215.038 37.034 214.882 37.422C214.73 37.806 214.654 38.25 214.654 38.754C214.654 39.534 214.834 40.16 215.194 40.632C215.554 41.1 216.084 41.334 216.784 41.334ZM221.174 42V35.52H223.844C223.98 35.52 224.144 35.528 224.336 35.544C224.532 35.56 224.714 35.59 224.882 35.634C225.246 35.73 225.538 35.926 225.758 36.222C225.982 36.518 226.094 36.874 226.094 37.29C226.094 37.522 226.058 37.73 225.986 37.914C225.918 38.094 225.82 38.25 225.692 38.382C225.632 38.45 225.566 38.51 225.494 38.562C225.422 38.61 225.352 38.65 225.284 38.682C225.412 38.706 225.55 38.762 225.698 38.85C225.93 38.986 226.106 39.17 226.226 39.402C226.346 39.63 226.406 39.908 226.406 40.236C226.406 40.68 226.3 41.042 226.088 41.322C225.876 41.602 225.592 41.794 225.236 41.898C225.076 41.942 224.902 41.97 224.714 41.982C224.53 41.994 224.356 42 224.192 42H221.174ZM222.062 41.25H224.15C224.234 41.25 224.34 41.244 224.468 41.232C224.596 41.216 224.71 41.196 224.81 41.172C225.046 41.112 225.218 40.992 225.326 40.812C225.438 40.628 225.494 40.428 225.494 40.212C225.494 39.928 225.41 39.696 225.242 39.516C225.078 39.332 224.858 39.22 224.582 39.18C224.49 39.16 224.394 39.148 224.294 39.144C224.194 39.14 224.104 39.138 224.024 39.138H222.062V41.25ZM222.062 38.382H223.874C223.978 38.382 224.094 38.376 224.222 38.364C224.354 38.348 224.468 38.322 224.564 38.286C224.772 38.214 224.924 38.09 225.02 37.914C225.12 37.738 225.17 37.546 225.17 37.338C225.17 37.11 225.116 36.91 225.008 36.738C224.904 36.566 224.746 36.446 224.534 36.378C224.39 36.326 224.234 36.296 224.066 36.288C223.902 36.28 223.798 36.276 223.754 36.276H222.062V38.382ZM230.344 42.18C229.712 42.18 229.164 42.04 228.7 41.76C228.24 41.48 227.882 41.086 227.626 40.578C227.37 40.07 227.242 39.474 227.242 38.79C227.242 38.082 227.368 37.47 227.62 36.954C227.872 36.438 228.226 36.04 228.682 35.76C229.142 35.48 229.684 35.34 230.308 35.34C230.948 35.34 231.494 35.488 231.946 35.784C232.398 36.076 232.74 36.496 232.972 37.044C233.204 37.592 233.31 38.246 233.29 39.006H232.39V38.694C232.374 37.854 232.192 37.22 231.844 36.792C231.5 36.364 230.996 36.15 230.332 36.15C229.636 36.15 229.102 36.376 228.73 36.828C228.362 37.28 228.178 37.924 228.178 38.76C228.178 39.576 228.362 40.21 228.73 40.662C229.102 41.11 229.628 41.334 230.308 41.334C230.772 41.334 231.176 41.228 231.52 41.016C231.868 40.8 232.142 40.49 232.342 40.086L233.164 40.404C232.908 40.968 232.53 41.406 232.03 41.718C231.534 42.026 230.972 42.18 230.344 42.18ZM227.866 39.006V38.268H232.816V39.006H227.866ZM237.531 42.18C236.935 42.18 236.431 42.03 236.019 41.73C235.607 41.426 235.295 41.016 235.083 40.5C234.871 39.98 234.765 39.398 234.765 38.754C234.765 38.098 234.871 37.514 235.083 37.002C235.299 36.486 235.615 36.08 236.031 35.784C236.447 35.488 236.959 35.34 237.567 35.34C238.159 35.34 238.667 35.49 239.091 35.79C239.515 36.09 239.839 36.498 240.063 37.014C240.291 37.53 240.405 38.11 240.405 38.754C240.405 39.402 240.291 39.984 240.063 40.5C239.835 41.016 239.507 41.426 239.079 41.73C238.651 42.03 238.135 42.18 237.531 42.18ZM234.615 44.88V35.52H235.407V40.398H235.503V44.88H234.615ZM237.441 41.358C237.893 41.358 238.269 41.244 238.569 41.016C238.869 40.788 239.093 40.478 239.241 40.086C239.393 39.69 239.469 39.246 239.469 38.754C239.469 38.266 239.395 37.826 239.247 37.434C239.099 37.042 238.873 36.732 238.569 36.504C238.269 36.276 237.887 36.162 237.423 36.162C236.971 36.162 236.595 36.272 236.295 36.492C235.999 36.712 235.777 37.018 235.629 37.41C235.481 37.798 235.407 38.246 235.407 38.754C235.407 39.254 235.481 39.702 235.629 40.098C235.777 40.49 236.001 40.798 236.301 41.022C236.601 41.246 236.981 41.358 237.441 41.358ZM244.465 42.18C243.833 42.18 243.285 42.04 242.821 41.76C242.361 41.48 242.003 41.086 241.747 40.578C241.491 40.07 241.363 39.474 241.363 38.79C241.363 38.082 241.489 37.47 241.741 36.954C241.993 36.438 242.347 36.04 242.803 35.76C243.263 35.48 243.805 35.34 244.429 35.34C245.069 35.34 245.615 35.488 246.067 35.784C246.519 36.076 246.861 36.496 247.093 37.044C247.325 37.592 247.431 38.246 247.411 39.006H246.511V38.694C246.495 37.854 246.313 37.22 245.965 36.792C245.621 36.364 245.117 36.15 244.453 36.15C243.757 36.15 243.223 36.376 242.851 36.828C242.483 37.28 242.299 37.924 242.299 38.76C242.299 39.576 242.483 40.21 242.851 40.662C243.223 41.11 243.749 41.334 244.429 41.334C244.893 41.334 245.297 41.228 245.641 41.016C245.989 40.8 246.263 40.49 246.463 40.086L247.285 40.404C247.029 40.968 246.651 41.406 246.151 41.718C245.655 42.026 245.093 42.18 244.465 42.18ZM241.987 39.006V38.268H246.937V39.006H241.987ZM248.736 42V35.52H249.618V38.334H253.272V35.52H254.154V42H253.272V39.18H249.618V42H248.736ZM257.686 42.18C257.198 42.18 256.788 42.092 256.456 41.916C256.128 41.74 255.882 41.506 255.718 41.214C255.554 40.922 255.472 40.604 255.472 40.26C255.472 39.908 255.542 39.608 255.682 39.36C255.826 39.108 256.02 38.902 256.264 38.742C256.512 38.582 256.798 38.46 257.122 38.376C257.45 38.296 257.812 38.226 258.208 38.166C258.608 38.102 258.998 38.048 259.378 38.004C259.762 37.956 260.098 37.91 260.386 37.866L260.074 38.058C260.086 37.418 259.962 36.944 259.702 36.636C259.442 36.328 258.99 36.174 258.346 36.174C257.902 36.174 257.526 36.274 257.218 36.474C256.914 36.674 256.7 36.99 256.576 37.422L255.718 37.17C255.866 36.59 256.164 36.14 256.612 35.82C257.06 35.5 257.642 35.34 258.358 35.34C258.95 35.34 259.452 35.452 259.864 35.676C260.28 35.896 260.574 36.216 260.746 36.636C260.826 36.824 260.878 37.034 260.902 37.266C260.926 37.498 260.938 37.734 260.938 37.974V42H260.152V40.374L260.38 40.47C260.16 41.026 259.818 41.45 259.354 41.742C258.89 42.034 258.334 42.18 257.686 42.18ZM257.788 41.418C258.2 41.418 258.56 41.344 258.868 41.196C259.176 41.048 259.424 40.846 259.612 40.59C259.8 40.33 259.922 40.038 259.978 39.714C260.026 39.506 260.052 39.278 260.056 39.03C260.06 38.778 260.062 38.59 260.062 38.466L260.398 38.64C260.098 38.68 259.772 38.72 259.42 38.76C259.072 38.8 258.728 38.846 258.388 38.898C258.052 38.95 257.748 39.012 257.476 39.084C257.292 39.136 257.114 39.21 256.942 39.306C256.77 39.398 256.628 39.522 256.516 39.678C256.408 39.834 256.354 40.028 256.354 40.26C256.354 40.448 256.4 40.63 256.492 40.806C256.588 40.982 256.74 41.128 256.948 41.244C257.16 41.36 257.44 41.418 257.788 41.418ZM264.897 42V35.52H265.779V38.334H269.433V35.52H270.315V42H269.433V39.18H265.779V42H264.897ZM273.846 42.18C273.358 42.18 272.948 42.092 272.616 41.916C272.288 41.74 272.042 41.506 271.878 41.214C271.714 40.922 271.632 40.604 271.632 40.26C271.632 39.908 271.702 39.608 271.842 39.36C271.986 39.108 272.18 38.902 272.424 38.742C272.672 38.582 272.958 38.46 273.282 38.376C273.61 38.296 273.972 38.226 274.368 38.166C274.768 38.102 275.158 38.048 275.538 38.004C275.922 37.956 276.258 37.91 276.546 37.866L276.234 38.058C276.246 37.418 276.122 36.944 275.862 36.636C275.602 36.328 275.15 36.174 274.506 36.174C274.062 36.174 273.686 36.274 273.378 36.474C273.074 36.674 272.86 36.99 272.736 37.422L271.878 37.17C272.026 36.59 272.324 36.14 272.772 35.82C273.22 35.5 273.802 35.34 274.518 35.34C275.11 35.34 275.612 35.452 276.024 35.676C276.44 35.896 276.734 36.216 276.906 36.636C276.986 36.824 277.038 37.034 277.062 37.266C277.086 37.498 277.098 37.734 277.098 37.974V42H276.312V40.374L276.54 40.47C276.32 41.026 275.978 41.45 275.514 41.742C275.05 42.034 274.494 42.18 273.846 42.18ZM273.948 41.418C274.36 41.418 274.72 41.344 275.028 41.196C275.336 41.048 275.584 40.846 275.772 40.59C275.96 40.33 276.082 40.038 276.138 39.714C276.186 39.506 276.212 39.278 276.216 39.03C276.22 38.778 276.222 38.59 276.222 38.466L276.558 38.64C276.258 38.68 275.932 38.72 275.58 38.76C275.232 38.8 274.888 38.846 274.548 38.898C274.212 38.95 273.908 39.012 273.636 39.084C273.452 39.136 273.274 39.21 273.102 39.306C272.93 39.398 272.788 39.522 272.676 39.678C272.568 39.834 272.514 40.028 272.514 40.26C272.514 40.448 272.56 40.63 272.652 40.806C272.748 40.982 272.9 41.128 273.108 41.244C273.32 41.36 273.6 41.418 273.948 41.418ZM281.063 42V33.36H286.463V34.206H281.945V37.194H285.743V38.04H281.945V41.154H286.463V42H281.063ZM287.786 38.058V37.302H291.386V38.058H287.786ZM292.945 42V33.36H293.755L297.151 40.626L300.529 33.36H301.351V41.994H300.511V35.328L297.433 42H296.863L293.791 35.328V42H292.945ZM305.777 42.18C305.145 42.18 304.597 42.04 304.133 41.76C303.673 41.48 303.315 41.086 303.059 40.578C302.803 40.07 302.675 39.474 302.675 38.79C302.675 38.082 302.801 37.47 303.053 36.954C303.305 36.438 303.659 36.04 304.115 35.76C304.575 35.48 305.117 35.34 305.741 35.34C306.381 35.34 306.927 35.488 307.379 35.784C307.831 36.076 308.173 36.496 308.405 37.044C308.637 37.592 308.743 38.246 308.723 39.006H307.823V38.694C307.807 37.854 307.625 37.22 307.277 36.792C306.933 36.364 306.429 36.15 305.765 36.15C305.069 36.15 304.535 36.376 304.163 36.828C303.795 37.28 303.611 37.924 303.611 38.76C303.611 39.576 303.795 40.21 304.163 40.662C304.535 41.11 305.061 41.334 305.741 41.334C306.205 41.334 306.609 41.228 306.953 41.016C307.301 40.8 307.575 40.49 307.775 40.086L308.597 40.404C308.341 40.968 307.963 41.406 307.463 41.718C306.967 42.026 306.405 42.18 305.777 42.18ZM303.299 39.006V38.268H308.249V39.006H303.299ZM311.731 42V36.336H309.433V35.52H314.911V36.336H312.613V42H311.731ZM317.663 42.18C317.175 42.18 316.765 42.092 316.433 41.916C316.105 41.74 315.859 41.506 315.695 41.214C315.531 40.922 315.449 40.604 315.449 40.26C315.449 39.908 315.519 39.608 315.659 39.36C315.803 39.108 315.997 38.902 316.241 38.742C316.489 38.582 316.775 38.46 317.099 38.376C317.427 38.296 317.789 38.226 318.185 38.166C318.585 38.102 318.975 38.048 319.355 38.004C319.739 37.956 320.075 37.91 320.363 37.866L320.051 38.058C320.063 37.418 319.939 36.944 319.679 36.636C319.419 36.328 318.967 36.174 318.323 36.174C317.879 36.174 317.503 36.274 317.195 36.474C316.891 36.674 316.677 36.99 316.553 37.422L315.695 37.17C315.843 36.59 316.141 36.14 316.589 35.82C317.037 35.5 317.619 35.34 318.335 35.34C318.927 35.34 319.429 35.452 319.841 35.676C320.257 35.896 320.551 36.216 320.723 36.636C320.803 36.824 320.855 37.034 320.879 37.266C320.903 37.498 320.915 37.734 320.915 37.974V42H320.129V40.374L320.357 40.47C320.137 41.026 319.795 41.45 319.331 41.742C318.867 42.034 318.311 42.18 317.663 42.18ZM317.765 41.418C318.177 41.418 318.537 41.344 318.845 41.196C319.153 41.048 319.401 40.846 319.589 40.59C319.777 40.33 319.899 40.038 319.955 39.714C320.003 39.506 320.029 39.278 320.033 39.03C320.037 38.778 320.039 38.59 320.039 38.466L320.375 38.64C320.075 38.68 319.749 38.72 319.397 38.76C319.049 38.8 318.705 38.846 318.365 38.898C318.029 38.95 317.725 39.012 317.453 39.084C317.269 39.136 317.091 39.21 316.919 39.306C316.747 39.398 316.605 39.522 316.493 39.678C316.385 39.834 316.331 40.028 316.331 40.26C316.331 40.448 316.377 40.63 316.469 40.806C316.565 40.982 316.717 41.128 316.925 41.244C317.137 41.36 317.417 41.418 317.765 41.418ZM321.877 42V41.226C322.117 41.27 322.299 41.26 322.423 41.196C322.551 41.128 322.645 41.016 322.705 40.86C322.765 40.7 322.815 40.502 322.855 40.266C322.919 39.874 322.977 39.442 323.029 38.97C323.081 38.498 323.127 37.978 323.167 37.41C323.211 36.838 323.255 36.208 323.299 35.52H327.703V42H326.827V36.366H324.115C324.087 36.79 324.055 37.212 324.019 37.632C323.983 38.052 323.945 38.456 323.905 38.844C323.869 39.228 323.829 39.582 323.785 39.906C323.741 40.23 323.695 40.51 323.647 40.746C323.575 41.102 323.479 41.386 323.359 41.598C323.243 41.81 323.069 41.95 322.837 42.018C322.605 42.086 322.285 42.08 321.877 42ZM328.779 42V41.226C329.019 41.27 329.201 41.26 329.325 41.196C329.453 41.128 329.547 41.016 329.607 40.86C329.667 40.7 329.717 40.502 329.757 40.266C329.821 39.874 329.879 39.442 329.931 38.97C329.983 38.498 330.029 37.978 330.069 37.41C330.113 36.838 330.157 36.208 330.201 35.52H334.605V42H333.729V36.366H331.017C330.989 36.79 330.957 37.212 330.921 37.632C330.885 38.052 330.847 38.456 330.807 38.844C330.771 39.228 330.731 39.582 330.687 39.906C330.643 40.23 330.597 40.51 330.549 40.746C330.477 41.102 330.381 41.386 330.261 41.598C330.145 41.81 329.971 41.95 329.739 42.018C329.507 42.086 329.187 42.08 328.779 42Z" fill="black"/>
<path fill-rule="evenodd" clip-rule="evenodd" d="M223.34 7.75783L225.517 7.05388C225.767 6.97289 226.037 6.98349 226.279 7.08377C226.522 7.18405 226.72 7.36745 226.84 7.60104L227.88 9.63931C227.986 9.84623 228.154 10.0148 228.361 10.1193L230.373 11.1485C230.87 11.4013 231.109 11.9794 230.938 12.5106L230.241 14.6609C230.171 14.8816 230.171 15.1195 230.241 15.3403L230.946 17.5172C231.027 17.7667 231.017 18.0369 230.916 18.2793C230.816 18.5217 230.633 18.7204 230.399 18.8398L228.361 19.8797C228.154 19.9853 227.986 20.1533 227.881 20.3597L226.839 22.399C226.592 22.8811 226.032 23.1136 225.516 22.9462L223.34 22.2412C223.119 22.1697 222.881 22.1697 222.66 22.2412L220.483 22.9451C220.234 23.0259 219.964 23.0153 219.722 22.9153C219.479 22.8152 219.281 22.6322 219.161 22.399L218.12 20.3608C218.015 20.1539 217.847 19.9856 217.64 19.8797L215.601 18.8377C215.367 18.7185 215.184 18.52 215.084 18.2778C214.984 18.0355 214.973 17.7655 215.054 17.5161L215.759 15.3392C215.83 15.1184 215.83 14.8806 215.759 14.6598L215.055 12.4839C214.974 12.2344 214.985 11.9643 215.085 11.7219C215.185 11.4796 215.369 11.2809 215.602 11.1613L217.639 10.1203C217.846 10.0152 218.015 9.84719 218.12 9.64038L219.162 7.60104C219.408 7.12001 219.969 6.88749 220.484 7.05388L222.661 7.75783C222.881 7.83036 223.119 7.83036 223.34 7.75783Z" fill="#2764E0" stroke="#2764E0" stroke-width="1.66667" stroke-linecap="round" stroke-linejoin="round"/>
<path fill-rule="evenodd" clip-rule="evenodd" d="M225.985 12.2996C226.082 12.1848 226.219 12.111 226.369 12.0928C226.519 12.0746 226.669 12.1134 226.792 12.2015C226.914 12.2896 226.999 12.4205 227.029 12.5681C227.059 12.7158 227.032 12.8693 226.954 12.9983L226.89 13.0868L222.723 17.8865C222.629 17.9947 222.499 18.0656 222.357 18.0866C222.216 18.1075 222.071 18.077 221.95 18.0006L221.862 17.9323L218.83 15.1197C218.721 15.0175 218.654 14.8785 218.643 14.7298C218.631 14.5811 218.675 14.4333 218.766 14.3152C218.857 14.1971 218.989 14.1172 219.136 14.091C219.283 14.0649 219.434 14.0943 219.56 14.1736L219.646 14.2398L222.224 16.6311L225.985 12.2996Z" fill="white"/>
<path d="M69.928 21.24C68.776 21.24 67.7947 20.9893 66.984 20.488C66.1733 19.9813 65.552 19.2773 65.12 18.376C64.6933 17.4747 64.48 16.4293 64.48 15.24C64.48 14.0507 64.6933 13.0053 65.12 12.104C65.552 11.2027 66.1733 10.5013 66.984 10C67.7947 9.49333 68.776 9.24 69.928 9.24C71.256 9.24 72.3547 9.576 73.224 10.248C74.0987 10.92 74.7067 11.824 75.048 12.96L73.352 13.416C73.128 12.6107 72.728 11.9787 72.152 11.52C71.5813 11.0613 70.84 10.832 69.928 10.832C69.112 10.832 68.432 11.016 67.888 11.384C67.344 11.752 66.9333 12.2667 66.656 12.928C66.384 13.5893 66.248 14.36 66.248 15.24C66.2427 16.12 66.376 16.8907 66.648 17.552C66.9253 18.2133 67.336 18.728 67.88 19.096C68.4293 19.464 69.112 19.648 69.928 19.648C70.84 19.648 71.5813 19.4187 72.152 18.96C72.728 18.496 73.128 17.864 73.352 17.064L75.048 17.52C74.7067 18.656 74.0987 19.56 73.224 20.232C72.3547 20.904 71.256 21.24 69.928 21.24ZM79.0395 21V13.864H76.0875V12.36H83.6635V13.864H80.7115V21H79.0395ZM87.3725 21.24C86.7325 21.24 86.1965 21.1227 85.7645 20.888C85.3325 20.648 85.0045 20.3333 84.7805 19.944C84.5618 19.5493 84.4525 19.1173 84.4525 18.648C84.4525 18.2107 84.5298 17.8267 84.6845 17.496C84.8392 17.1653 85.0685 16.8853 85.3725 16.656C85.6765 16.4213 86.0498 16.232 86.4925 16.088C86.8765 15.976 87.3112 15.8773 87.7965 15.792C88.2818 15.7067 88.7912 15.6267 89.3245 15.552C89.8632 15.4773 90.3965 15.4027 90.9245 15.328L90.3165 15.664C90.3272 14.9867 90.1832 14.4853 89.8845 14.16C89.5912 13.8293 89.0845 13.664 88.3645 13.664C87.9112 13.664 87.4952 13.7707 87.1165 13.984C86.7378 14.192 86.4738 14.5387 86.3245 15.024L84.7645 14.544C84.9778 13.8027 85.3832 13.2133 85.9805 12.776C86.5832 12.3387 87.3832 12.12 88.3805 12.12C89.1538 12.12 89.8258 12.2533 90.3965 12.52C90.9725 12.7813 91.3938 13.1973 91.6605 13.768C91.7992 14.0507 91.8845 14.3493 91.9165 14.664C91.9485 14.9787 91.9645 15.3173 91.9645 15.68V21H90.4845V19.024L90.7725 19.28C90.4152 19.9413 89.9592 20.4347 89.4045 20.76C88.8552 21.08 88.1778 21.24 87.3725 21.24ZM87.6685 19.872C88.1432 19.872 88.5512 19.7893 88.8925 19.624C89.2338 19.4533 89.5085 19.2373 89.7165 18.976C89.9245 18.7147 90.0605 18.4427 90.1245 18.16C90.2152 17.904 90.2658 17.616 90.2765 17.296C90.2925 16.976 90.3005 16.72 90.3005 16.528L90.8445 16.728C90.3165 16.808 89.8365 16.88 89.4045 16.944C88.9725 17.008 88.5805 17.072 88.2285 17.136C87.8818 17.1947 87.5725 17.2667 87.3005 17.352C87.0712 17.432 86.8658 17.528 86.6845 17.64C86.5085 17.752 86.3672 17.888 86.2605 18.048C86.1592 18.208 86.1085 18.4027 86.1085 18.632C86.1085 18.856 86.1645 19.064 86.2765 19.256C86.3885 19.4427 86.5592 19.592 86.7885 19.704C87.0178 19.816 87.3112 19.872 87.6685 19.872ZM93.2419 21V19.584C93.5619 19.6427 93.8045 19.6347 93.9699 19.56C94.1405 19.48 94.2659 19.336 94.3459 19.128C94.4312 18.92 94.5032 18.6507 94.5619 18.32C94.6525 17.8347 94.7299 17.2827 94.7939 16.664C94.8632 16.04 94.9245 15.3653 94.9779 14.64C95.0312 13.9147 95.0792 13.1547 95.1219 12.36H101.33V21H99.6499V13.936H96.6259C96.5939 14.3573 96.5565 14.8053 96.5139 15.28C96.4765 15.7493 96.4339 16.216 96.3859 16.68C96.3379 17.144 96.2872 17.5787 96.2339 17.984C96.1805 18.3893 96.1245 18.736 96.0659 19.024C95.9592 19.6 95.8019 20.0587 95.5939 20.4C95.3912 20.736 95.1032 20.952 94.7299 21.048C94.3565 21.1493 93.8605 21.1333 93.2419 21ZM103.565 21V12.36H105.245V15.36H106.949C107.194 15.36 107.456 15.3653 107.733 15.376C108.016 15.3867 108.258 15.4133 108.461 15.456C108.925 15.552 109.325 15.712 109.661 15.936C110.002 16.16 110.266 16.4587 110.453 16.832C110.64 17.2 110.733 17.6533 110.733 18.192C110.733 18.944 110.536 19.544 110.141 19.992C109.752 20.4347 109.224 20.7333 108.557 20.888C108.344 20.936 108.09 20.968 107.797 20.984C107.509 20.9947 107.245 21 107.005 21H103.565ZM105.245 19.656H107.101C107.234 19.656 107.386 19.6507 107.557 19.64C107.728 19.6293 107.885 19.6053 108.029 19.568C108.285 19.4933 108.514 19.3413 108.717 19.112C108.92 18.8827 109.021 18.576 109.021 18.192C109.021 17.7973 108.92 17.4827 108.717 17.248C108.52 17.0133 108.269 16.8613 107.965 16.792C107.821 16.7547 107.674 16.7307 107.525 16.72C107.376 16.7093 107.234 16.704 107.101 16.704H105.245V19.656ZM115.367 21V11.056H111.535V9.48H120.871V11.056H117.039V21H115.367ZM125.41 21.24C124.584 21.24 123.89 21.04 123.33 20.64C122.77 20.2347 122.346 19.688 122.058 19C121.77 18.312 121.626 17.536 121.626 16.672C121.626 15.808 121.768 15.032 122.05 14.344C122.338 13.656 122.76 13.1147 123.314 12.72C123.874 12.32 124.562 12.12 125.378 12.12C126.189 12.12 126.888 12.32 127.474 12.72C128.066 13.1147 128.522 13.656 128.842 14.344C129.162 15.0267 129.322 15.8027 129.322 16.672C129.322 17.536 129.162 18.3147 128.842 19.008C128.528 19.696 128.077 20.24 127.49 20.64C126.909 21.04 126.216 21.24 125.41 21.24ZM121.346 24.84V12.36H122.834V18.576H123.026V24.84H121.346ZM125.178 19.728C125.712 19.728 126.152 19.592 126.498 19.32C126.85 19.048 127.112 18.6827 127.282 18.224C127.458 17.76 127.546 17.2427 127.546 16.672C127.546 16.1067 127.458 15.5947 127.282 15.136C127.112 14.6773 126.848 14.312 126.49 14.04C126.133 13.768 125.677 13.632 125.122 13.632C124.6 13.632 124.168 13.76 123.826 14.016C123.49 14.272 123.24 14.6293 123.074 15.088C122.914 15.5467 122.834 16.0747 122.834 16.672C122.834 17.2693 122.914 17.7973 123.074 18.256C123.234 18.7147 123.488 19.0747 123.834 19.336C124.181 19.5973 124.629 19.728 125.178 19.728ZM131.944 24.84L133.616 20.288L133.64 21.632L129.872 12.36H131.616L134.432 19.52H133.92L136.608 12.36H138.304L133.536 24.84H131.944ZM143.11 21.248C142.288 21.2427 141.59 21.064 141.014 20.712C140.438 20.36 139.987 19.8533 139.662 19.192C139.342 18.5253 139.155 17.7227 139.102 16.784C139.075 16.3307 139.078 15.8293 139.11 15.28C139.142 14.7253 139.2 14.1893 139.286 13.672C139.376 13.1547 139.491 12.7227 139.63 12.376C139.784 11.992 139.995 11.64 140.262 11.32C140.528 10.9947 140.822 10.7227 141.142 10.504C141.483 10.2693 141.862 10.088 142.278 9.96C142.694 9.82667 143.128 9.72267 143.582 9.648C144.04 9.57333 144.502 9.50933 144.966 9.456C145.435 9.39733 145.891 9.32533 146.334 9.24L146.494 10.736C146.2 10.8053 145.854 10.8613 145.454 10.904C145.059 10.9467 144.648 10.9947 144.222 11.048C143.8 11.1013 143.398 11.176 143.014 11.272C142.63 11.368 142.296 11.504 142.014 11.68C141.614 11.9253 141.307 12.2827 141.094 12.752C140.886 13.2213 140.76 13.7307 140.718 14.28C141.048 13.7787 141.47 13.4187 141.982 13.2C142.494 12.976 143.024 12.864 143.574 12.864C144.342 12.864 145.003 13.0453 145.558 13.408C146.118 13.7707 146.547 14.264 146.845 14.888C147.144 15.512 147.293 16.2187 147.293 17.008C147.293 17.8613 147.117 18.608 146.766 19.248C146.419 19.8827 145.931 20.3787 145.302 20.736C144.672 21.088 143.942 21.2587 143.11 21.248ZM143.198 19.672C143.966 19.672 144.544 19.4347 144.934 18.96C145.328 18.4853 145.526 17.8533 145.526 17.064C145.526 16.2533 145.323 15.616 144.918 15.152C144.512 14.688 143.939 14.456 143.198 14.456C142.446 14.456 141.87 14.688 141.47 15.152C141.075 15.616 140.878 16.2533 140.878 17.064C140.878 17.8853 141.078 18.5253 141.478 18.984C141.878 19.4427 142.451 19.672 143.198 19.672ZM153.866 21.24C152.714 21.24 151.732 20.9893 150.922 20.488C150.111 19.9813 149.49 19.2773 149.058 18.376C148.631 17.4747 148.418 16.4293 148.418 15.24C148.418 14.0507 148.631 13.0053 149.058 12.104C149.49 11.2027 150.111 10.5013 150.922 10C151.732 9.49333 152.714 9.24 153.866 9.24C155.194 9.24 156.292 9.576 157.161 10.248C158.036 10.92 158.644 11.824 158.986 12.96L157.29 13.416C157.066 12.6107 156.666 11.9787 156.09 11.52C155.519 11.0613 154.778 10.832 153.866 10.832C153.05 10.832 152.37 11.016 151.826 11.384C151.282 11.752 150.871 12.2667 150.594 12.928C150.322 13.5893 150.186 14.36 150.186 15.24C150.18 16.12 150.314 16.8907 150.586 17.552C150.863 18.2133 151.274 18.728 151.818 19.096C152.367 19.464 153.05 19.648 153.866 19.648C154.778 19.648 155.519 19.4187 156.09 18.96C156.666 18.496 157.066 17.864 157.29 17.064L158.986 17.52C158.644 18.656 158.036 19.56 157.161 20.232C156.292 20.904 155.194 21.24 153.866 21.24ZM164.577 21.24C163.718 21.24 162.964 21.0533 162.313 20.68C161.668 20.3013 161.164 19.776 160.801 19.104C160.444 18.4267 160.265 17.6427 160.265 16.752C160.265 15.808 160.441 14.9893 160.793 14.296C161.15 13.6027 161.646 13.0667 162.281 12.688C162.916 12.3093 163.654 12.12 164.497 12.12C165.377 12.12 166.126 12.3253 166.745 12.736C167.364 13.1413 167.825 13.72 168.129 14.472C168.438 15.224 168.561 16.1173 168.497 17.152H166.825V16.544C166.814 15.5413 166.622 14.8 166.249 14.32C165.881 13.84 165.318 13.6 164.561 13.6C163.724 13.6 163.094 13.864 162.673 14.392C162.252 14.92 162.041 15.6827 162.041 16.68C162.041 17.6293 162.252 18.3653 162.673 18.888C163.094 19.4053 163.702 19.664 164.497 19.664C165.02 19.664 165.47 19.5467 165.849 19.312C166.233 19.072 166.532 18.7307 166.745 18.288L168.385 18.808C168.049 19.5813 167.54 20.1813 166.857 20.608C166.174 21.0293 165.414 21.24 164.577 21.24ZM161.497 17.152V15.848H167.665V17.152H161.497ZM174.348 21.24C173.521 21.24 172.828 21.04 172.268 20.64C171.708 20.2347 171.284 19.688 170.996 19C170.708 18.312 170.564 17.536 170.564 16.672C170.564 15.808 170.705 15.032 170.988 14.344C171.276 13.656 171.697 13.1147 172.252 12.72C172.812 12.32 173.5 12.12 174.316 12.12C175.127 12.12 175.825 12.32 176.412 12.72C177.004 13.1147 177.46 13.656 177.78 14.344C178.1 15.0267 178.26 15.8027 178.26 16.672C178.26 17.536 178.1 18.3147 177.78 19.008C177.465 19.696 177.015 20.24 176.428 20.64C175.847 21.04 175.153 21.24 174.348 21.24ZM170.284 24.84V12.36H171.772V18.576H171.964V24.84H170.284ZM174.116 19.728C174.649 19.728 175.089 19.592 175.436 19.32C175.788 19.048 176.049 18.6827 176.22 18.224C176.396 17.76 176.484 17.2427 176.484 16.672C176.484 16.1067 176.396 15.5947 176.22 15.136C176.049 14.6773 175.785 14.312 175.428 14.04C175.071 13.768 174.615 13.632 174.06 13.632C173.537 13.632 173.105 13.76 172.764 14.016C172.428 14.272 172.177 14.6293 172.012 15.088C171.852 15.5467 171.772 16.0747 171.772 16.672C171.772 17.2693 171.852 17.7973 172.012 18.256C172.172 18.7147 172.425 19.0747 172.772 19.336C173.119 19.5973 173.567 19.728 174.116 19.728ZM180.018 21V12.36H183.818C184.069 12.36 184.32 12.376 184.57 12.408C184.821 12.4347 185.042 12.4747 185.234 12.528C185.672 12.6507 186.045 12.896 186.354 13.264C186.664 13.6267 186.818 14.112 186.818 14.72C186.818 15.0667 186.765 15.36 186.658 15.6C186.552 15.8347 186.405 16.0373 186.218 16.208C186.133 16.2827 186.042 16.3493 185.946 16.408C185.85 16.4667 185.754 16.512 185.658 16.544C185.856 16.576 186.05 16.6453 186.242 16.752C186.536 16.9067 186.776 17.1307 186.962 17.424C187.154 17.712 187.25 18.0987 187.25 18.584C187.25 19.1653 187.109 19.6533 186.826 20.048C186.544 20.4373 186.144 20.704 185.626 20.848C185.424 20.9067 185.194 20.9467 184.938 20.968C184.688 20.9893 184.437 21 184.186 21H180.018ZM181.714 19.68H184.082C184.194 19.68 184.322 19.6693 184.466 19.648C184.61 19.6267 184.738 19.5973 184.85 19.56C185.09 19.4853 185.261 19.3493 185.362 19.152C185.469 18.9547 185.522 18.744 185.522 18.52C185.522 18.216 185.442 17.9733 185.282 17.792C185.122 17.6053 184.92 17.4853 184.674 17.432C184.568 17.3947 184.45 17.3733 184.322 17.368C184.194 17.3627 184.085 17.36 183.994 17.36H181.714V19.68ZM181.714 16.016H183.586C183.741 16.016 183.898 16.008 184.058 15.992C184.218 15.9707 184.357 15.936 184.474 15.888C184.682 15.808 184.837 15.6747 184.938 15.488C185.04 15.296 185.09 15.088 185.09 14.864C185.09 14.6187 185.034 14.4 184.922 14.208C184.81 14.016 184.642 13.8827 184.418 13.808C184.264 13.7547 184.085 13.7253 183.882 13.72C183.685 13.7093 183.56 13.704 183.506 13.704H181.714V16.016ZM196.134 12.36V21H194.526V14.992L190.206 21H188.846V12.36H190.454V18.248L194.782 12.36H196.134ZM202.066 21.24C201.181 21.24 200.429 21.0427 199.81 20.648C199.191 20.2533 198.717 19.712 198.386 19.024C198.061 18.336 197.895 17.5547 197.89 16.68C197.895 15.7893 198.066 15.0027 198.402 14.32C198.738 13.632 199.218 13.0933 199.842 12.704C200.466 12.3147 201.215 12.12 202.09 12.12C203.034 12.12 203.839 12.3547 204.506 12.824C205.178 13.2933 205.621 13.936 205.834 14.752L204.17 15.232C204.005 14.7467 203.733 14.3707 203.354 14.104C202.981 13.832 202.551 13.696 202.066 13.696C201.517 13.696 201.066 13.8267 200.714 14.088C200.362 14.344 200.101 14.696 199.93 15.144C199.759 15.592 199.671 16.104 199.666 16.68C199.671 17.5707 199.874 18.2907 200.274 18.84C200.679 19.3893 201.277 19.664 202.066 19.664C202.605 19.664 203.039 19.5413 203.37 19.296C203.706 19.0453 203.962 18.688 204.138 18.224L205.834 18.624C205.551 19.4667 205.085 20.1147 204.434 20.568C203.783 21.016 202.994 21.24 202.066 21.24Z" fill="black"/>
<path d="M40.9782 7.02944C49.7039 15.7647 50.2973 29.5582 42.7583 38.9814L42.7381 38.9611C41.6286 40.3558 40.3672 41.6239 38.979 42.7405L38.9911 42.7526C37.1849 44.2008 35.2179 45.3492 33.1568 46.1979C31.1114 47.0477 28.923 47.6221 26.6379 47.875V47.858C24.8676 48.0511 23.0799 48.0473 21.3103 47.8465V47.875C9.32338 46.5484 0 36.3749 0 24.0214C0 13.9944 6.14242 5.40356 14.8659 1.81411C23.5523 -1.77598 33.9188 -0.0375356 40.9782 7.02944Z" fill="#313131"/>
<path fill-rule="evenodd" clip-rule="evenodd" d="M27.8455 31.2496C26.7763 31.7982 25.5765 32.0769 24.288 32.0769C20.7348 32.0769 17.7265 29.7324 16.648 26.5658C16.6117 26.4593 16.5774 26.3519 16.5453 26.2435H37.1162C37.2525 25.4324 37.3319 24.5991 37.3319 23.7213C37.3319 19.6658 35.8562 16.2435 33.2905 13.9213C31.0428 11.888 27.9662 10.688 24.288 10.688C18.9638 10.688 14.3662 13.688 12.1298 18.0436C11.1989 19.8436 10.6653 21.8658 10.6653 24.0213C10.6653 26.1769 11.1988 28.1991 12.1297 29.9991C14.3661 34.3547 18.9638 37.3547 24.288 37.3547C25.9168 37.3547 27.4275 37.0954 28.8094 36.6193C32.0114 35.6075 34.0582 33.6968 35.6685 31.1662L30.8895 28.4442C30.1381 29.6456 28.9957 30.5558 27.8452 31.2461L27.8455 31.2496ZM31.6331 21.2324C31.3039 19.588 30.339 18.1991 28.9086 17.2545C27.6826 16.4545 26.1271 15.9658 24.288 15.9658C20.8268 15.9658 17.8827 18.1903 16.7357 21.2324H31.6331Z" fill="white"/>
</svg>
