<svg width="48" height="48" viewBox="0 0 48 48" fill="none" xmlns="http://www.w3.org/2000/svg">
<rect width="48" height="48" rx="4" fill="#E44F19"/>
<path d="M30.0156 34.0391H17.9844C16.928 34.0378 15.9153 33.6176 15.1684 32.8707C14.4214 32.1237 14.0012 31.111 14 30.0547V18.0234C14.0012 16.9671 14.4214 15.9544 15.1684 15.2074C15.9153 14.4605 16.928 14.0403 17.9844 14.0391H30.0156C31.072 14.0403 32.0847 14.4605 32.8316 15.2074C33.5786 15.9544 33.9988 16.9671 34 18.0234V30.0547C33.9988 31.111 33.5786 32.1237 32.8316 32.8707C32.0847 33.6176 31.072 34.0378 30.0156 34.0391ZM17.9844 15.6016C17.3423 15.6023 16.7267 15.8577 16.2727 16.3117C15.8186 16.7657 15.5632 17.3813 15.5625 18.0234V30.0547C15.5632 30.6968 15.8186 31.3124 16.2727 31.7664C16.7267 32.2204 17.3423 32.4758 17.9844 32.4766H30.0156C30.6577 32.4758 31.2733 32.2204 31.7274 31.7664C32.1814 31.3124 32.4368 30.6968 32.4375 30.0547V18.0234C32.4368 17.3813 32.1814 16.7657 31.7274 16.3117C31.2733 15.8577 30.6577 15.6023 30.0156 15.6016H17.9844Z" fill="white"/>
<path d="M24 26.7093C23.7928 26.7093 23.5941 26.627 23.4476 26.4805C23.3011 26.3339 23.2188 26.1352 23.2188 25.928V18.6655C23.2188 18.4583 23.3011 18.2596 23.4476 18.1131C23.5941 17.9666 23.7928 17.8843 24 17.8843C24.2072 17.8843 24.4059 17.9666 24.5524 18.1131C24.6989 18.2596 24.7812 18.4583 24.7812 18.6655V25.928C24.7812 26.1352 24.6989 26.3339 24.5524 26.4805C24.4059 26.627 24.2072 26.7093 24 26.7093Z" fill="white"/>
<path d="M24 27.2662C23.8266 27.2667 23.6548 27.2328 23.4945 27.1665C23.3343 27.1002 23.1888 27.0028 23.0664 26.8798L20.0367 23.8505C19.8902 23.704 19.8079 23.5053 19.8079 23.298C19.8079 23.0908 19.8902 22.892 20.0367 22.7455C20.1833 22.5989 20.382 22.5166 20.5893 22.5166C20.7965 22.5166 20.9953 22.5989 21.1418 22.7455L24 25.6041L26.8582 22.7455C26.9308 22.6729 27.0169 22.6154 27.1117 22.5761C27.2065 22.5368 27.3081 22.5166 27.4108 22.5166C27.5134 22.5166 27.615 22.5368 27.7098 22.5761C27.8046 22.6154 27.8907 22.6729 27.9633 22.7455C28.0359 22.818 28.0934 22.9042 28.1327 22.999C28.172 23.0938 28.1922 23.1954 28.1922 23.298C28.1922 23.4006 28.172 23.5022 28.1327 23.597C28.0934 23.6918 28.0359 23.778 27.9633 23.8505L24.9336 26.8798C24.8113 27.0028 24.6657 27.1002 24.5055 27.1665C24.3452 27.2328 24.1734 27.2667 24 27.2662Z" fill="white"/>
<path d="M27.411 30.1157H20.5891C20.3819 30.1157 20.1832 30.0334 20.0367 29.8869C19.8902 29.7404 19.8079 29.5417 19.8079 29.3345C19.8079 29.1273 19.8902 28.9286 20.0367 28.782C20.1832 28.6355 20.3819 28.5532 20.5891 28.5532H27.411C27.6182 28.5532 27.8169 28.6355 27.9634 28.782C28.1099 28.9286 28.1922 29.1273 28.1922 29.3345C28.1922 29.5417 28.1099 29.7404 27.9634 29.8869C27.8169 30.0334 27.6182 30.1157 27.411 30.1157Z" fill="white"/>
</svg>
