<svg width="295" height="80" viewBox="0 0 295 80" fill="none" xmlns="http://www.w3.org/2000/svg">
<rect width="295" height="80" rx="4" fill="#F0F0F0"/>
<path d="M89.243 35.21C88.235 35.21 87.3717 34.9907 86.653 34.552C85.9343 34.1087 85.3813 33.4927 84.994 32.704C84.6113 31.9153 84.42 31.0007 84.42 29.96C84.42 28.9193 84.6113 28.0047 84.994 27.216C85.3813 26.4273 85.9343 25.8137 86.653 25.375C87.3717 24.9317 88.235 24.71 89.243 24.71C90.405 24.71 91.3733 25.0017 92.148 25.585C92.9227 26.1637 93.4663 26.9453 93.779 27.93L92.078 28.399C91.882 27.741 91.5483 27.2277 91.077 26.859C90.6057 26.4857 89.9943 26.299 89.243 26.299C88.5663 26.299 88.0017 26.4507 87.549 26.754C87.101 27.0573 86.7627 27.4843 86.534 28.035C86.31 28.581 86.1957 29.2227 86.191 29.96C86.191 30.6973 86.303 31.3413 86.527 31.892C86.7557 32.438 87.0963 32.8627 87.549 33.166C88.0017 33.4693 88.5663 33.621 89.243 33.621C89.9943 33.621 90.6057 33.4343 91.077 33.061C91.5483 32.6877 91.882 32.1743 92.078 31.521L93.779 31.99C93.4663 32.9747 92.9227 33.7587 92.148 34.342C91.3733 34.9207 90.405 35.21 89.243 35.21ZM101.868 27.44V35H100.251V30.065L96.6529 35H95.3019V27.44H96.9189V32.249L100.531 27.44H101.868ZM103.82 35V27.44H105.507V30.422H108.902V27.44H110.589V35H108.902V32.004H105.507V35H103.82ZM114.657 35.21C114.111 35.21 113.649 35.1073 113.271 34.902C112.893 34.692 112.606 34.4143 112.41 34.069C112.218 33.7237 112.123 33.3433 112.123 32.928C112.123 32.564 112.183 32.2373 112.305 31.948C112.426 31.654 112.613 31.402 112.865 31.192C113.117 30.9773 113.443 30.8023 113.845 30.667C114.148 30.569 114.503 30.4803 114.909 30.401C115.319 30.3217 115.763 30.2493 116.239 30.184C116.719 30.114 117.221 30.0393 117.744 29.96L117.142 30.303C117.146 29.7803 117.03 29.3953 116.792 29.148C116.554 28.9007 116.152 28.777 115.588 28.777C115.247 28.777 114.918 28.8563 114.601 29.015C114.283 29.1737 114.062 29.4467 113.936 29.834L112.396 29.351C112.582 28.7117 112.937 28.1983 113.46 27.811C113.987 27.4237 114.696 27.23 115.588 27.23C116.26 27.23 116.85 27.3397 117.359 27.559C117.872 27.7783 118.252 28.1377 118.5 28.637C118.635 28.903 118.717 29.176 118.745 29.456C118.773 29.7313 118.787 30.0323 118.787 30.359V35H117.31V33.362L117.555 33.628C117.214 34.174 116.815 34.5753 116.358 34.832C115.905 35.084 115.338 35.21 114.657 35.21ZM114.993 33.866C115.375 33.866 115.702 33.7983 115.973 33.663C116.243 33.5277 116.458 33.362 116.617 33.166C116.78 32.97 116.89 32.7857 116.946 32.613C117.034 32.3983 117.083 32.1533 117.093 31.878C117.107 31.598 117.114 31.3717 117.114 31.199L117.632 31.353C117.123 31.4323 116.687 31.5023 116.323 31.563C115.959 31.6237 115.646 31.682 115.385 31.738C115.123 31.7893 114.892 31.8477 114.692 31.913C114.496 31.983 114.33 32.0647 114.195 32.158C114.059 32.2513 113.954 32.3587 113.88 32.48C113.81 32.6013 113.775 32.7437 113.775 32.907C113.775 33.0937 113.821 33.2593 113.915 33.404C114.008 33.544 114.143 33.656 114.321 33.74C114.503 33.824 114.727 33.866 114.993 33.866ZM124.242 35.21C123.505 35.21 122.886 35.035 122.387 34.685C121.888 34.335 121.512 33.859 121.26 33.257C121.008 32.6503 120.882 31.9713 120.882 31.22C120.882 30.4593 121.008 29.778 121.26 29.176C121.512 28.574 121.881 28.1003 122.366 27.755C122.856 27.405 123.46 27.23 124.179 27.23C124.893 27.23 125.511 27.405 126.034 27.755C126.561 28.1003 126.97 28.574 127.259 29.176C127.548 29.7733 127.693 30.4547 127.693 31.22C127.693 31.976 127.551 32.655 127.266 33.257C126.981 33.859 126.58 34.335 126.062 34.685C125.544 35.035 124.937 35.21 124.242 35.21ZM120.595 38.36V27.44H122.086V32.746H122.296V38.36H120.595ZM123.983 33.698C124.422 33.698 124.783 33.5883 125.068 33.369C125.353 33.1497 125.563 32.8533 125.698 32.48C125.838 32.102 125.908 31.682 125.908 31.22C125.908 30.7627 125.838 30.3473 125.698 29.974C125.558 29.596 125.341 29.2973 125.047 29.078C124.753 28.854 124.38 28.742 123.927 28.742C123.498 28.742 123.148 28.847 122.877 29.057C122.606 29.2623 122.406 29.5517 122.275 29.925C122.149 30.2937 122.086 30.7253 122.086 31.22C122.086 31.71 122.149 32.1417 122.275 32.515C122.406 32.8883 122.609 33.18 122.884 33.39C123.164 33.5953 123.53 33.698 123.983 33.698ZM132.519 35.21C131.74 35.21 131.075 35.0373 130.524 34.692C129.973 34.342 129.551 33.866 129.257 33.264C128.968 32.662 128.821 31.9807 128.816 31.22C128.821 30.4453 128.972 29.7593 129.271 29.162C129.574 28.56 130.004 28.0887 130.559 27.748C131.114 27.4027 131.775 27.23 132.54 27.23C133.399 27.23 134.124 27.447 134.717 27.881C135.314 28.3103 135.704 28.8983 135.886 29.645L134.206 30.1C134.075 29.694 133.858 29.379 133.555 29.155C133.252 28.9263 132.906 28.812 132.519 28.812C132.08 28.812 131.719 28.917 131.434 29.127C131.149 29.3323 130.939 29.617 130.804 29.981C130.669 30.345 130.601 30.758 130.601 31.22C130.601 31.9387 130.762 32.5197 131.084 32.963C131.406 33.4063 131.884 33.628 132.519 33.628C132.967 33.628 133.319 33.5253 133.576 33.32C133.837 33.1147 134.033 32.8183 134.164 32.431L135.886 32.816C135.653 33.586 135.244 34.1787 134.661 34.594C134.078 35.0047 133.364 35.21 132.519 35.21ZM137.275 35L137.289 27.44H138.997V31.08L141.762 27.44H143.869L140.936 31.22L144.121 35H141.888L138.997 31.36V35H137.275ZM151.374 27.44V35H149.757V30.065L146.159 35H144.808V27.44H146.425V32.249L150.037 27.44H151.374ZM156.832 26.586C156.445 26.586 156.09 26.4903 155.768 26.299C155.446 26.1077 155.19 25.8533 154.998 25.536C154.807 25.214 154.711 24.857 154.711 24.465H156.027C156.027 24.689 156.104 24.8803 156.258 25.039C156.417 25.193 156.608 25.27 156.832 25.27C157.056 25.27 157.245 25.193 157.399 25.039C157.558 24.8803 157.637 24.689 157.637 24.465H158.953C158.953 24.857 158.858 25.214 158.666 25.536C158.475 25.8533 158.218 26.1077 157.896 26.299C157.574 26.4903 157.22 26.586 156.832 26.586ZM159.891 27.44V35H158.274V30.065L154.676 35H153.325V27.44H154.942V32.249L158.554 27.44H159.891ZM166.557 35V28.938H164.03V27.44H170.771V28.938H168.244V35H166.557ZM175.73 35.21C174.993 35.21 174.375 35.035 173.875 34.685C173.376 34.335 173 33.859 172.748 33.257C172.496 32.6503 172.37 31.9713 172.37 31.22C172.37 30.4593 172.496 29.778 172.748 29.176C173 28.574 173.369 28.1003 173.854 27.755C174.344 27.405 174.949 27.23 175.667 27.23C176.381 27.23 177 27.405 177.522 27.755C178.05 28.1003 178.458 28.574 178.747 29.176C179.037 29.7733 179.181 30.4547 179.181 31.22C179.181 31.976 179.039 32.655 178.754 33.257C178.47 33.859 178.068 34.335 177.55 34.685C177.032 35.035 176.426 35.21 175.73 35.21ZM172.083 38.36V27.44H173.574V32.746H173.784V38.36H172.083ZM175.471 33.698C175.91 33.698 176.272 33.5883 176.556 33.369C176.841 33.1497 177.051 32.8533 177.186 32.48C177.326 32.102 177.396 31.682 177.396 31.22C177.396 30.7627 177.326 30.3473 177.186 29.974C177.046 29.596 176.829 29.2973 176.535 29.078C176.241 28.854 175.868 28.742 175.415 28.742C174.986 28.742 174.636 28.847 174.365 29.057C174.095 29.2623 173.894 29.5517 173.763 29.925C173.637 30.2937 173.574 30.7253 173.574 31.22C173.574 31.71 173.637 32.1417 173.763 32.515C173.894 32.8883 174.097 33.18 174.372 33.39C174.652 33.5953 175.019 33.698 175.471 33.698ZM181.445 38.36L182.901 34.363L182.929 35.539L179.632 27.44H181.389L183.727 33.432H183.279L185.554 27.44H187.241L183.027 38.36H181.445ZM191.428 35.224C190.709 35.2147 190.098 35.0537 189.594 34.741C189.09 34.4283 188.695 33.9873 188.411 33.418C188.126 32.8487 187.953 32.1767 187.893 31.402C187.865 31.0053 187.862 30.562 187.886 30.072C187.909 29.582 187.96 29.1037 188.04 28.637C188.119 28.1703 188.229 27.7737 188.369 27.447C188.513 27.1203 188.702 26.8193 188.936 26.544C189.169 26.264 189.421 26.0307 189.692 25.844C190 25.6293 190.333 25.4637 190.693 25.347C191.057 25.2303 191.437 25.1417 191.834 25.081C192.23 25.0157 192.639 24.9573 193.059 24.906C193.479 24.8547 193.894 24.7893 194.305 24.71L194.459 26.201C194.197 26.2663 193.894 26.3177 193.549 26.355C193.208 26.3877 192.853 26.425 192.485 26.467C192.121 26.509 191.773 26.5697 191.442 26.649C191.11 26.7283 190.823 26.845 190.581 26.999C190.245 27.2043 189.988 27.4983 189.811 27.881C189.633 28.2637 189.528 28.6673 189.496 29.092C189.785 28.6627 190.144 28.3617 190.574 28.189C191.008 28.0117 191.446 27.923 191.89 27.923C192.562 27.923 193.138 28.0817 193.619 28.399C194.104 28.7163 194.475 29.148 194.732 29.694C194.993 30.2353 195.124 30.8397 195.124 31.507C195.124 32.2537 194.967 32.907 194.655 33.467C194.342 34.027 193.908 34.461 193.353 34.769C192.797 35.077 192.156 35.2287 191.428 35.224ZM191.512 33.642C192.118 33.642 192.576 33.4553 192.884 33.082C193.196 32.704 193.353 32.2023 193.353 31.577C193.353 30.9377 193.192 30.4337 192.87 30.065C192.552 29.6963 192.1 29.512 191.512 29.512C190.914 29.512 190.459 29.6963 190.147 30.065C189.834 30.4337 189.678 30.9377 189.678 31.577C189.678 32.2303 189.836 32.739 190.154 33.103C190.471 33.4623 190.924 33.642 191.512 33.642ZM196.652 35V27.44H198.339V30.422H201.734V27.44H203.421V35H201.734V32.004H198.339V35H196.652ZM205.368 35L205.361 27.44H207.048V29.96H207.895C208.105 29.96 208.34 29.9647 208.602 29.974C208.868 29.9833 209.089 30.0043 209.267 30.037C209.691 30.1303 210.053 30.2797 210.352 30.485C210.655 30.6903 210.886 30.9587 211.045 31.29C211.203 31.6213 211.283 32.0203 211.283 32.487C211.283 33.1543 211.11 33.6887 210.765 34.09C210.419 34.4867 209.936 34.7573 209.316 34.902C209.134 34.944 208.907 34.972 208.637 34.986C208.366 34.9953 208.126 35 207.916 35H205.368ZM207.048 33.677H208.063C208.165 33.677 208.28 33.6723 208.406 33.663C208.532 33.6537 208.651 33.6327 208.763 33.6C208.973 33.544 209.159 33.418 209.323 33.222C209.486 33.0213 209.568 32.7763 209.568 32.487C209.568 32.1837 209.486 31.934 209.323 31.738C209.159 31.542 208.959 31.4137 208.721 31.353C208.609 31.325 208.494 31.3063 208.378 31.297C208.266 31.2877 208.161 31.283 208.063 31.283H207.048V33.677ZM212.074 35V27.44H213.761V35H212.074ZM219.217 26.586C218.83 26.586 218.475 26.4903 218.153 26.299C217.831 26.1077 217.574 25.8533 217.383 25.536C217.192 25.214 217.096 24.857 217.096 24.465H218.412C218.412 24.689 218.489 24.8803 218.643 25.039C218.802 25.193 218.993 25.27 219.217 25.27C219.441 25.27 219.63 25.193 219.784 25.039C219.943 24.8803 220.022 24.689 220.022 24.465H221.338C221.338 24.857 221.242 25.214 221.051 25.536C220.86 25.8533 220.603 26.1077 220.281 26.299C219.959 26.4903 219.604 26.586 219.217 26.586ZM222.276 27.44V35H220.659V30.065L217.061 35H215.71V27.44H217.327V32.249L220.939 27.44H222.276ZM87.668 55.21C86.9493 55.21 86.2937 55.0583 85.701 54.755C85.1083 54.4517 84.6417 54.0363 84.301 53.509L85.631 52.62C85.9017 52.942 86.2027 53.1917 86.534 53.369C86.8653 53.5417 87.234 53.628 87.64 53.628C88.0647 53.628 88.3983 53.5347 88.641 53.348C88.8837 53.1613 89.005 52.9117 89.005 52.599C89.005 52.3237 88.9233 52.13 88.76 52.018C88.5967 51.9013 88.382 51.8313 88.116 51.808C87.85 51.7847 87.5653 51.773 87.262 51.773H86.702V50.436H87.255C87.6797 50.436 88.0343 50.387 88.319 50.289C88.6083 50.191 88.753 49.974 88.753 49.638C88.753 49.3347 88.641 49.12 88.417 48.994C88.193 48.8633 87.9317 48.798 87.633 48.798C87.269 48.798 86.9097 48.875 86.555 49.029C86.2003 49.183 85.883 49.3697 85.603 49.589L84.651 48.441C85.071 48.0677 85.54 47.7737 86.058 47.559C86.576 47.3397 87.129 47.23 87.717 47.23C88.2023 47.23 88.655 47.314 89.075 47.482C89.4997 47.65 89.8403 47.902 90.097 48.238C90.3583 48.574 90.489 48.9893 90.489 49.484C90.489 49.8387 90.412 50.1723 90.258 50.485C90.1087 50.7977 89.8683 51.094 89.537 51.374L89.516 50.828C89.7727 50.9353 89.9897 51.0847 90.167 51.276C90.349 51.4673 90.4867 51.6913 90.58 51.948C90.678 52.2047 90.727 52.4777 90.727 52.767C90.727 53.2943 90.587 53.74 90.307 54.104C90.027 54.468 89.6537 54.7433 89.187 54.93C88.725 55.1167 88.2187 55.21 87.668 55.21ZM94.3811 55.21C93.8351 55.21 93.3731 55.1073 92.9951 54.902C92.6171 54.692 92.3301 54.4143 92.1341 54.069C91.9428 53.7237 91.8471 53.3433 91.8471 52.928C91.8471 52.564 91.9078 52.2373 92.0291 51.948C92.1504 51.654 92.3371 51.402 92.5891 51.192C92.8411 50.9773 93.1678 50.8023 93.5691 50.667C93.8724 50.569 94.2271 50.4803 94.6331 50.401C95.0438 50.3217 95.4871 50.2493 95.9631 50.184C96.4438 50.114 96.9454 50.0393 97.4681 49.96L96.8661 50.303C96.8708 49.7803 96.7541 49.3953 96.5161 49.148C96.2781 48.9007 95.8768 48.777 95.3121 48.777C94.9714 48.777 94.6424 48.8563 94.3251 49.015C94.0078 49.1737 93.7861 49.4467 93.6601 49.834L92.1201 49.351C92.3068 48.7117 92.6614 48.1983 93.1841 47.811C93.7114 47.4237 94.4208 47.23 95.3121 47.23C95.9841 47.23 96.5744 47.3397 97.0831 47.559C97.5964 47.7783 97.9768 48.1377 98.2241 48.637C98.3594 48.903 98.4411 49.176 98.4691 49.456C98.4971 49.7313 98.5111 50.0323 98.5111 50.359V55H97.0341V53.362L97.2791 53.628C96.9384 54.174 96.5394 54.5753 96.0821 54.832C95.6294 55.084 95.0624 55.21 94.3811 55.21ZM94.7171 53.866C95.0998 53.866 95.4264 53.7983 95.6971 53.663C95.9678 53.5277 96.1824 53.362 96.3411 53.166C96.5044 52.97 96.6141 52.7857 96.6701 52.613C96.7588 52.3983 96.8078 52.1533 96.8171 51.878C96.8311 51.598 96.8381 51.3717 96.8381 51.199L97.3561 51.353C96.8474 51.4323 96.4111 51.5023 96.0471 51.563C95.6831 51.6237 95.3704 51.682 95.1091 51.738C94.8478 51.7893 94.6168 51.8477 94.4161 51.913C94.2201 51.983 94.0544 52.0647 93.9191 52.158C93.7838 52.2513 93.6788 52.3587 93.6041 52.48C93.5341 52.6013 93.4991 52.7437 93.4991 52.907C93.4991 53.0937 93.5458 53.2593 93.6391 53.404C93.7324 53.544 93.8678 53.656 94.0451 53.74C94.2271 53.824 94.4511 53.866 94.7171 53.866ZM100.32 55V47.44H103.757C104.004 47.44 104.235 47.454 104.45 47.482C104.664 47.51 104.849 47.545 105.003 47.587C105.367 47.6943 105.689 47.9043 105.969 48.217C106.249 48.525 106.389 48.952 106.389 49.498C106.389 49.82 106.337 50.086 106.235 50.296C106.132 50.5013 105.997 50.674 105.829 50.814C105.749 50.8793 105.668 50.9353 105.584 50.982C105.5 51.0287 105.416 51.066 105.332 51.094C105.514 51.122 105.686 51.1757 105.85 51.255C106.106 51.381 106.321 51.5677 106.494 51.815C106.671 52.0623 106.76 52.41 106.76 52.858C106.76 53.3667 106.636 53.796 106.389 54.146C106.146 54.4913 105.789 54.7317 105.318 54.867C105.145 54.9137 104.947 54.9487 104.723 54.972C104.499 54.9907 104.27 55 104.037 55H100.32ZM102.028 53.698H103.918C104.016 53.698 104.123 53.6887 104.24 53.67C104.356 53.6513 104.461 53.6257 104.555 53.593C104.723 53.5323 104.844 53.425 104.919 53.271C104.998 53.117 105.038 52.956 105.038 52.788C105.038 52.5593 104.979 52.3773 104.863 52.242C104.751 52.102 104.615 52.0087 104.457 51.962C104.363 51.9247 104.261 51.9037 104.149 51.899C104.041 51.8897 103.953 51.885 103.883 51.885H102.028V53.698ZM102.028 50.562H103.428C103.572 50.562 103.712 50.555 103.848 50.541C103.988 50.5223 104.104 50.492 104.198 50.45C104.352 50.3893 104.464 50.2867 104.534 50.142C104.608 49.9973 104.646 49.8363 104.646 49.659C104.646 49.4723 104.604 49.3043 104.52 49.155C104.44 49.001 104.312 48.8983 104.135 48.847C104.018 48.8003 103.876 48.7747 103.708 48.77C103.544 48.7653 103.439 48.763 103.393 48.763H102.028V50.562ZM111.493 55.21C110.737 55.21 110.076 55.0397 109.512 54.699C108.947 54.3583 108.508 53.8893 108.196 53.292C107.888 52.69 107.734 51.9993 107.734 51.22C107.734 50.4267 107.892 49.7313 108.21 49.134C108.527 48.5367 108.968 48.07 109.533 47.734C110.097 47.398 110.751 47.23 111.493 47.23C112.253 47.23 112.916 47.4003 113.481 47.741C114.045 48.0817 114.484 48.553 114.797 49.155C115.109 49.7523 115.266 50.4407 115.266 51.22C115.266 52.004 115.107 52.697 114.79 53.299C114.477 53.8963 114.038 54.3653 113.474 54.706C112.909 55.042 112.249 55.21 111.493 55.21ZM111.493 53.628C112.165 53.628 112.664 53.404 112.991 52.956C113.317 52.508 113.481 51.9293 113.481 51.22C113.481 50.4873 113.315 49.904 112.984 49.47C112.652 49.0313 112.155 48.812 111.493 48.812C111.04 48.812 110.667 48.9147 110.373 49.12C110.083 49.3207 109.869 49.603 109.729 49.967C109.589 50.3263 109.519 50.744 109.519 51.22C109.519 51.9527 109.684 52.5383 110.016 52.977C110.352 53.411 110.844 53.628 111.493 53.628ZM116.248 56.68V53.677C116.659 53.677 116.95 53.537 117.123 53.257C117.296 52.977 117.433 52.4917 117.536 51.801C117.601 51.3903 117.655 50.9563 117.697 50.499C117.739 50.0417 117.774 49.5587 117.802 49.05C117.835 48.5413 117.863 48.0047 117.886 47.44H123.514V53.677H124.277V56.68H122.681V55H117.837V56.68H116.248ZM118.509 53.677H121.834V48.763H119.363C119.349 49.043 119.333 49.33 119.314 49.624C119.295 49.9133 119.274 50.2027 119.251 50.492C119.228 50.7813 119.202 51.059 119.174 51.325C119.151 51.5863 119.123 51.829 119.09 52.053C119.039 52.445 118.976 52.767 118.901 53.019C118.826 53.271 118.696 53.4903 118.509 53.677Z" fill="black"/>
<path d="M59.3538 67.9391C59.5069 55.9995 53.1452 45.3562 44.1209 36.4061C35.1074 27.4659 24.3241 20.9798 12.3105 21.1115H12.2553C12.2734 21.1091 12.2924 21.1074 12.3105 21.1033C24.7631 19.4151 39.5891 21.7481 49.1609 31.2492C58.7411 40.7593 61.0716 55.5713 59.3538 67.9391ZM47.1408 63.6509L44.634 58.3309H44.5764V63.6509H40.6753V51.1028H44.5764V56.0391H44.634L47.0379 51.1028H51.4742L48.0418 56.9886L51.7946 63.6509H47.1408ZM39.1378 56.4121H35.6476V46.5586H35.5571L33.5476 56.4121H30.3054L28.352 46.5586H28.2499V56.4121H24.9327V43.8689H30.7122L32.0389 50.7289H32.1089L33.3755 43.8689H39.1378V56.4121ZM23.5031 49.1766H19.6004V40.3393H16.1613V36.6301H26.9355V40.3393H23.5031V49.1758V49.1766ZM12.0552 12V20.792C12.0371 20.7953 12.0181 20.7969 12 20.7994H12.0552V68H68V12H12.0552Z" fill="#F15C22"/>
</svg>
