<svg width="295" height="80" viewBox="0 0 295 80" fill="none" xmlns="http://www.w3.org/2000/svg">
<rect width="295" height="80" rx="4" fill="#F0F0F0"/>
<path d="M89.243 35.21C88.235 35.21 87.3717 34.9907 86.653 34.552C85.9343 34.1087 85.3813 33.4927 84.994 32.704C84.6113 31.9153 84.42 31.0007 84.42 29.96C84.42 28.9193 84.6113 28.0047 84.994 27.216C85.3813 26.4273 85.9343 25.8137 86.653 25.375C87.3717 24.9317 88.235 24.71 89.243 24.71C90.405 24.71 91.3733 25.0017 92.148 25.585C92.9227 26.1637 93.4663 26.9453 93.779 27.93L92.078 28.399C91.882 27.741 91.5483 27.2277 91.077 26.859C90.6057 26.4857 89.9943 26.299 89.243 26.299C88.5663 26.299 88.0017 26.4507 87.549 26.754C87.101 27.0573 86.7627 27.4843 86.534 28.035C86.31 28.581 86.1957 29.2227 86.191 29.96C86.191 30.6973 86.303 31.3413 86.527 31.892C86.7557 32.438 87.0963 32.8627 87.549 33.166C88.0017 33.4693 88.5663 33.621 89.243 33.621C89.9943 33.621 90.6057 33.4343 91.077 33.061C91.5483 32.6877 91.882 32.1743 92.078 31.521L93.779 31.99C93.4663 32.9747 92.9227 33.7587 92.148 34.342C91.3733 34.9207 90.405 35.21 89.243 35.21ZM98.7529 35.21C97.9876 35.21 97.3156 35.0443 96.7369 34.713C96.1583 34.3817 95.7056 33.922 95.3789 33.334C95.0569 32.746 94.8959 32.0693 94.8959 31.304C94.8959 30.478 95.0546 29.7617 95.3719 29.155C95.6893 28.5437 96.1303 28.07 96.6949 27.734C97.2596 27.398 97.9129 27.23 98.6549 27.23C99.4389 27.23 100.104 27.4143 100.65 27.783C101.201 28.147 101.609 28.6627 101.875 29.33C102.141 29.9973 102.241 30.7837 102.176 31.689H100.503V31.073C100.498 30.2517 100.354 29.652 100.069 29.274C99.7843 28.896 99.3363 28.707 98.7249 28.707C98.0343 28.707 97.5209 28.9217 97.1849 29.351C96.8489 29.7757 96.6809 30.3987 96.6809 31.22C96.6809 31.9853 96.8489 32.578 97.1849 32.998C97.5209 33.418 98.0109 33.628 98.6549 33.628C99.0703 33.628 99.4273 33.537 99.7259 33.355C100.029 33.1683 100.263 32.9 100.426 32.55L102.092 33.054C101.803 33.7353 101.355 34.265 100.748 34.643C100.146 35.021 99.4809 35.21 98.7529 35.21ZM96.1489 31.689V30.415H101.35V31.689H96.1489ZM103.724 35V27.44H107.161C107.408 27.44 107.639 27.454 107.854 27.482C108.068 27.51 108.253 27.545 108.407 27.587C108.771 27.6943 109.093 27.9043 109.373 28.217C109.653 28.525 109.793 28.952 109.793 29.498C109.793 29.82 109.741 30.086 109.639 30.296C109.536 30.5013 109.401 30.674 109.233 30.814C109.153 30.8793 109.072 30.9353 108.988 30.982C108.904 31.0287 108.82 31.066 108.736 31.094C108.918 31.122 109.09 31.1757 109.254 31.255C109.51 31.381 109.725 31.5677 109.898 31.815C110.075 32.0623 110.164 32.41 110.164 32.858C110.164 33.3667 110.04 33.796 109.793 34.146C109.55 34.4913 109.193 34.7317 108.722 34.867C108.549 34.9137 108.351 34.9487 108.127 34.972C107.903 34.9907 107.674 35 107.441 35H103.724ZM105.432 33.698H107.322C107.42 33.698 107.527 33.6887 107.644 33.67C107.76 33.6513 107.865 33.6257 107.959 33.593C108.127 33.5323 108.248 33.425 108.323 33.271C108.402 33.117 108.442 32.956 108.442 32.788C108.442 32.5593 108.383 32.3773 108.267 32.242C108.155 32.102 108.019 32.0087 107.861 31.962C107.767 31.9247 107.665 31.9037 107.553 31.899C107.445 31.8897 107.357 31.885 107.287 31.885H105.432V33.698ZM105.432 30.562H106.832C106.976 30.562 107.116 30.555 107.252 30.541C107.392 30.5223 107.508 30.492 107.602 30.45C107.756 30.3893 107.868 30.2867 107.938 30.142C108.012 29.9973 108.05 29.8363 108.05 29.659C108.05 29.4723 108.008 29.3043 107.924 29.155C107.844 29.001 107.716 28.8983 107.539 28.847C107.422 28.8003 107.28 28.7747 107.112 28.77C106.948 28.7653 106.843 28.763 106.797 28.763H105.432V30.562ZM114.995 35.21C114.23 35.21 113.558 35.0443 112.979 34.713C112.4 34.3817 111.948 33.922 111.621 33.334C111.299 32.746 111.138 32.0693 111.138 31.304C111.138 30.478 111.297 29.7617 111.614 29.155C111.931 28.5437 112.372 28.07 112.937 27.734C113.502 27.398 114.155 27.23 114.897 27.23C115.681 27.23 116.346 27.4143 116.892 27.783C117.443 28.147 117.851 28.6627 118.117 29.33C118.383 29.9973 118.483 30.7837 118.418 31.689H116.745V31.073C116.74 30.2517 116.596 29.652 116.311 29.274C116.026 28.896 115.578 28.707 114.967 28.707C114.276 28.707 113.763 28.9217 113.427 29.351C113.091 29.7757 112.923 30.3987 112.923 31.22C112.923 31.9853 113.091 32.578 113.427 32.998C113.763 33.418 114.253 33.628 114.897 33.628C115.312 33.628 115.669 33.537 115.968 33.355C116.271 33.1683 116.505 32.9 116.668 32.55L118.334 33.054C118.045 33.7353 117.597 34.265 116.99 34.643C116.388 35.021 115.723 35.21 114.995 35.21ZM112.391 31.689V30.415H117.592V31.689H112.391ZM123.613 35.21C122.876 35.21 122.257 35.035 121.758 34.685C121.259 34.335 120.883 33.859 120.631 33.257C120.379 32.6503 120.253 31.9713 120.253 31.22C120.253 30.4593 120.379 29.778 120.631 29.176C120.883 28.574 121.252 28.1003 121.737 27.755C122.227 27.405 122.831 27.23 123.55 27.23C124.264 27.23 124.882 27.405 125.405 27.755C125.932 28.1003 126.341 28.574 126.63 29.176C126.919 29.7733 127.064 30.4547 127.064 31.22C127.064 31.976 126.922 32.655 126.637 33.257C126.352 33.859 125.951 34.335 125.433 34.685C124.915 35.035 124.308 35.21 123.613 35.21ZM119.966 38.36V27.44H121.457V32.746H121.667V38.36H119.966ZM123.354 33.698C123.793 33.698 124.154 33.5883 124.439 33.369C124.724 33.1497 124.934 32.8533 125.069 32.48C125.209 32.102 125.279 31.682 125.279 31.22C125.279 30.7627 125.209 30.3473 125.069 29.974C124.929 29.596 124.712 29.2973 124.418 29.078C124.124 28.854 123.751 28.742 123.298 28.742C122.869 28.742 122.519 28.847 122.248 29.057C121.977 29.2623 121.777 29.5517 121.646 29.925C121.52 30.2937 121.457 30.7253 121.457 31.22C121.457 31.71 121.52 32.1417 121.646 32.515C121.777 32.8883 121.98 33.18 122.255 33.39C122.535 33.5953 122.901 33.698 123.354 33.698ZM131.89 35.21C131.111 35.21 130.446 35.0373 129.895 34.692C129.344 34.342 128.922 33.866 128.628 33.264C128.339 32.662 128.192 31.9807 128.187 31.22C128.192 30.4453 128.343 29.7593 128.642 29.162C128.945 28.56 129.375 28.0887 129.93 27.748C130.485 27.4027 131.146 27.23 131.911 27.23C132.77 27.23 133.495 27.447 134.088 27.881C134.685 28.3103 135.075 28.8983 135.257 29.645L133.577 30.1C133.446 29.694 133.229 29.379 132.926 29.155C132.623 28.9263 132.277 28.812 131.89 28.812C131.451 28.812 131.09 28.917 130.805 29.127C130.52 29.3323 130.31 29.617 130.175 29.981C130.04 30.345 129.972 30.758 129.972 31.22C129.972 31.9387 130.133 32.5197 130.455 32.963C130.777 33.4063 131.255 33.628 131.89 33.628C132.338 33.628 132.69 33.5253 132.947 33.32C133.208 33.1147 133.404 32.8183 133.535 32.431L135.257 32.816C135.024 33.586 134.615 34.1787 134.032 34.594C133.449 35.0047 132.735 35.21 131.89 35.21ZM136.646 35L136.66 27.44H138.368V31.08L141.133 27.44H143.24L140.307 31.22L143.492 35H141.259L138.368 31.36V35H136.646ZM150.745 27.44V35H149.128V30.065L145.53 35H144.179V27.44H145.796V32.249L149.408 27.44H150.745ZM156.203 26.586C155.816 26.586 155.461 26.4903 155.139 26.299C154.817 26.1077 154.561 25.8533 154.369 25.536C154.178 25.214 154.082 24.857 154.082 24.465H155.398C155.398 24.689 155.475 24.8803 155.629 25.039C155.788 25.193 155.979 25.27 156.203 25.27C156.427 25.27 156.616 25.193 156.77 25.039C156.929 24.8803 157.008 24.689 157.008 24.465H158.324C158.324 24.857 158.229 25.214 158.037 25.536C157.846 25.8533 157.589 26.1077 157.267 26.299C156.945 26.4903 156.591 26.586 156.203 26.586ZM159.262 27.44V35H157.645V30.065L154.047 35H152.696V27.44H154.313V32.249L157.925 27.44H159.262ZM165.928 35V28.938H163.401V27.44H170.142V28.938H167.615V35H165.928ZM175.101 35.21C174.364 35.21 173.746 35.035 173.246 34.685C172.747 34.335 172.371 33.859 172.119 33.257C171.867 32.6503 171.741 31.9713 171.741 31.22C171.741 30.4593 171.867 29.778 172.119 29.176C172.371 28.574 172.74 28.1003 173.225 27.755C173.715 27.405 174.32 27.23 175.038 27.23C175.752 27.23 176.371 27.405 176.893 27.755C177.421 28.1003 177.829 28.574 178.118 29.176C178.408 29.7733 178.552 30.4547 178.552 31.22C178.552 31.976 178.41 32.655 178.125 33.257C177.841 33.859 177.439 34.335 176.921 34.685C176.403 35.035 175.797 35.21 175.101 35.21ZM171.454 38.36V27.44H172.945V32.746H173.155V38.36H171.454ZM174.842 33.698C175.281 33.698 175.643 33.5883 175.927 33.369C176.212 33.1497 176.422 32.8533 176.557 32.48C176.697 32.102 176.767 31.682 176.767 31.22C176.767 30.7627 176.697 30.3473 176.557 29.974C176.417 29.596 176.2 29.2973 175.906 29.078C175.612 28.854 175.239 28.742 174.786 28.742C174.357 28.742 174.007 28.847 173.736 29.057C173.466 29.2623 173.265 29.5517 173.134 29.925C173.008 30.2937 172.945 30.7253 172.945 31.22C172.945 31.71 173.008 32.1417 173.134 32.515C173.265 32.8883 173.468 33.18 173.743 33.39C174.023 33.5953 174.39 33.698 174.842 33.698ZM180.816 38.36L182.272 34.363L182.3 35.539L179.003 27.44H180.76L183.098 33.432H182.65L184.925 27.44H186.612L182.398 38.36H180.816ZM190.799 35.224C190.08 35.2147 189.469 35.0537 188.965 34.741C188.461 34.4283 188.066 33.9873 187.782 33.418C187.497 32.8487 187.324 32.1767 187.264 31.402C187.236 31.0053 187.233 30.562 187.257 30.072C187.28 29.582 187.331 29.1037 187.411 28.637C187.49 28.1703 187.6 27.7737 187.74 27.447C187.884 27.1203 188.073 26.8193 188.307 26.544C188.54 26.264 188.792 26.0307 189.063 25.844C189.371 25.6293 189.704 25.4637 190.064 25.347C190.428 25.2303 190.808 25.1417 191.205 25.081C191.601 25.0157 192.01 24.9573 192.43 24.906C192.85 24.8547 193.265 24.7893 193.676 24.71L193.83 26.201C193.568 26.2663 193.265 26.3177 192.92 26.355C192.579 26.3877 192.224 26.425 191.856 26.467C191.492 26.509 191.144 26.5697 190.813 26.649C190.481 26.7283 190.194 26.845 189.952 26.999C189.616 27.2043 189.359 27.4983 189.182 27.881C189.004 28.2637 188.899 28.6673 188.867 29.092C189.156 28.6627 189.515 28.3617 189.945 28.189C190.379 28.0117 190.817 27.923 191.261 27.923C191.933 27.923 192.509 28.0817 192.99 28.399C193.475 28.7163 193.846 29.148 194.103 29.694C194.364 30.2353 194.495 30.8397 194.495 31.507C194.495 32.2537 194.338 32.907 194.026 33.467C193.713 34.027 193.279 34.461 192.724 34.769C192.168 35.077 191.527 35.2287 190.799 35.224ZM190.883 33.642C191.489 33.642 191.947 33.4553 192.255 33.082C192.567 32.704 192.724 32.2023 192.724 31.577C192.724 30.9377 192.563 30.4337 192.241 30.065C191.923 29.6963 191.471 29.512 190.883 29.512C190.285 29.512 189.83 29.6963 189.518 30.065C189.205 30.4337 189.049 30.9377 189.049 31.577C189.049 32.2303 189.207 32.739 189.525 33.103C189.842 33.4623 190.295 33.642 190.883 33.642ZM196.023 35V27.44H197.71V30.422H201.105V27.44H202.792V35H201.105V32.004H197.71V35H196.023ZM204.739 35L204.732 27.44H206.419V29.96H207.266C207.476 29.96 207.711 29.9647 207.973 29.974C208.239 29.9833 208.46 30.0043 208.638 30.037C209.062 30.1303 209.424 30.2797 209.723 30.485C210.026 30.6903 210.257 30.9587 210.416 31.29C210.574 31.6213 210.654 32.0203 210.654 32.487C210.654 33.1543 210.481 33.6887 210.136 34.09C209.79 34.4867 209.307 34.7573 208.687 34.902C208.505 34.944 208.278 34.972 208.008 34.986C207.737 34.9953 207.497 35 207.287 35H204.739ZM206.419 33.677H207.434C207.536 33.677 207.651 33.6723 207.777 33.663C207.903 33.6537 208.022 33.6327 208.134 33.6C208.344 33.544 208.53 33.418 208.694 33.222C208.857 33.0213 208.939 32.7763 208.939 32.487C208.939 32.1837 208.857 31.934 208.694 31.738C208.53 31.542 208.33 31.4137 208.092 31.353C207.98 31.325 207.865 31.3063 207.749 31.297C207.637 31.2877 207.532 31.283 207.434 31.283H206.419V33.677ZM211.445 35V27.44H213.132V35H211.445ZM218.588 26.586C218.201 26.586 217.846 26.4903 217.524 26.299C217.202 26.1077 216.946 25.8533 216.754 25.536C216.563 25.214 216.467 24.857 216.467 24.465H217.783C217.783 24.689 217.86 24.8803 218.014 25.039C218.173 25.193 218.364 25.27 218.588 25.27C218.812 25.27 219.001 25.193 219.155 25.039C219.314 24.8803 219.393 24.689 219.393 24.465H220.709C220.709 24.857 220.614 25.214 220.422 25.536C220.231 25.8533 219.974 26.1077 219.652 26.299C219.33 26.4903 218.976 26.586 218.588 26.586ZM221.647 27.44V35H220.03V30.065L216.432 35H215.081V27.44H216.698V32.249L220.31 27.44H221.647ZM87.668 55.21C86.9493 55.21 86.2937 55.0583 85.701 54.755C85.1083 54.4517 84.6417 54.0363 84.301 53.509L85.631 52.62C85.9017 52.942 86.2027 53.1917 86.534 53.369C86.8653 53.5417 87.234 53.628 87.64 53.628C88.0647 53.628 88.3983 53.5347 88.641 53.348C88.8837 53.1613 89.005 52.9117 89.005 52.599C89.005 52.3237 88.9233 52.13 88.76 52.018C88.5967 51.9013 88.382 51.8313 88.116 51.808C87.85 51.7847 87.5653 51.773 87.262 51.773H86.702V50.436H87.255C87.6797 50.436 88.0343 50.387 88.319 50.289C88.6083 50.191 88.753 49.974 88.753 49.638C88.753 49.3347 88.641 49.12 88.417 48.994C88.193 48.8633 87.9317 48.798 87.633 48.798C87.269 48.798 86.9097 48.875 86.555 49.029C86.2003 49.183 85.883 49.3697 85.603 49.589L84.651 48.441C85.071 48.0677 85.54 47.7737 86.058 47.559C86.576 47.3397 87.129 47.23 87.717 47.23C88.2023 47.23 88.655 47.314 89.075 47.482C89.4997 47.65 89.8403 47.902 90.097 48.238C90.3583 48.574 90.489 48.9893 90.489 49.484C90.489 49.8387 90.412 50.1723 90.258 50.485C90.1087 50.7977 89.8683 51.094 89.537 51.374L89.516 50.828C89.7727 50.9353 89.9897 51.0847 90.167 51.276C90.349 51.4673 90.4867 51.6913 90.58 51.948C90.678 52.2047 90.727 52.4777 90.727 52.767C90.727 53.2943 90.587 53.74 90.307 54.104C90.027 54.468 89.6537 54.7433 89.187 54.93C88.725 55.1167 88.2187 55.21 87.668 55.21ZM94.3811 55.21C93.8351 55.21 93.3731 55.1073 92.9951 54.902C92.6171 54.692 92.3301 54.4143 92.1341 54.069C91.9428 53.7237 91.8471 53.3433 91.8471 52.928C91.8471 52.564 91.9078 52.2373 92.0291 51.948C92.1504 51.654 92.3371 51.402 92.5891 51.192C92.8411 50.9773 93.1678 50.8023 93.5691 50.667C93.8724 50.569 94.2271 50.4803 94.6331 50.401C95.0438 50.3217 95.4871 50.2493 95.9631 50.184C96.4438 50.114 96.9454 50.0393 97.4681 49.96L96.8661 50.303C96.8708 49.7803 96.7541 49.3953 96.5161 49.148C96.2781 48.9007 95.8768 48.777 95.3121 48.777C94.9714 48.777 94.6424 48.8563 94.3251 49.015C94.0078 49.1737 93.7861 49.4467 93.6601 49.834L92.1201 49.351C92.3068 48.7117 92.6614 48.1983 93.1841 47.811C93.7114 47.4237 94.4208 47.23 95.3121 47.23C95.9841 47.23 96.5744 47.3397 97.0831 47.559C97.5964 47.7783 97.9768 48.1377 98.2241 48.637C98.3594 48.903 98.4411 49.176 98.4691 49.456C98.4971 49.7313 98.5111 50.0323 98.5111 50.359V55H97.0341V53.362L97.2791 53.628C96.9384 54.174 96.5394 54.5753 96.0821 54.832C95.6294 55.084 95.0624 55.21 94.3811 55.21ZM94.7171 53.866C95.0998 53.866 95.4264 53.7983 95.6971 53.663C95.9678 53.5277 96.1824 53.362 96.3411 53.166C96.5044 52.97 96.6141 52.7857 96.6701 52.613C96.7588 52.3983 96.8078 52.1533 96.8171 51.878C96.8311 51.598 96.8381 51.3717 96.8381 51.199L97.3561 51.353C96.8474 51.4323 96.4111 51.5023 96.0471 51.563C95.6831 51.6237 95.3704 51.682 95.1091 51.738C94.8478 51.7893 94.6168 51.8477 94.4161 51.913C94.2201 51.983 94.0544 52.0647 93.9191 52.158C93.7838 52.2513 93.6788 52.3587 93.6041 52.48C93.5341 52.6013 93.4991 52.7437 93.4991 52.907C93.4991 53.0937 93.5458 53.2593 93.6391 53.404C93.7324 53.544 93.8678 53.656 94.0451 53.74C94.2271 53.824 94.4511 53.866 94.7171 53.866ZM100.32 55V47.44H103.757C104.004 47.44 104.235 47.454 104.45 47.482C104.664 47.51 104.849 47.545 105.003 47.587C105.367 47.6943 105.689 47.9043 105.969 48.217C106.249 48.525 106.389 48.952 106.389 49.498C106.389 49.82 106.337 50.086 106.235 50.296C106.132 50.5013 105.997 50.674 105.829 50.814C105.749 50.8793 105.668 50.9353 105.584 50.982C105.5 51.0287 105.416 51.066 105.332 51.094C105.514 51.122 105.686 51.1757 105.85 51.255C106.106 51.381 106.321 51.5677 106.494 51.815C106.671 52.0623 106.76 52.41 106.76 52.858C106.76 53.3667 106.636 53.796 106.389 54.146C106.146 54.4913 105.789 54.7317 105.318 54.867C105.145 54.9137 104.947 54.9487 104.723 54.972C104.499 54.9907 104.27 55 104.037 55H100.32ZM102.028 53.698H103.918C104.016 53.698 104.123 53.6887 104.24 53.67C104.356 53.6513 104.461 53.6257 104.555 53.593C104.723 53.5323 104.844 53.425 104.919 53.271C104.998 53.117 105.038 52.956 105.038 52.788C105.038 52.5593 104.979 52.3773 104.863 52.242C104.751 52.102 104.615 52.0087 104.457 51.962C104.363 51.9247 104.261 51.9037 104.149 51.899C104.041 51.8897 103.953 51.885 103.883 51.885H102.028V53.698ZM102.028 50.562H103.428C103.572 50.562 103.712 50.555 103.848 50.541C103.988 50.5223 104.104 50.492 104.198 50.45C104.352 50.3893 104.464 50.2867 104.534 50.142C104.608 49.9973 104.646 49.8363 104.646 49.659C104.646 49.4723 104.604 49.3043 104.52 49.155C104.44 49.001 104.312 48.8983 104.135 48.847C104.018 48.8003 103.876 48.7747 103.708 48.77C103.544 48.7653 103.439 48.763 103.393 48.763H102.028V50.562ZM111.493 55.21C110.737 55.21 110.076 55.0397 109.512 54.699C108.947 54.3583 108.508 53.8893 108.196 53.292C107.888 52.69 107.734 51.9993 107.734 51.22C107.734 50.4267 107.892 49.7313 108.21 49.134C108.527 48.5367 108.968 48.07 109.533 47.734C110.097 47.398 110.751 47.23 111.493 47.23C112.253 47.23 112.916 47.4003 113.481 47.741C114.045 48.0817 114.484 48.553 114.797 49.155C115.109 49.7523 115.266 50.4407 115.266 51.22C115.266 52.004 115.107 52.697 114.79 53.299C114.477 53.8963 114.038 54.3653 113.474 54.706C112.909 55.042 112.249 55.21 111.493 55.21ZM111.493 53.628C112.165 53.628 112.664 53.404 112.991 52.956C113.317 52.508 113.481 51.9293 113.481 51.22C113.481 50.4873 113.315 49.904 112.984 49.47C112.652 49.0313 112.155 48.812 111.493 48.812C111.04 48.812 110.667 48.9147 110.373 49.12C110.083 49.3207 109.869 49.603 109.729 49.967C109.589 50.3263 109.519 50.744 109.519 51.22C109.519 51.9527 109.684 52.5383 110.016 52.977C110.352 53.411 110.844 53.628 111.493 53.628ZM116.248 56.68V53.677C116.659 53.677 116.95 53.537 117.123 53.257C117.296 52.977 117.433 52.4917 117.536 51.801C117.601 51.3903 117.655 50.9563 117.697 50.499C117.739 50.0417 117.774 49.5587 117.802 49.05C117.835 48.5413 117.863 48.0047 117.886 47.44H123.514V53.677H124.277V56.68H122.681V55H117.837V56.68H116.248ZM118.509 53.677H121.834V48.763H119.363C119.349 49.043 119.333 49.33 119.314 49.624C119.295 49.9133 119.274 50.2027 119.251 50.492C119.228 50.7813 119.202 51.059 119.174 51.325C119.151 51.5863 119.123 51.829 119.09 52.053C119.039 52.445 118.976 52.767 118.901 53.019C118.826 53.271 118.696 53.4903 118.509 53.677Z" fill="black"/>
<path d="M59.3538 67.9391C59.5069 55.9995 53.1452 45.3562 44.1209 36.4061C35.1074 27.4659 24.3241 20.9798 12.3105 21.1115H12.2553C12.2734 21.1091 12.2924 21.1074 12.3105 21.1033C24.7631 19.4151 39.5891 21.7481 49.1609 31.2492C58.7411 40.7593 61.0716 55.5713 59.3538 67.9391ZM47.1408 63.6509L44.634 58.3309H44.5764V63.6509H40.6753V51.1028H44.5764V56.0391H44.634L47.0379 51.1028H51.4742L48.0418 56.9886L51.7946 63.6509H47.1408ZM39.1378 56.4121H35.6476V46.5586H35.5571L33.5476 56.4121H30.3054L28.352 46.5586H28.2499V56.4121H24.9327V43.8689H30.7122L32.0389 50.7289H32.1089L33.3755 43.8689H39.1378V56.4121ZM23.5031 49.1766H19.6004V40.3393H16.1613V36.6301H26.9355V40.3393H23.5031V49.1758V49.1766ZM12.0552 12V20.792C12.0371 20.7953 12.0181 20.7969 12 20.7994H12.0552V68H68V12H12.0552Z" fill="#F15C22"/>
</svg>
