<svg width="295" height="80" viewBox="0 0 295 80" fill="none" xmlns="http://www.w3.org/2000/svg">
<rect width="295" height="80" rx="4" fill="#F0F0F0"/>
<path d="M84.98 35V24.92H93.149V35H91.462V26.502H86.667V35H84.98ZM98.5479 35.21C97.7825 35.21 97.1105 35.0443 96.5319 34.713C95.9532 34.3817 95.5005 33.922 95.1739 33.334C94.8519 32.746 94.6909 32.0693 94.6909 31.304C94.6909 30.478 94.8495 29.7617 95.1669 29.155C95.4842 28.5437 95.9252 28.07 96.4899 27.734C97.0545 27.398 97.7079 27.23 98.4499 27.23C99.2339 27.23 99.8989 27.4143 100.445 27.783C100.996 28.147 101.404 28.6627 101.67 29.33C101.936 29.9973 102.036 30.7837 101.971 31.689H100.298V31.073C100.293 30.2517 100.149 29.652 99.8639 29.274C99.5792 28.896 99.1312 28.707 98.5199 28.707C97.8292 28.707 97.3159 28.9217 96.9799 29.351C96.6439 29.7757 96.4759 30.3987 96.4759 31.22C96.4759 31.9853 96.6439 32.578 96.9799 32.998C97.3159 33.418 97.8059 33.628 98.4499 33.628C98.8652 33.628 99.2222 33.537 99.5209 33.355C99.8242 33.1683 100.058 32.9 100.221 32.55L101.887 33.054C101.598 33.7353 101.15 34.265 100.543 34.643C99.9409 35.021 99.2759 35.21 98.5479 35.21ZM95.9439 31.689V30.415H101.145V31.689H95.9439ZM107.166 35.21C106.428 35.21 105.81 35.035 105.311 34.685C104.811 34.335 104.436 33.859 104.184 33.257C103.932 32.6503 103.806 31.9713 103.806 31.22C103.806 30.4593 103.932 29.778 104.184 29.176C104.436 28.574 104.804 28.1003 105.29 27.755C105.78 27.405 106.384 27.23 107.103 27.23C107.817 27.23 108.435 27.405 108.958 27.755C109.485 28.1003 109.893 28.574 110.183 29.176C110.472 29.7733 110.617 30.4547 110.617 31.22C110.617 31.976 110.474 32.655 110.19 33.257C109.905 33.859 109.504 34.335 108.986 34.685C108.468 35.035 107.861 35.21 107.166 35.21ZM103.519 38.36V27.44H105.01V32.746H105.22V38.36H103.519ZM106.907 33.698C107.345 33.698 107.707 33.5883 107.992 33.369C108.276 33.1497 108.486 32.8533 108.622 32.48C108.762 32.102 108.832 31.682 108.832 31.22C108.832 30.7627 108.762 30.3473 108.622 29.974C108.482 29.596 108.265 29.2973 107.971 29.078C107.677 28.854 107.303 28.742 106.851 28.742C106.421 28.742 106.071 28.847 105.801 29.057C105.53 29.2623 105.329 29.5517 105.199 29.925C105.073 30.2937 105.01 30.7253 105.01 31.22C105.01 31.71 105.073 32.1417 105.199 32.515C105.329 32.8883 105.532 33.18 105.808 33.39C106.088 33.5953 106.454 33.698 106.907 33.698ZM112.146 35V27.44H115.583C115.83 27.44 116.061 27.454 116.276 27.482C116.49 27.51 116.675 27.545 116.829 27.587C117.193 27.6943 117.515 27.9043 117.795 28.217C118.075 28.525 118.215 28.952 118.215 29.498C118.215 29.82 118.163 30.086 118.061 30.296C117.958 30.5013 117.823 30.674 117.655 30.814C117.575 30.8793 117.494 30.9353 117.41 30.982C117.326 31.0287 117.242 31.066 117.158 31.094C117.34 31.122 117.512 31.1757 117.676 31.255C117.932 31.381 118.147 31.5677 118.32 31.815C118.497 32.0623 118.586 32.41 118.586 32.858C118.586 33.3667 118.462 33.796 118.215 34.146C117.972 34.4913 117.615 34.7317 117.144 34.867C116.971 34.9137 116.773 34.9487 116.549 34.972C116.325 34.9907 116.096 35 115.863 35H112.146ZM113.854 33.698H115.744C115.842 33.698 115.949 33.6887 116.066 33.67C116.182 33.6513 116.287 33.6257 116.381 33.593C116.549 33.5323 116.67 33.425 116.745 33.271C116.824 33.117 116.864 32.956 116.864 32.788C116.864 32.5593 116.805 32.3773 116.689 32.242C116.577 32.102 116.441 32.0087 116.283 31.962C116.189 31.9247 116.087 31.9037 115.975 31.899C115.867 31.8897 115.779 31.885 115.709 31.885H113.854V33.698ZM113.854 30.562H115.254C115.398 30.562 115.538 30.555 115.674 30.541C115.814 30.5223 115.93 30.492 116.024 30.45C116.178 30.3893 116.29 30.2867 116.36 30.142C116.434 29.9973 116.472 29.8363 116.472 29.659C116.472 29.4723 116.43 29.3043 116.346 29.155C116.266 29.001 116.138 28.8983 115.961 28.847C115.844 28.8003 115.702 28.7747 115.534 28.77C115.37 28.7653 115.265 28.763 115.219 28.763H113.854V30.562ZM123.319 35.21C122.563 35.21 121.903 35.0397 121.338 34.699C120.773 34.3583 120.335 33.8893 120.022 33.292C119.714 32.69 119.56 31.9993 119.56 31.22C119.56 30.4267 119.719 29.7313 120.036 29.134C120.353 28.5367 120.794 28.07 121.359 27.734C121.924 27.398 122.577 27.23 123.319 27.23C124.08 27.23 124.742 27.4003 125.307 27.741C125.872 28.0817 126.31 28.553 126.623 29.155C126.936 29.7523 127.092 30.4407 127.092 31.22C127.092 32.004 126.933 32.697 126.616 33.299C126.303 33.8963 125.865 34.3653 125.3 34.706C124.735 35.042 124.075 35.21 123.319 35.21ZM123.319 33.628C123.991 33.628 124.49 33.404 124.817 32.956C125.144 32.508 125.307 31.9293 125.307 31.22C125.307 30.4873 125.141 29.904 124.81 29.47C124.479 29.0313 123.982 28.812 123.319 28.812C122.866 28.812 122.493 28.9147 122.199 29.12C121.91 29.3207 121.695 29.603 121.555 29.967C121.415 30.3263 121.345 30.744 121.345 31.22C121.345 31.9527 121.511 32.5383 121.842 32.977C122.178 33.411 122.67 33.628 123.319 33.628ZM129.355 38.36L130.811 34.363L130.839 35.539L127.542 27.44H129.299L131.637 33.432H131.189L133.464 27.44H135.151L130.937 38.36H129.355ZM139.828 35.21C139.091 35.21 138.472 35.035 137.973 34.685C137.474 34.335 137.098 33.859 136.846 33.257C136.594 32.6503 136.468 31.9713 136.468 31.22C136.468 30.4593 136.594 29.778 136.846 29.176C137.098 28.574 137.467 28.1003 137.952 27.755C138.442 27.405 139.046 27.23 139.765 27.23C140.479 27.23 141.097 27.405 141.62 27.755C142.147 28.1003 142.556 28.574 142.845 29.176C143.134 29.7733 143.279 30.4547 143.279 31.22C143.279 31.976 143.137 32.655 142.852 33.257C142.567 33.859 142.166 34.335 141.648 34.685C141.13 35.035 140.523 35.21 139.828 35.21ZM136.181 38.36V27.44H137.672V32.746H137.882V38.36H136.181ZM139.569 33.698C140.008 33.698 140.369 33.5883 140.654 33.369C140.939 33.1497 141.149 32.8533 141.284 32.48C141.424 32.102 141.494 31.682 141.494 31.22C141.494 30.7627 141.424 30.3473 141.284 29.974C141.144 29.596 140.927 29.2973 140.633 29.078C140.339 28.854 139.966 28.742 139.513 28.742C139.084 28.742 138.734 28.847 138.463 29.057C138.192 29.2623 137.992 29.5517 137.861 29.925C137.735 30.2937 137.672 30.7253 137.672 31.22C137.672 31.71 137.735 32.1417 137.861 32.515C137.992 32.8883 138.195 33.18 138.47 33.39C138.75 33.5953 139.116 33.698 139.569 33.698ZM146.936 35.21C146.39 35.21 145.928 35.1073 145.55 34.902C145.172 34.692 144.885 34.4143 144.689 34.069C144.497 33.7237 144.402 33.3433 144.402 32.928C144.402 32.564 144.462 32.2373 144.584 31.948C144.705 31.654 144.892 31.402 145.144 31.192C145.396 30.9773 145.722 30.8023 146.124 30.667C146.427 30.569 146.782 30.4803 147.188 30.401C147.598 30.3217 148.042 30.2493 148.518 30.184C148.998 30.114 149.5 30.0393 150.023 29.96L149.421 30.303C149.425 29.7803 149.309 29.3953 149.071 29.148C148.833 28.9007 148.431 28.777 147.867 28.777C147.526 28.777 147.197 28.8563 146.88 29.015C146.562 29.1737 146.341 29.4467 146.215 29.834L144.675 29.351C144.861 28.7117 145.216 28.1983 145.739 27.811C146.266 27.4237 146.975 27.23 147.867 27.23C148.539 27.23 149.129 27.3397 149.638 27.559C150.151 27.7783 150.531 28.1377 150.779 28.637C150.914 28.903 150.996 29.176 151.024 29.456C151.052 29.7313 151.066 30.0323 151.066 30.359V35H149.589V33.362L149.834 33.628C149.493 34.174 149.094 34.5753 148.637 34.832C148.184 35.084 147.617 35.21 146.936 35.21ZM147.272 33.866C147.654 33.866 147.981 33.7983 148.252 33.663C148.522 33.5277 148.737 33.362 148.896 33.166C149.059 32.97 149.169 32.7857 149.225 32.613C149.313 32.3983 149.362 32.1533 149.372 31.878C149.386 31.598 149.393 31.3717 149.393 31.199L149.911 31.353C149.402 31.4323 148.966 31.5023 148.602 31.563C148.238 31.6237 147.925 31.682 147.664 31.738C147.402 31.7893 147.171 31.8477 146.971 31.913C146.775 31.983 146.609 32.0647 146.474 32.158C146.338 32.2513 146.233 32.3587 146.159 32.48C146.089 32.6013 146.054 32.7437 146.054 32.907C146.054 33.0937 146.1 33.2593 146.194 33.404C146.287 33.544 146.422 33.656 146.6 33.74C146.782 33.824 147.006 33.866 147.272 33.866ZM152.188 35V33.586C152.464 33.6373 152.676 33.6327 152.825 33.572C152.975 33.5067 153.087 33.3853 153.161 33.208C153.236 33.0307 153.301 32.795 153.357 32.501C153.432 32.0857 153.497 31.6073 153.553 31.066C153.614 30.5247 153.665 29.946 153.707 29.33C153.754 28.714 153.796 28.084 153.833 27.44H159.398V35H157.718V29.022H155.317C155.294 29.3253 155.266 29.666 155.233 30.044C155.201 30.4173 155.166 30.7953 155.128 31.178C155.091 31.5607 155.049 31.9247 155.002 32.27C154.96 32.6107 154.916 32.9023 154.869 33.145C154.762 33.691 154.608 34.1227 154.407 34.44C154.211 34.7573 153.936 34.9603 153.581 35.049C153.227 35.1423 152.762 35.126 152.188 35ZM161.358 35L161.351 27.44H163.038V29.96H164.396C164.606 29.96 164.841 29.9647 165.103 29.974C165.369 29.9833 165.59 30.0043 165.768 30.037C166.192 30.1303 166.554 30.2797 166.853 30.485C167.156 30.6903 167.387 30.9587 167.546 31.29C167.704 31.6213 167.784 32.0203 167.784 32.487C167.784 33.1543 167.611 33.6887 167.266 34.09C166.925 34.4867 166.444 34.7573 165.824 34.902C165.637 34.944 165.408 34.972 165.138 34.986C164.872 34.9953 164.631 35 164.417 35H161.358ZM163.038 33.677H164.564C164.666 33.677 164.781 33.6723 164.907 33.663C165.033 33.6537 165.154 33.6327 165.271 33.6C165.481 33.544 165.665 33.418 165.824 33.222C165.987 33.0213 166.069 32.7763 166.069 32.487C166.069 32.1837 165.987 31.934 165.824 31.738C165.66 31.542 165.46 31.4137 165.222 31.353C165.114 31.325 165.002 31.3063 164.886 31.297C164.769 31.2877 164.662 31.283 164.564 31.283H163.038V33.677ZM172.605 35.21C171.825 35.21 171.16 35.0373 170.61 34.692C170.059 34.342 169.637 33.866 169.343 33.264C169.053 32.662 168.906 31.9807 168.902 31.22C168.906 30.4453 169.058 29.7593 169.357 29.162C169.66 28.56 170.089 28.0887 170.645 27.748C171.2 27.4027 171.86 27.23 172.626 27.23C173.484 27.23 174.21 27.447 174.803 27.881C175.4 28.3103 175.79 28.8983 175.972 29.645L174.292 30.1C174.161 29.694 173.944 29.379 173.641 29.155C173.337 28.9263 172.992 28.812 172.605 28.812C172.166 28.812 171.804 28.917 171.52 29.127C171.235 29.3323 171.025 29.617 170.89 29.981C170.754 30.345 170.687 30.758 170.687 31.22C170.687 31.9387 170.848 32.5197 171.17 32.963C171.492 33.4063 171.97 33.628 172.605 33.628C173.053 33.628 173.405 33.5253 173.662 33.32C173.923 33.1147 174.119 32.8183 174.25 32.431L175.972 32.816C175.738 33.586 175.33 34.1787 174.747 34.594C174.163 35.0047 173.449 35.21 172.605 35.21ZM177.361 35L177.375 27.44H179.083V31.08L181.848 27.44H183.955L181.022 31.22L184.207 35H181.974L179.083 31.36V35H177.361ZM191.46 27.44V35H189.843V30.065L186.245 35H184.894V27.44H186.511V32.249L190.123 27.44H191.46ZM196.918 26.586C196.531 26.586 196.176 26.4903 195.854 26.299C195.532 26.1077 195.276 25.8533 195.084 25.536C194.893 25.214 194.797 24.857 194.797 24.465H196.113C196.113 24.689 196.19 24.8803 196.344 25.039C196.503 25.193 196.694 25.27 196.918 25.27C197.142 25.27 197.331 25.193 197.485 25.039C197.644 24.8803 197.723 24.689 197.723 24.465H199.039C199.039 24.857 198.944 25.214 198.752 25.536C198.561 25.8533 198.304 26.1077 197.982 26.299C197.66 26.4903 197.306 26.586 196.918 26.586ZM199.977 27.44V35H198.36V30.065L194.762 35H193.411V27.44H195.028V32.249L198.64 27.44H199.977ZM84.966 55V47.44H86.653V50.422H90.048V47.44H91.735V55H90.048V52.004H86.653V55H84.966ZM97.028 55.21C96.272 55.21 95.6117 55.0397 95.047 54.699C94.4823 54.3583 94.0437 53.8893 93.731 53.292C93.423 52.69 93.269 51.9993 93.269 51.22C93.269 50.4267 93.4277 49.7313 93.745 49.134C94.0623 48.5367 94.5033 48.07 95.068 47.734C95.6327 47.398 96.286 47.23 97.028 47.23C97.7887 47.23 98.4513 47.4003 99.016 47.741C99.5807 48.0817 100.019 48.553 100.332 49.155C100.645 49.7523 100.801 50.4407 100.801 51.22C100.801 52.004 100.642 52.697 100.325 53.299C100.012 53.8963 99.5737 54.3653 99.009 54.706C98.4443 55.042 97.784 55.21 97.028 55.21ZM97.028 53.628C97.7 53.628 98.1993 53.404 98.526 52.956C98.8527 52.508 99.016 51.9293 99.016 51.22C99.016 50.4873 98.8503 49.904 98.519 49.47C98.1877 49.0313 97.6907 48.812 97.028 48.812C96.5753 48.812 96.202 48.9147 95.908 49.12C95.6187 49.3207 95.404 49.603 95.264 49.967C95.124 50.3263 95.054 50.744 95.054 51.22C95.054 51.9527 95.2197 52.5383 95.551 52.977C95.887 53.411 96.3793 53.628 97.028 53.628ZM102.329 55V47.44H105.766C106.014 47.44 106.245 47.454 106.459 47.482C106.674 47.51 106.858 47.545 107.012 47.587C107.376 47.6943 107.698 47.9043 107.978 48.217C108.258 48.525 108.398 48.952 108.398 49.498C108.398 49.82 108.347 50.086 108.244 50.296C108.142 50.5013 108.006 50.674 107.838 50.814C107.759 50.8793 107.677 50.9353 107.593 50.982C107.509 51.0287 107.425 51.066 107.341 51.094C107.523 51.122 107.696 51.1757 107.859 51.255C108.116 51.381 108.331 51.5677 108.503 51.815C108.681 52.0623 108.769 52.41 108.769 52.858C108.769 53.3667 108.646 53.796 108.398 54.146C108.156 54.4913 107.799 54.7317 107.327 54.867C107.155 54.9137 106.956 54.9487 106.732 54.972C106.508 54.9907 106.28 55 106.046 55H102.329ZM104.037 53.698H105.927C106.025 53.698 106.133 53.6887 106.249 53.67C106.366 53.6513 106.471 53.6257 106.564 53.593C106.732 53.5323 106.854 53.425 106.928 53.271C107.008 53.117 107.047 52.956 107.047 52.788C107.047 52.5593 106.989 52.3773 106.872 52.242C106.76 52.102 106.625 52.0087 106.466 51.962C106.373 51.9247 106.27 51.9037 106.158 51.899C106.051 51.8897 105.962 51.885 105.892 51.885H104.037V53.698ZM104.037 50.562H105.437C105.582 50.562 105.722 50.555 105.857 50.541C105.997 50.5223 106.114 50.492 106.207 50.45C106.361 50.3893 106.473 50.2867 106.543 50.142C106.618 49.9973 106.655 49.8363 106.655 49.659C106.655 49.4723 106.613 49.3043 106.529 49.155C106.45 49.001 106.322 48.8983 106.144 48.847C106.028 48.8003 105.885 48.7747 105.717 48.77C105.554 48.7653 105.449 48.763 105.402 48.763H104.037V50.562ZM113.503 55.21C112.747 55.21 112.086 55.0397 111.522 54.699C110.957 54.3583 110.518 53.8893 110.206 53.292C109.898 52.69 109.744 51.9993 109.744 51.22C109.744 50.4267 109.902 49.7313 110.22 49.134C110.537 48.5367 110.978 48.07 111.543 47.734C112.107 47.398 112.761 47.23 113.503 47.23C114.263 47.23 114.926 47.4003 115.491 47.741C116.055 48.0817 116.494 48.553 116.807 49.155C117.119 49.7523 117.276 50.4407 117.276 51.22C117.276 52.004 117.117 52.697 116.8 53.299C116.487 53.8963 116.048 54.3653 115.484 54.706C114.919 55.042 114.259 55.21 113.503 55.21ZM113.503 53.628C114.175 53.628 114.674 53.404 115.001 52.956C115.327 52.508 115.491 51.9293 115.491 51.22C115.491 50.4873 115.325 49.904 114.994 49.47C114.662 49.0313 114.165 48.812 113.503 48.812C113.05 48.812 112.677 48.9147 112.383 49.12C112.093 49.3207 111.879 49.603 111.739 49.967C111.599 50.3263 111.529 50.744 111.529 51.22C111.529 51.9527 111.694 52.5383 112.026 52.977C112.362 53.411 112.854 53.628 113.503 53.628ZM120.565 55V48.938H118.038V47.44H124.779V48.938H122.252V55H120.565ZM129.738 55.21C129.001 55.21 128.382 55.035 127.883 54.685C127.384 54.335 127.008 53.859 126.756 53.257C126.504 52.6503 126.378 51.9713 126.378 51.22C126.378 50.4593 126.504 49.778 126.756 49.176C127.008 48.574 127.377 48.1003 127.862 47.755C128.352 47.405 128.956 47.23 129.675 47.23C130.389 47.23 131.007 47.405 131.53 47.755C132.057 48.1003 132.466 48.574 132.755 49.176C133.044 49.7733 133.189 50.4547 133.189 51.22C133.189 51.976 133.047 52.655 132.762 53.257C132.477 53.859 132.076 54.335 131.558 54.685C131.04 55.035 130.433 55.21 129.738 55.21ZM126.091 58.36V47.44H127.582V52.746H127.792V58.36H126.091ZM129.479 53.698C129.918 53.698 130.279 53.5883 130.564 53.369C130.849 53.1497 131.059 52.8533 131.194 52.48C131.334 52.102 131.404 51.682 131.404 51.22C131.404 50.7627 131.334 50.3473 131.194 49.974C131.054 49.596 130.837 49.2973 130.543 49.078C130.249 48.854 129.876 48.742 129.423 48.742C128.994 48.742 128.644 48.847 128.373 49.057C128.102 49.2623 127.902 49.5517 127.771 49.925C127.645 50.2937 127.582 50.7253 127.582 51.22C127.582 51.71 127.645 52.1417 127.771 52.515C127.902 52.8883 128.105 53.18 128.38 53.39C128.66 53.5953 129.026 53.698 129.479 53.698ZM135.453 58.36L136.909 54.363L136.937 55.539L133.64 47.44H135.397L137.735 53.432H137.287L139.562 47.44H141.249L137.035 58.36H135.453ZM145.436 55.224C144.717 55.2147 144.106 55.0537 143.602 54.741C143.098 54.4283 142.703 53.9873 142.419 53.418C142.134 52.8487 141.961 52.1767 141.901 51.402C141.873 51.0053 141.87 50.562 141.894 50.072C141.917 49.582 141.968 49.1037 142.048 48.637C142.127 48.1703 142.237 47.7737 142.377 47.447C142.521 47.1203 142.71 46.8193 142.944 46.544C143.177 46.264 143.429 46.0307 143.7 45.844C144.008 45.6293 144.341 45.4637 144.701 45.347C145.065 45.2303 145.445 45.1417 145.842 45.081C146.238 45.0157 146.647 44.9573 147.067 44.906C147.487 44.8547 147.902 44.7893 148.312 44.71L148.467 46.201C148.205 46.2663 147.902 46.3177 147.557 46.355C147.216 46.3877 146.861 46.425 146.493 46.467C146.129 46.509 145.781 46.5697 145.45 46.649C145.118 46.7283 144.831 46.845 144.589 46.999C144.253 47.2043 143.996 47.4983 143.819 47.881C143.641 48.2637 143.536 48.6673 143.504 49.092C143.793 48.6627 144.152 48.3617 144.582 48.189C145.016 48.0117 145.454 47.923 145.898 47.923C146.57 47.923 147.146 48.0817 147.627 48.399C148.112 48.7163 148.483 49.148 148.74 49.694C149.001 50.2353 149.132 50.8397 149.132 51.507C149.132 52.2537 148.975 52.907 148.663 53.467C148.35 54.027 147.916 54.461 147.361 54.769C146.805 55.077 146.164 55.2287 145.436 55.224ZM145.52 53.642C146.126 53.642 146.584 53.4553 146.892 53.082C147.204 52.704 147.361 52.2023 147.361 51.577C147.361 50.9377 147.2 50.4337 146.878 50.065C146.56 49.6963 146.108 49.512 145.52 49.512C144.922 49.512 144.467 49.6963 144.155 50.065C143.842 50.4337 143.686 50.9377 143.686 51.577C143.686 52.2303 143.844 52.739 144.162 53.103C144.479 53.4623 144.932 53.642 145.52 53.642ZM150.659 55V47.44H152.346V50.422H155.741V47.44H157.428V55H155.741V52.004H152.346V55H150.659ZM159.375 55L159.368 47.44H161.055V49.96H161.902C162.112 49.96 162.348 49.9647 162.609 49.974C162.875 49.9833 163.097 50.0043 163.274 50.037C163.699 50.1303 164.061 50.2797 164.359 50.485C164.663 50.6903 164.894 50.9587 165.052 51.29C165.211 51.6213 165.29 52.0203 165.29 52.487C165.29 53.1543 165.118 53.6887 164.772 54.09C164.427 54.4867 163.944 54.7573 163.323 54.902C163.141 54.944 162.915 54.972 162.644 54.986C162.374 54.9953 162.133 55 161.923 55H159.375ZM161.055 53.677H162.07C162.173 53.677 162.287 53.6723 162.413 53.663C162.539 53.6537 162.658 53.6327 162.77 53.6C162.98 53.544 163.167 53.418 163.33 53.222C163.494 53.0213 163.575 52.7763 163.575 52.487C163.575 52.1837 163.494 51.934 163.33 51.738C163.167 51.542 162.966 51.4137 162.728 51.353C162.616 51.325 162.502 51.3063 162.385 51.297C162.273 51.2877 162.168 51.283 162.07 51.283H161.055V53.677ZM166.081 55V47.44H167.768V55H166.081ZM173.225 46.586C172.838 46.586 172.483 46.4903 172.161 46.299C171.839 46.1077 171.582 45.8533 171.391 45.536C171.2 45.214 171.104 44.857 171.104 44.465H172.42C172.42 44.689 172.497 44.8803 172.651 45.039C172.81 45.193 173.001 45.27 173.225 45.27C173.449 45.27 173.638 45.193 173.792 45.039C173.951 44.8803 174.03 44.689 174.03 44.465H175.346C175.346 44.857 175.25 45.214 175.059 45.536C174.868 45.8533 174.611 46.1077 174.289 46.299C173.967 46.4903 173.612 46.586 173.225 46.586ZM176.284 47.44V55H174.667V50.065L171.069 55H169.718V47.44H171.335V52.249L174.947 47.44H176.284ZM183.74 55.21C183.022 55.21 182.366 55.0583 181.773 54.755C181.181 54.4517 180.714 54.0363 180.373 53.509L181.703 52.62C181.974 52.942 182.275 53.1917 182.606 53.369C182.938 53.5417 183.306 53.628 183.712 53.628C184.137 53.628 184.471 53.5347 184.713 53.348C184.956 53.1613 185.077 52.9117 185.077 52.599C185.077 52.3237 184.996 52.13 184.832 52.018C184.669 51.9013 184.454 51.8313 184.188 51.808C183.922 51.7847 183.638 51.773 183.334 51.773H182.774V50.436H183.327C183.752 50.436 184.107 50.387 184.391 50.289C184.681 50.191 184.825 49.974 184.825 49.638C184.825 49.3347 184.713 49.12 184.489 48.994C184.265 48.8633 184.004 48.798 183.705 48.798C183.341 48.798 182.982 48.875 182.627 49.029C182.273 49.183 181.955 49.3697 181.675 49.589L180.723 48.441C181.143 48.0677 181.612 47.7737 182.13 47.559C182.648 47.3397 183.201 47.23 183.789 47.23C184.275 47.23 184.727 47.314 185.147 47.482C185.572 47.65 185.913 47.902 186.169 48.238C186.431 48.574 186.561 48.9893 186.561 49.484C186.561 49.8387 186.484 50.1723 186.33 50.485C186.181 50.7977 185.941 51.094 185.609 51.374L185.588 50.828C185.845 50.9353 186.062 51.0847 186.239 51.276C186.421 51.4673 186.559 51.6913 186.652 51.948C186.75 52.2047 186.799 52.4777 186.799 52.767C186.799 53.2943 186.659 53.74 186.379 54.104C186.099 54.468 185.726 54.7433 185.259 54.93C184.797 55.1167 184.291 55.21 183.74 55.21ZM190.453 55.21C189.907 55.21 189.445 55.1073 189.067 54.902C188.689 54.692 188.402 54.4143 188.206 54.069C188.015 53.7237 187.919 53.3433 187.919 52.928C187.919 52.564 187.98 52.2373 188.101 51.948C188.223 51.654 188.409 51.402 188.661 51.192C188.913 50.9773 189.24 50.8023 189.641 50.667C189.945 50.569 190.299 50.4803 190.705 50.401C191.116 50.3217 191.559 50.2493 192.035 50.184C192.516 50.114 193.018 50.0393 193.54 49.96L192.938 50.303C192.943 49.7803 192.826 49.3953 192.588 49.148C192.35 48.9007 191.949 48.777 191.384 48.777C191.044 48.777 190.715 48.8563 190.397 49.015C190.08 49.1737 189.858 49.4467 189.732 49.834L188.192 49.351C188.379 48.7117 188.734 48.1983 189.256 47.811C189.784 47.4237 190.493 47.23 191.384 47.23C192.056 47.23 192.647 47.3397 193.155 47.559C193.669 47.7783 194.049 48.1377 194.296 48.637C194.432 48.903 194.513 49.176 194.541 49.456C194.569 49.7313 194.583 50.0323 194.583 50.359V55H193.106V53.362L193.351 53.628C193.011 54.174 192.612 54.5753 192.154 54.832C191.702 55.084 191.135 55.21 190.453 55.21ZM190.789 53.866C191.172 53.866 191.499 53.7983 191.769 53.663C192.04 53.5277 192.255 53.362 192.413 53.166C192.577 52.97 192.686 52.7857 192.742 52.613C192.831 52.3983 192.88 52.1533 192.889 51.878C192.903 51.598 192.91 51.3717 192.91 51.199L193.428 51.353C192.92 51.4323 192.483 51.5023 192.119 51.563C191.755 51.6237 191.443 51.682 191.181 51.738C190.92 51.7893 190.689 51.8477 190.488 51.913C190.292 51.983 190.127 52.0647 189.991 52.158C189.856 52.2513 189.751 52.3587 189.676 52.48C189.606 52.6013 189.571 52.7437 189.571 52.907C189.571 53.0937 189.618 53.2593 189.711 53.404C189.805 53.544 189.94 53.656 190.117 53.74C190.299 53.824 190.523 53.866 190.789 53.866ZM196.392 55V47.44H199.829C200.076 47.44 200.307 47.454 200.522 47.482C200.736 47.51 200.921 47.545 201.075 47.587C201.439 47.6943 201.761 47.9043 202.041 48.217C202.321 48.525 202.461 48.952 202.461 49.498C202.461 49.82 202.409 50.086 202.307 50.296C202.204 50.5013 202.069 50.674 201.901 50.814C201.821 50.8793 201.74 50.9353 201.656 50.982C201.572 51.0287 201.488 51.066 201.404 51.094C201.586 51.122 201.758 51.1757 201.922 51.255C202.178 51.381 202.393 51.5677 202.566 51.815C202.743 52.0623 202.832 52.41 202.832 52.858C202.832 53.3667 202.708 53.796 202.461 54.146C202.218 54.4913 201.861 54.7317 201.39 54.867C201.217 54.9137 201.019 54.9487 200.795 54.972C200.571 54.9907 200.342 55 200.109 55H196.392ZM198.1 53.698H199.99C200.088 53.698 200.195 53.6887 200.312 53.67C200.428 53.6513 200.533 53.6257 200.627 53.593C200.795 53.5323 200.916 53.425 200.991 53.271C201.07 53.117 201.11 52.956 201.11 52.788C201.11 52.5593 201.051 52.3773 200.935 52.242C200.823 52.102 200.687 52.0087 200.529 51.962C200.435 51.9247 200.333 51.9037 200.221 51.899C200.113 51.8897 200.025 51.885 199.955 51.885H198.1V53.698ZM198.1 50.562H199.5C199.644 50.562 199.784 50.555 199.92 50.541C200.06 50.5223 200.176 50.492 200.27 50.45C200.424 50.3893 200.536 50.2867 200.606 50.142C200.68 49.9973 200.718 49.8363 200.718 49.659C200.718 49.4723 200.676 49.3043 200.592 49.155C200.512 49.001 200.384 48.8983 200.207 48.847C200.09 48.8003 199.948 48.7747 199.78 48.77C199.616 48.7653 199.511 48.763 199.465 48.763H198.1V50.562ZM207.565 55.21C206.809 55.21 206.149 55.0397 205.584 54.699C205.019 54.3583 204.581 53.8893 204.268 53.292C203.96 52.69 203.806 51.9993 203.806 51.22C203.806 50.4267 203.965 49.7313 204.282 49.134C204.599 48.5367 205.04 48.07 205.605 47.734C206.17 47.398 206.823 47.23 207.565 47.23C208.326 47.23 208.988 47.4003 209.553 47.741C210.118 48.0817 210.556 48.553 210.869 49.155C211.182 49.7523 211.338 50.4407 211.338 51.22C211.338 52.004 211.179 52.697 210.862 53.299C210.549 53.8963 210.111 54.3653 209.546 54.706C208.981 55.042 208.321 55.21 207.565 55.21ZM207.565 53.628C208.237 53.628 208.736 53.404 209.063 52.956C209.39 52.508 209.553 51.9293 209.553 51.22C209.553 50.4873 209.387 49.904 209.056 49.47C208.725 49.0313 208.228 48.812 207.565 48.812C207.112 48.812 206.739 48.9147 206.445 49.12C206.156 49.3207 205.941 49.603 205.801 49.967C205.661 50.3263 205.591 50.744 205.591 51.22C205.591 51.9527 205.757 52.5383 206.088 52.977C206.424 53.411 206.916 53.628 207.565 53.628ZM212.32 56.68V53.677C212.731 53.677 213.023 53.537 213.195 53.257C213.368 52.977 213.506 52.4917 213.608 51.801C213.674 51.3903 213.727 50.9563 213.769 50.499C213.811 50.0417 213.846 49.5587 213.874 49.05C213.907 48.5413 213.935 48.0047 213.958 47.44H219.586V53.677H220.349V56.68H218.753V55H213.909V56.68H212.32ZM214.581 53.677H217.906V48.763H215.435C215.421 49.043 215.405 49.33 215.386 49.624C215.368 49.9133 215.347 50.2027 215.323 50.492C215.3 50.7813 215.274 51.059 215.246 51.325C215.223 51.5863 215.195 51.829 215.162 52.053C215.111 52.445 215.048 52.767 214.973 53.019C214.899 53.271 214.768 53.4903 214.581 53.677Z" fill="black"/>
<path d="M59.3538 67.9391C59.5069 55.9995 53.1452 45.3562 44.1209 36.4061C35.1074 27.4659 24.3241 20.9798 12.3105 21.1115H12.2553C12.2734 21.1091 12.2924 21.1074 12.3105 21.1033C24.7631 19.4151 39.5891 21.7481 49.1609 31.2492C58.7411 40.7593 61.0716 55.5713 59.3538 67.9391ZM47.1408 63.6509L44.634 58.3309H44.5764V63.6509H40.6753V51.1028H44.5764V56.0391H44.634L47.0379 51.1028H51.4742L48.0418 56.9886L51.7946 63.6509H47.1408ZM39.1378 56.4121H35.6476V46.5586H35.5571L33.5476 56.4121H30.3054L28.352 46.5586H28.2499V56.4121H24.9327V43.8689H30.7122L32.0389 50.7289H32.1089L33.3755 43.8689H39.1378V56.4121ZM23.5031 49.1766H19.6004V40.3393H16.1613V36.6301H26.9355V40.3393H23.5031V49.1758V49.1766ZM12.0552 12V20.792C12.0371 20.7953 12.0181 20.7969 12 20.7994H12.0552V68H68V12H12.0552Z" fill="#F15C22"/>
</svg>
