<svg width="295" height="80" viewBox="0 0 295 80" fill="none" xmlns="http://www.w3.org/2000/svg">
<rect width="295" height="80" rx="4" fill="#F0F0F0"/>
<path d="M84.98 35V24.92H86.667V29.162H91.441V24.92H93.121V35H91.441V30.744H86.667V35H84.98ZM98.4225 35.21C97.6665 35.21 97.0062 35.0397 96.4415 34.699C95.8768 34.3583 95.4382 33.8893 95.1255 33.292C94.8175 32.69 94.6635 31.9993 94.6635 31.22C94.6635 30.4267 94.8222 29.7313 95.1395 29.134C95.4568 28.5367 95.8978 28.07 96.4625 27.734C97.0272 27.398 97.6805 27.23 98.4225 27.23C99.1832 27.23 99.8458 27.4003 100.411 27.741C100.975 28.0817 101.414 28.553 101.727 29.155C102.039 29.7523 102.196 30.4407 102.196 31.22C102.196 32.004 102.037 32.697 101.72 33.299C101.407 33.8963 100.968 34.3653 100.404 34.706C99.8388 35.042 99.1785 35.21 98.4225 35.21ZM98.4225 33.628C99.0945 33.628 99.5938 33.404 99.9205 32.956C100.247 32.508 100.411 31.9293 100.411 31.22C100.411 30.4873 100.245 29.904 99.9135 29.47C99.5822 29.0313 99.0852 28.812 98.4225 28.812C97.9698 28.812 97.5965 28.9147 97.3025 29.12C97.0132 29.3207 96.7985 29.603 96.6585 29.967C96.5185 30.3263 96.4485 30.744 96.4485 31.22C96.4485 31.9527 96.6142 32.5383 96.9455 32.977C97.2815 33.411 97.7738 33.628 98.4225 33.628ZM103.724 35V27.44H107.161C107.408 27.44 107.639 27.454 107.854 27.482C108.068 27.51 108.253 27.545 108.407 27.587C108.771 27.6943 109.093 27.9043 109.373 28.217C109.653 28.525 109.793 28.952 109.793 29.498C109.793 29.82 109.741 30.086 109.639 30.296C109.536 30.5013 109.401 30.674 109.233 30.814C109.153 30.8793 109.072 30.9353 108.988 30.982C108.904 31.0287 108.82 31.066 108.736 31.094C108.918 31.122 109.09 31.1757 109.254 31.255C109.51 31.381 109.725 31.5677 109.898 31.815C110.075 32.0623 110.164 32.41 110.164 32.858C110.164 33.3667 110.04 33.796 109.793 34.146C109.55 34.4913 109.193 34.7317 108.722 34.867C108.549 34.9137 108.351 34.9487 108.127 34.972C107.903 34.9907 107.674 35 107.441 35H103.724ZM105.432 33.698H107.322C107.42 33.698 107.527 33.6887 107.644 33.67C107.76 33.6513 107.865 33.6257 107.959 33.593C108.127 33.5323 108.248 33.425 108.323 33.271C108.402 33.117 108.442 32.956 108.442 32.788C108.442 32.5593 108.383 32.3773 108.267 32.242C108.155 32.102 108.019 32.0087 107.861 31.962C107.767 31.9247 107.665 31.9037 107.553 31.899C107.445 31.8897 107.357 31.885 107.287 31.885H105.432V33.698ZM105.432 30.562H106.832C106.976 30.562 107.116 30.555 107.252 30.541C107.392 30.5223 107.508 30.492 107.602 30.45C107.756 30.3893 107.868 30.2867 107.938 30.142C108.012 29.9973 108.05 29.8363 108.05 29.659C108.05 29.4723 108.008 29.3043 107.924 29.155C107.844 29.001 107.716 28.8983 107.539 28.847C107.422 28.8003 107.28 28.7747 107.112 28.77C106.948 28.7653 106.843 28.763 106.797 28.763H105.432V30.562ZM114.897 35.21C114.141 35.21 113.481 35.0397 112.916 34.699C112.351 34.3583 111.913 33.8893 111.6 33.292C111.292 32.69 111.138 31.9993 111.138 31.22C111.138 30.4267 111.297 29.7313 111.614 29.134C111.931 28.5367 112.372 28.07 112.937 27.734C113.502 27.398 114.155 27.23 114.897 27.23C115.658 27.23 116.32 27.4003 116.885 27.741C117.45 28.0817 117.888 28.553 118.201 29.155C118.514 29.7523 118.67 30.4407 118.67 31.22C118.67 32.004 118.511 32.697 118.194 33.299C117.881 33.8963 117.443 34.3653 116.878 34.706C116.313 35.042 115.653 35.21 114.897 35.21ZM114.897 33.628C115.569 33.628 116.068 33.404 116.395 32.956C116.722 32.508 116.885 31.9293 116.885 31.22C116.885 30.4873 116.719 29.904 116.388 29.47C116.057 29.0313 115.56 28.812 114.897 28.812C114.444 28.812 114.071 28.9147 113.777 29.12C113.488 29.3207 113.273 29.603 113.133 29.967C112.993 30.3263 112.923 30.744 112.923 31.22C112.923 31.9527 113.089 32.5383 113.42 32.977C113.756 33.411 114.248 33.628 114.897 33.628ZM121.959 35V28.938H119.432V27.44H126.173V28.938H123.646V35H121.959ZM131.133 35.21C130.395 35.21 129.777 35.035 129.278 34.685C128.778 34.335 128.403 33.859 128.151 33.257C127.899 32.6503 127.773 31.9713 127.773 31.22C127.773 30.4593 127.899 29.778 128.151 29.176C128.403 28.574 128.771 28.1003 129.257 27.755C129.747 27.405 130.351 27.23 131.07 27.23C131.784 27.23 132.402 27.405 132.925 27.755C133.452 28.1003 133.86 28.574 134.15 29.176C134.439 29.7733 134.584 30.4547 134.584 31.22C134.584 31.976 134.441 32.655 134.157 33.257C133.872 33.859 133.471 34.335 132.953 34.685C132.435 35.035 131.828 35.21 131.133 35.21ZM127.486 38.36V27.44H128.977V32.746H129.187V38.36H127.486ZM130.874 33.698C131.312 33.698 131.674 33.5883 131.959 33.369C132.243 33.1497 132.453 32.8533 132.589 32.48C132.729 32.102 132.799 31.682 132.799 31.22C132.799 30.7627 132.729 30.3473 132.589 29.974C132.449 29.596 132.232 29.2973 131.938 29.078C131.644 28.854 131.27 28.742 130.818 28.742C130.388 28.742 130.038 28.847 129.768 29.057C129.497 29.2623 129.296 29.5517 129.166 29.925C129.04 30.2937 128.977 30.7253 128.977 31.22C128.977 31.71 129.04 32.1417 129.166 32.515C129.296 32.8883 129.499 33.18 129.775 33.39C130.055 33.5953 130.421 33.698 130.874 33.698ZM139.465 35.21C138.709 35.21 138.049 35.0397 137.484 34.699C136.92 34.3583 136.481 33.8893 136.168 33.292C135.86 32.69 135.706 31.9993 135.706 31.22C135.706 30.4267 135.865 29.7313 136.182 29.134C136.5 28.5367 136.941 28.07 137.505 27.734C138.07 27.398 138.723 27.23 139.465 27.23C140.226 27.23 140.889 27.4003 141.453 27.741C142.018 28.0817 142.457 28.553 142.769 29.155C143.082 29.7523 143.238 30.4407 143.238 31.22C143.238 32.004 143.08 32.697 142.762 33.299C142.45 33.8963 142.011 34.3653 141.446 34.706C140.882 35.042 140.221 35.21 139.465 35.21ZM139.465 33.628C140.137 33.628 140.637 33.404 140.963 32.956C141.29 32.508 141.453 31.9293 141.453 31.22C141.453 30.4873 141.288 29.904 140.956 29.47C140.625 29.0313 140.128 28.812 139.465 28.812C139.013 28.812 138.639 28.9147 138.345 29.12C138.056 29.3207 137.841 29.603 137.701 29.967C137.561 30.3263 137.491 30.744 137.491 31.22C137.491 31.9527 137.657 32.5383 137.988 32.977C138.324 33.411 138.817 33.628 139.465 33.628ZM151.333 27.44V35H149.716V30.065L146.118 35H144.767V27.44H146.384V32.249L149.996 27.44H151.333ZM159.626 36.589V35H153.284V27.44H154.971V33.418H158.163V27.44H159.85V33.502H161.313V36.589H159.626ZM162.417 35L162.431 27.44H164.139V31.08L166.904 27.44H169.011L166.078 31.22L169.263 35H167.03L164.139 31.36V35H162.417ZM176.516 27.44V35H174.899V30.065L171.301 35H169.95V27.44H171.567V32.249L175.179 27.44H176.516ZM181.975 26.586C181.588 26.586 181.233 26.4903 180.911 26.299C180.589 26.1077 180.332 25.8533 180.141 25.536C179.95 25.214 179.854 24.857 179.854 24.465H181.17C181.17 24.689 181.247 24.8803 181.401 25.039C181.56 25.193 181.751 25.27 181.975 25.27C182.199 25.27 182.388 25.193 182.542 25.039C182.701 24.8803 182.78 24.689 182.78 24.465H184.096C184.096 24.857 184 25.214 183.809 25.536C183.618 25.8533 183.361 26.1077 183.039 26.299C182.717 26.4903 182.362 26.586 181.975 26.586ZM185.034 27.44V35H183.417V30.065L179.819 35H178.468V27.44H180.085V32.249L183.697 27.44H185.034ZM86.877 55V48.938H84.35V47.44H91.091V48.938H88.564V55H86.877ZM96.0505 55.21C95.3132 55.21 94.6948 55.035 94.1955 54.685C93.6962 54.335 93.3205 53.859 93.0685 53.257C92.8165 52.6503 92.6905 51.9713 92.6905 51.22C92.6905 50.4593 92.8165 49.778 93.0685 49.176C93.3205 48.574 93.6892 48.1003 94.1745 47.755C94.6645 47.405 95.2688 47.23 95.9875 47.23C96.7015 47.23 97.3198 47.405 97.8425 47.755C98.3698 48.1003 98.7782 48.574 99.0675 49.176C99.3568 49.7733 99.5015 50.4547 99.5015 51.22C99.5015 51.976 99.3592 52.655 99.0745 53.257C98.7898 53.859 98.3885 54.335 97.8705 54.685C97.3525 55.035 96.7458 55.21 96.0505 55.21ZM92.4035 58.36V47.44H93.8945V52.746H94.1045V58.36H92.4035ZM95.7915 53.698C96.2302 53.698 96.5918 53.5883 96.8765 53.369C97.1612 53.1497 97.3712 52.8533 97.5065 52.48C97.6465 52.102 97.7165 51.682 97.7165 51.22C97.7165 50.7627 97.6465 50.3473 97.5065 49.974C97.3665 49.596 97.1495 49.2973 96.8555 49.078C96.5615 48.854 96.1882 48.742 95.7355 48.742C95.3062 48.742 94.9562 48.847 94.6855 49.057C94.4148 49.2623 94.2142 49.5517 94.0835 49.925C93.9575 50.2937 93.8945 50.7253 93.8945 51.22C93.8945 51.71 93.9575 52.1417 94.0835 52.515C94.2142 52.8883 94.4172 53.18 94.6925 53.39C94.9725 53.5953 95.3388 53.698 95.7915 53.698ZM101.765 58.36L103.221 54.363L103.249 55.539L99.952 47.44H101.709L104.047 53.432H103.599L105.874 47.44H107.561L103.347 58.36H101.765ZM111.748 55.224C111.029 55.2147 110.418 55.0537 109.914 54.741C109.41 54.4283 109.016 53.9873 108.731 53.418C108.446 52.8487 108.274 52.1767 108.213 51.402C108.185 51.0053 108.183 50.562 108.206 50.072C108.229 49.582 108.281 49.1037 108.36 48.637C108.439 48.1703 108.549 47.7737 108.689 47.447C108.834 47.1203 109.023 46.8193 109.256 46.544C109.489 46.264 109.741 46.0307 110.012 45.844C110.32 45.6293 110.654 45.4637 111.013 45.347C111.377 45.2303 111.757 45.1417 112.154 45.081C112.551 45.0157 112.959 44.9573 113.379 44.906C113.799 44.8547 114.214 44.7893 114.625 44.71L114.779 46.201C114.518 46.2663 114.214 46.3177 113.869 46.355C113.528 46.3877 113.174 46.425 112.805 46.467C112.441 46.509 112.093 46.5697 111.762 46.649C111.431 46.7283 111.144 46.845 110.901 46.999C110.565 47.2043 110.308 47.4983 110.131 47.881C109.954 48.2637 109.849 48.6673 109.816 49.092C110.105 48.6627 110.465 48.3617 110.894 48.189C111.328 48.0117 111.767 47.923 112.21 47.923C112.882 47.923 113.458 48.0817 113.939 48.399C114.424 48.7163 114.795 49.148 115.052 49.694C115.313 50.2353 115.444 50.8397 115.444 51.507C115.444 52.2537 115.288 52.907 114.975 53.467C114.662 54.027 114.228 54.461 113.673 54.769C113.118 55.077 112.476 55.2287 111.748 55.224ZM111.832 53.642C112.439 53.642 112.896 53.4553 113.204 53.082C113.517 52.704 113.673 52.2023 113.673 51.577C113.673 50.9377 113.512 50.4337 113.19 50.065C112.873 49.6963 112.42 49.512 111.832 49.512C111.235 49.512 110.78 49.6963 110.467 50.065C110.154 50.4337 109.998 50.9377 109.998 51.577C109.998 52.2303 110.157 52.739 110.474 53.103C110.791 53.4623 111.244 53.642 111.832 53.642ZM120.325 55.21C119.569 55.21 118.909 55.0397 118.344 54.699C117.779 54.3583 117.341 53.8893 117.028 53.292C116.72 52.69 116.566 51.9993 116.566 51.22C116.566 50.4267 116.725 49.7313 117.042 49.134C117.359 48.5367 117.8 48.07 118.365 47.734C118.93 47.398 119.583 47.23 120.325 47.23C121.086 47.23 121.748 47.4003 122.313 47.741C122.878 48.0817 123.316 48.553 123.629 49.155C123.942 49.7523 124.098 50.4407 124.098 51.22C124.098 52.004 123.939 52.697 123.622 53.299C123.309 53.8963 122.871 54.3653 122.306 54.706C121.741 55.042 121.081 55.21 120.325 55.21ZM120.325 53.628C120.997 53.628 121.496 53.404 121.823 52.956C122.15 52.508 122.313 51.9293 122.313 51.22C122.313 50.4873 122.147 49.904 121.816 49.47C121.485 49.0313 120.988 48.812 120.325 48.812C119.872 48.812 119.499 48.9147 119.205 49.12C118.916 49.3207 118.701 49.603 118.561 49.967C118.421 50.3263 118.351 50.744 118.351 51.22C118.351 51.9527 118.517 52.5383 118.848 52.977C119.184 53.411 119.676 53.628 120.325 53.628ZM125.626 55V47.44H132.192V55H130.505V49.022H127.313V55H125.626ZM137.791 55.21C137.053 55.21 136.435 55.035 135.936 54.685C135.436 54.335 135.061 53.859 134.809 53.257C134.557 52.6503 134.431 51.9713 134.431 51.22C134.431 50.4593 134.557 49.778 134.809 49.176C135.061 48.574 135.429 48.1003 135.915 47.755C136.405 47.405 137.009 47.23 137.728 47.23C138.442 47.23 139.06 47.405 139.583 47.755C140.11 48.1003 140.518 48.574 140.808 49.176C141.097 49.7733 141.242 50.4547 141.242 51.22C141.242 51.976 141.099 52.655 140.815 53.257C140.53 53.859 140.129 54.335 139.611 54.685C139.093 55.035 138.486 55.21 137.791 55.21ZM134.144 58.36V47.44H135.635V52.746H135.845V58.36H134.144ZM137.532 53.698C137.97 53.698 138.332 53.5883 138.617 53.369C138.901 53.1497 139.111 52.8533 139.247 52.48C139.387 52.102 139.457 51.682 139.457 51.22C139.457 50.7627 139.387 50.3473 139.247 49.974C139.107 49.596 138.89 49.2973 138.596 49.078C138.302 48.854 137.928 48.742 137.476 48.742C137.046 48.742 136.696 48.847 136.426 49.057C136.155 49.2623 135.954 49.5517 135.824 49.925C135.698 50.2937 135.635 50.7253 135.635 51.22C135.635 51.71 135.698 52.1417 135.824 52.515C135.954 52.8883 136.157 53.18 136.433 53.39C136.713 53.5953 137.079 53.698 137.532 53.698ZM146.124 55.21C145.368 55.21 144.707 55.0397 144.143 54.699C143.578 54.3583 143.139 53.8893 142.827 53.292C142.519 52.69 142.365 51.9993 142.365 51.22C142.365 50.4267 142.523 49.7313 142.841 49.134C143.158 48.5367 143.599 48.07 144.164 47.734C144.728 47.398 145.382 47.23 146.124 47.23C146.884 47.23 147.547 47.4003 148.112 47.741C148.676 48.0817 149.115 48.553 149.428 49.155C149.74 49.7523 149.897 50.4407 149.897 51.22C149.897 52.004 149.738 52.697 149.421 53.299C149.108 53.8963 148.669 54.3653 148.105 54.706C147.54 55.042 146.88 55.21 146.124 55.21ZM146.124 53.628C146.796 53.628 147.295 53.404 147.622 52.956C147.948 52.508 148.112 51.9293 148.112 51.22C148.112 50.4873 147.946 49.904 147.615 49.47C147.283 49.0313 146.786 48.812 146.124 48.812C145.671 48.812 145.298 48.9147 145.004 49.12C144.714 49.3207 144.5 49.603 144.36 49.967C144.22 50.3263 144.15 50.744 144.15 51.22C144.15 51.9527 144.315 52.5383 144.647 52.977C144.983 53.411 145.475 53.628 146.124 53.628ZM151.425 55L151.439 47.44H153.147V51.08L155.912 47.44H158.019L155.086 51.22L158.271 55H156.038L153.147 51.36V55H151.425ZM161.086 55.21C160.54 55.21 160.078 55.1073 159.7 54.902C159.322 54.692 159.035 54.4143 158.839 54.069C158.648 53.7237 158.552 53.3433 158.552 52.928C158.552 52.564 158.613 52.2373 158.734 51.948C158.856 51.654 159.042 51.402 159.294 51.192C159.546 50.9773 159.873 50.8023 160.274 50.667C160.578 50.569 160.932 50.4803 161.338 50.401C161.749 50.3217 162.192 50.2493 162.668 50.184C163.149 50.114 163.651 50.0393 164.173 49.96L163.571 50.303C163.576 49.7803 163.459 49.3953 163.221 49.148C162.983 48.9007 162.582 48.777 162.017 48.777C161.677 48.777 161.348 48.8563 161.03 49.015C160.713 49.1737 160.491 49.4467 160.365 49.834L158.825 49.351C159.012 48.7117 159.367 48.1983 159.889 47.811C160.417 47.4237 161.126 47.23 162.017 47.23C162.689 47.23 163.28 47.3397 163.788 47.559C164.302 47.7783 164.682 48.1377 164.929 48.637C165.065 48.903 165.146 49.176 165.174 49.456C165.202 49.7313 165.216 50.0323 165.216 50.359V55H163.739V53.362L163.984 53.628C163.644 54.174 163.245 54.5753 162.787 54.832C162.335 55.084 161.768 55.21 161.086 55.21ZM161.422 53.866C161.805 53.866 162.132 53.7983 162.402 53.663C162.673 53.5277 162.888 53.362 163.046 53.166C163.21 52.97 163.319 52.7857 163.375 52.613C163.464 52.3983 163.513 52.1533 163.522 51.878C163.536 51.598 163.543 51.3717 163.543 51.199L164.061 51.353C163.553 51.4323 163.116 51.5023 162.752 51.563C162.388 51.6237 162.076 51.682 161.814 51.738C161.553 51.7893 161.322 51.8477 161.121 51.913C160.925 51.983 160.76 52.0647 160.624 52.158C160.489 52.2513 160.384 52.3587 160.309 52.48C160.239 52.6013 160.204 52.7437 160.204 52.907C160.204 53.0937 160.251 53.2593 160.344 53.404C160.438 53.544 160.573 53.656 160.75 53.74C160.932 53.824 161.156 53.866 161.422 53.866ZM168.936 55V48.938H166.409V47.44H173.15V48.938H170.623V55H168.936ZM174.462 55V47.44H176.149V50.422H179.544V47.44H181.231V55H179.544V52.004H176.149V55H174.462ZM183.178 55L183.171 47.44H184.858V49.96H185.705C185.915 49.96 186.151 49.9647 186.412 49.974C186.678 49.9833 186.9 50.0043 187.077 50.037C187.502 50.1303 187.863 50.2797 188.162 50.485C188.465 50.6903 188.696 50.9587 188.855 51.29C189.014 51.6213 189.093 52.0203 189.093 52.487C189.093 53.1543 188.92 53.6887 188.575 54.09C188.23 54.4867 187.747 54.7573 187.126 54.902C186.944 54.944 186.718 54.972 186.447 54.986C186.176 54.9953 185.936 55 185.726 55H183.178ZM184.858 53.677H185.873C185.976 53.677 186.09 53.6723 186.216 53.663C186.342 53.6537 186.461 53.6327 186.573 53.6C186.783 53.544 186.97 53.418 187.133 53.222C187.296 53.0213 187.378 52.7763 187.378 52.487C187.378 52.1837 187.296 51.934 187.133 51.738C186.97 51.542 186.769 51.4137 186.531 51.353C186.419 51.325 186.305 51.3063 186.188 51.297C186.076 51.2877 185.971 51.283 185.873 51.283H184.858V53.677ZM189.884 55V47.44H191.571V55H189.884ZM197.028 46.586C196.64 46.586 196.286 46.4903 195.964 46.299C195.642 46.1077 195.385 45.8533 195.194 45.536C195.002 45.214 194.907 44.857 194.907 44.465H196.223C196.223 44.689 196.3 44.8803 196.454 45.039C196.612 45.193 196.804 45.27 197.028 45.27C197.252 45.27 197.441 45.193 197.595 45.039C197.753 44.8803 197.833 44.689 197.833 44.465H199.149C199.149 44.857 199.053 45.214 198.862 45.536C198.67 45.8533 198.414 46.1077 198.092 46.299C197.77 46.4903 197.415 46.586 197.028 46.586ZM200.087 47.44V55H198.47V50.065L194.872 55H193.521V47.44H195.138V52.249L198.75 47.44H200.087ZM207.543 55.21C206.824 55.21 206.169 55.0583 205.576 54.755C204.983 54.4517 204.517 54.0363 204.176 53.509L205.506 52.62C205.777 52.942 206.078 53.1917 206.409 53.369C206.74 53.5417 207.109 53.628 207.515 53.628C207.94 53.628 208.273 53.5347 208.516 53.348C208.759 53.1613 208.88 52.9117 208.88 52.599C208.88 52.3237 208.798 52.13 208.635 52.018C208.472 51.9013 208.257 51.8313 207.991 51.808C207.725 51.7847 207.44 51.773 207.137 51.773H206.577V50.436H207.13C207.555 50.436 207.909 50.387 208.194 50.289C208.483 50.191 208.628 49.974 208.628 49.638C208.628 49.3347 208.516 49.12 208.292 48.994C208.068 48.8633 207.807 48.798 207.508 48.798C207.144 48.798 206.785 48.875 206.43 49.029C206.075 49.183 205.758 49.3697 205.478 49.589L204.526 48.441C204.946 48.0677 205.415 47.7737 205.933 47.559C206.451 47.3397 207.004 47.23 207.592 47.23C208.077 47.23 208.53 47.314 208.95 47.482C209.375 47.65 209.715 47.902 209.972 48.238C210.233 48.574 210.364 48.9893 210.364 49.484C210.364 49.8387 210.287 50.1723 210.133 50.485C209.984 50.7977 209.743 51.094 209.412 51.374L209.391 50.828C209.648 50.9353 209.865 51.0847 210.042 51.276C210.224 51.4673 210.362 51.6913 210.455 51.948C210.553 52.2047 210.602 52.4777 210.602 52.767C210.602 53.2943 210.462 53.74 210.182 54.104C209.902 54.468 209.529 54.7433 209.062 54.93C208.6 55.1167 208.094 55.21 207.543 55.21ZM214.256 55.21C213.71 55.21 213.248 55.1073 212.87 54.902C212.492 54.692 212.205 54.4143 212.009 54.069C211.818 53.7237 211.722 53.3433 211.722 52.928C211.722 52.564 211.783 52.2373 211.904 51.948C212.025 51.654 212.212 51.402 212.464 51.192C212.716 50.9773 213.043 50.8023 213.444 50.667C213.747 50.569 214.102 50.4803 214.508 50.401C214.919 50.3217 215.362 50.2493 215.838 50.184C216.319 50.114 216.82 50.0393 217.343 49.96L216.741 50.303C216.746 49.7803 216.629 49.3953 216.391 49.148C216.153 48.9007 215.752 48.777 215.187 48.777C214.846 48.777 214.517 48.8563 214.2 49.015C213.883 49.1737 213.661 49.4467 213.535 49.834L211.995 49.351C212.182 48.7117 212.536 48.1983 213.059 47.811C213.586 47.4237 214.296 47.23 215.187 47.23C215.859 47.23 216.449 47.3397 216.958 47.559C217.471 47.7783 217.852 48.1377 218.099 48.637C218.234 48.903 218.316 49.176 218.344 49.456C218.372 49.7313 218.386 50.0323 218.386 50.359V55H216.909V53.362L217.154 53.628C216.813 54.174 216.414 54.5753 215.957 54.832C215.504 55.084 214.937 55.21 214.256 55.21ZM214.592 53.866C214.975 53.866 215.301 53.7983 215.572 53.663C215.843 53.5277 216.057 53.362 216.216 53.166C216.379 52.97 216.489 52.7857 216.545 52.613C216.634 52.3983 216.683 52.1533 216.692 51.878C216.706 51.598 216.713 51.3717 216.713 51.199L217.231 51.353C216.722 51.4323 216.286 51.5023 215.922 51.563C215.558 51.6237 215.245 51.682 214.984 51.738C214.723 51.7893 214.492 51.8477 214.291 51.913C214.095 51.983 213.929 52.0647 213.794 52.158C213.659 52.2513 213.554 52.3587 213.479 52.48C213.409 52.6013 213.374 52.7437 213.374 52.907C213.374 53.0937 213.421 53.2593 213.514 53.404C213.607 53.544 213.743 53.656 213.92 53.74C214.102 53.824 214.326 53.866 214.592 53.866ZM220.195 55V47.44H223.632C223.879 47.44 224.11 47.454 224.325 47.482C224.539 47.51 224.724 47.545 224.878 47.587C225.242 47.6943 225.564 47.9043 225.844 48.217C226.124 48.525 226.264 48.952 226.264 49.498C226.264 49.82 226.212 50.086 226.11 50.296C226.007 50.5013 225.872 50.674 225.704 50.814C225.624 50.8793 225.543 50.9353 225.459 50.982C225.375 51.0287 225.291 51.066 225.207 51.094C225.389 51.122 225.561 51.1757 225.725 51.255C225.981 51.381 226.196 51.5677 226.369 51.815C226.546 52.0623 226.635 52.41 226.635 52.858C226.635 53.3667 226.511 53.796 226.264 54.146C226.021 54.4913 225.664 54.7317 225.193 54.867C225.02 54.9137 224.822 54.9487 224.598 54.972C224.374 54.9907 224.145 55 223.912 55H220.195ZM221.903 53.698H223.793C223.891 53.698 223.998 53.6887 224.115 53.67C224.231 53.6513 224.336 53.6257 224.43 53.593C224.598 53.5323 224.719 53.425 224.794 53.271C224.873 53.117 224.913 52.956 224.913 52.788C224.913 52.5593 224.854 52.3773 224.738 52.242C224.626 52.102 224.49 52.0087 224.332 51.962C224.238 51.9247 224.136 51.9037 224.024 51.899C223.916 51.8897 223.828 51.885 223.758 51.885H221.903V53.698ZM221.903 50.562H223.303C223.447 50.562 223.587 50.555 223.723 50.541C223.863 50.5223 223.979 50.492 224.073 50.45C224.227 50.3893 224.339 50.2867 224.409 50.142C224.483 49.9973 224.521 49.8363 224.521 49.659C224.521 49.4723 224.479 49.3043 224.395 49.155C224.315 49.001 224.187 48.8983 224.01 48.847C223.893 48.8003 223.751 48.7747 223.583 48.77C223.419 48.7653 223.314 48.763 223.268 48.763H221.903V50.562ZM231.368 55.21C230.612 55.21 229.951 55.0397 229.387 54.699C228.822 54.3583 228.383 53.8893 228.071 53.292C227.763 52.69 227.609 51.9993 227.609 51.22C227.609 50.4267 227.767 49.7313 228.085 49.134C228.402 48.5367 228.843 48.07 229.408 47.734C229.972 47.398 230.626 47.23 231.368 47.23C232.128 47.23 232.791 47.4003 233.356 47.741C233.92 48.0817 234.359 48.553 234.672 49.155C234.984 49.7523 235.141 50.4407 235.141 51.22C235.141 52.004 234.982 52.697 234.665 53.299C234.352 53.8963 233.913 54.3653 233.349 54.706C232.784 55.042 232.124 55.21 231.368 55.21ZM231.368 53.628C232.04 53.628 232.539 53.404 232.866 52.956C233.192 52.508 233.356 51.9293 233.356 51.22C233.356 50.4873 233.19 49.904 232.859 49.47C232.527 49.0313 232.03 48.812 231.368 48.812C230.915 48.812 230.542 48.9147 230.248 49.12C229.958 49.3207 229.744 49.603 229.604 49.967C229.464 50.3263 229.394 50.744 229.394 51.22C229.394 51.9527 229.559 52.5383 229.891 52.977C230.227 53.411 230.719 53.628 231.368 53.628ZM236.123 56.68V53.677C236.534 53.677 236.825 53.537 236.998 53.257C237.171 52.977 237.308 52.4917 237.411 51.801C237.476 51.3903 237.53 50.9563 237.572 50.499C237.614 50.0417 237.649 49.5587 237.677 49.05C237.71 48.5413 237.738 48.0047 237.761 47.44H243.389V53.677H244.152V56.68H242.556V55H237.712V56.68H236.123ZM238.384 53.677H241.709V48.763H239.238C239.224 49.043 239.208 49.33 239.189 49.624C239.17 49.9133 239.149 50.2027 239.126 50.492C239.103 50.7813 239.077 51.059 239.049 51.325C239.026 51.5863 238.998 51.829 238.965 52.053C238.914 52.445 238.851 52.767 238.776 53.019C238.701 53.271 238.571 53.4903 238.384 53.677Z" fill="black"/>
<circle cx="40" cy="40" r="21" fill="white" stroke="#F15C22" stroke-width="2"/>
</svg>
