<svg width="295" height="80" viewBox="0 0 295 80" fill="none" xmlns="http://www.w3.org/2000/svg">
<rect width="295" height="80" rx="4" fill="#F0F0F0"/>
<path d="M84.98 35V24.92H88.977C89.6583 24.92 90.216 25.0577 90.65 25.333C91.0887 25.6037 91.413 25.9513 91.623 26.376C91.8377 26.8007 91.945 27.2393 91.945 27.692C91.945 28.2473 91.812 28.7187 91.546 29.106C91.2847 29.4933 90.9277 29.7547 90.475 29.89V29.54C91.1097 29.6847 91.5903 29.9857 91.917 30.443C92.2483 30.9003 92.414 31.4207 92.414 32.004C92.414 32.6013 92.2997 33.124 92.071 33.572C91.8423 34.02 91.5017 34.37 91.049 34.622C90.601 34.874 90.0457 35 89.383 35H84.98ZM86.688 33.411H89.173C89.467 33.411 89.7307 33.3527 89.964 33.236C90.1973 33.1147 90.3793 32.9467 90.51 32.732C90.6453 32.5127 90.713 32.2537 90.713 31.955C90.713 31.6843 90.6547 31.4417 90.538 31.227C90.4213 31.0123 90.251 30.842 90.027 30.716C89.803 30.5853 89.5347 30.52 89.222 30.52H86.688V33.411ZM86.688 28.945H88.956C89.1987 28.945 89.4157 28.8983 89.607 28.805C89.7983 28.7117 89.95 28.574 90.062 28.392C90.174 28.21 90.23 27.986 90.23 27.72C90.23 27.37 90.118 27.0783 89.894 26.845C89.67 26.6117 89.3573 26.495 88.956 26.495H86.688V28.945ZM97.151 35.21C96.395 35.21 95.7347 35.0397 95.17 34.699C94.6054 34.3583 94.1667 33.8893 93.854 33.292C93.546 32.69 93.392 31.9993 93.392 31.22C93.392 30.4267 93.5507 29.7313 93.868 29.134C94.1854 28.5367 94.6264 28.07 95.191 27.734C95.7557 27.398 96.409 27.23 97.151 27.23C97.9117 27.23 98.5744 27.4003 99.139 27.741C99.7037 28.0817 100.142 28.553 100.455 29.155C100.768 29.7523 100.924 30.4407 100.924 31.22C100.924 32.004 100.765 32.697 100.448 33.299C100.135 33.8963 99.6967 34.3653 99.132 34.706C98.5674 35.042 97.907 35.21 97.151 35.21ZM97.151 33.628C97.823 33.628 98.3224 33.404 98.649 32.956C98.9757 32.508 99.139 31.9293 99.139 31.22C99.139 30.4873 98.9734 29.904 98.642 29.47C98.3107 29.0313 97.8137 28.812 97.151 28.812C96.6984 28.812 96.325 28.9147 96.031 29.12C95.7417 29.3207 95.527 29.603 95.387 29.967C95.247 30.3263 95.177 30.744 95.177 31.22C95.177 31.9527 95.3427 32.5383 95.674 32.977C96.01 33.411 96.5024 33.628 97.151 33.628ZM101.766 35V33.586C102.042 33.6373 102.254 33.6327 102.403 33.572C102.553 33.5067 102.665 33.3853 102.739 33.208C102.814 33.0307 102.879 32.795 102.935 32.501C103.01 32.0857 103.075 31.6073 103.131 31.066C103.192 30.5247 103.243 29.946 103.285 29.33C103.332 28.714 103.374 28.084 103.411 27.44H108.976V35H107.296V29.022H104.895C104.872 29.3253 104.844 29.666 104.811 30.044C104.779 30.4173 104.744 30.7953 104.706 31.178C104.669 31.5607 104.627 31.9247 104.58 32.27C104.538 32.6107 104.494 32.9023 104.447 33.145C104.34 33.691 104.186 34.1227 103.985 34.44C103.789 34.7573 103.514 34.9603 103.159 35.049C102.805 35.1423 102.34 35.126 101.766 35ZM110.103 35L112.875 31.22L110.271 27.44H112.119L114.576 31.101V27.44H116.074V31.101L118.531 27.44H120.372L117.768 31.22L120.54 35H118.594L116.074 31.339V35H114.576V31.339L112.049 35H110.103ZM124.671 35.21C123.892 35.21 123.227 35.0373 122.676 34.692C122.126 34.342 121.703 33.866 121.409 33.264C121.12 32.662 120.973 31.9807 120.968 31.22C120.973 30.4453 121.125 29.7593 121.423 29.162C121.727 28.56 122.156 28.0887 122.711 27.748C123.267 27.4027 123.927 27.23 124.692 27.23C125.551 27.23 126.277 27.447 126.869 27.881C127.467 28.3103 127.856 28.8983 128.038 29.645L126.358 30.1C126.228 29.694 126.011 29.379 125.707 29.155C125.404 28.9263 125.059 28.812 124.671 28.812C124.233 28.812 123.871 28.917 123.586 29.127C123.302 29.3323 123.092 29.617 122.956 29.981C122.821 30.345 122.753 30.758 122.753 31.22C122.753 31.9387 122.914 32.5197 123.236 32.963C123.558 33.4063 124.037 33.628 124.671 33.628C125.119 33.628 125.472 33.5253 125.728 33.32C125.99 33.1147 126.186 32.8183 126.316 32.431L128.038 32.816C127.805 33.586 127.397 34.1787 126.813 34.594C126.23 35.0047 125.516 35.21 124.671 35.21ZM129.427 35L129.441 27.44H131.149V31.08L133.914 27.44H136.021L133.088 31.22L136.273 35H134.04L131.149 31.36V35H129.427ZM143.526 27.44V35H141.909V30.065L138.311 35H136.96V27.44H138.577V32.249L142.189 27.44H143.526ZM148.985 26.586C148.597 26.586 148.243 26.4903 147.921 26.299C147.599 26.1077 147.342 25.8533 147.151 25.536C146.959 25.214 146.864 24.857 146.864 24.465H148.18C148.18 24.689 148.257 24.8803 148.411 25.039C148.569 25.193 148.761 25.27 148.985 25.27C149.209 25.27 149.398 25.193 149.552 25.039C149.71 24.8803 149.79 24.689 149.79 24.465H151.106C151.106 24.857 151.01 25.214 150.819 25.536C150.627 25.8533 150.371 26.1077 150.049 26.299C149.727 26.4903 149.372 26.586 148.985 26.586ZM152.044 27.44V35H150.427V30.065L146.829 35H145.478V27.44H147.095V32.249L150.707 27.44H152.044ZM158.709 35V28.938H156.182V27.44H162.923V28.938H160.396V35H158.709ZM167.883 35.21C167.145 35.21 166.527 35.035 166.028 34.685C165.528 34.335 165.153 33.859 164.901 33.257C164.649 32.6503 164.523 31.9713 164.523 31.22C164.523 30.4593 164.649 29.778 164.901 29.176C165.153 28.574 165.521 28.1003 166.007 27.755C166.497 27.405 167.101 27.23 167.82 27.23C168.534 27.23 169.152 27.405 169.675 27.755C170.202 28.1003 170.61 28.574 170.9 29.176C171.189 29.7733 171.334 30.4547 171.334 31.22C171.334 31.976 171.191 32.655 170.907 33.257C170.622 33.859 170.221 34.335 169.703 34.685C169.185 35.035 168.578 35.21 167.883 35.21ZM164.236 38.36V27.44H165.727V32.746H165.937V38.36H164.236ZM167.624 33.698C168.062 33.698 168.424 33.5883 168.709 33.369C168.993 33.1497 169.203 32.8533 169.339 32.48C169.479 32.102 169.549 31.682 169.549 31.22C169.549 30.7627 169.479 30.3473 169.339 29.974C169.199 29.596 168.982 29.2973 168.688 29.078C168.394 28.854 168.02 28.742 167.568 28.742C167.138 28.742 166.788 28.847 166.518 29.057C166.247 29.2623 166.046 29.5517 165.916 29.925C165.79 30.2937 165.727 30.7253 165.727 31.22C165.727 31.71 165.79 32.1417 165.916 32.515C166.046 32.8883 166.249 33.18 166.525 33.39C166.805 33.5953 167.171 33.698 167.624 33.698ZM173.597 38.36L175.053 34.363L175.081 35.539L171.784 27.44H173.541L175.879 33.432H175.431L177.706 27.44H179.393L175.179 38.36H173.597ZM183.58 35.224C182.861 35.2147 182.25 35.0537 181.746 34.741C181.242 34.4283 180.848 33.9873 180.563 33.418C180.278 32.8487 180.106 32.1767 180.045 31.402C180.017 31.0053 180.015 30.562 180.038 30.072C180.061 29.582 180.113 29.1037 180.192 28.637C180.271 28.1703 180.381 27.7737 180.521 27.447C180.666 27.1203 180.855 26.8193 181.088 26.544C181.321 26.264 181.573 26.0307 181.844 25.844C182.152 25.6293 182.486 25.4637 182.845 25.347C183.209 25.2303 183.589 25.1417 183.986 25.081C184.383 25.0157 184.791 24.9573 185.211 24.906C185.631 24.8547 186.046 24.7893 186.457 24.71L186.611 26.201C186.35 26.2663 186.046 26.3177 185.701 26.355C185.36 26.3877 185.006 26.425 184.637 26.467C184.273 26.509 183.925 26.5697 183.594 26.649C183.263 26.7283 182.976 26.845 182.733 26.999C182.397 27.2043 182.14 27.4983 181.963 27.881C181.786 28.2637 181.681 28.6673 181.648 29.092C181.937 28.6627 182.297 28.3617 182.726 28.189C183.16 28.0117 183.599 27.923 184.042 27.923C184.714 27.923 185.29 28.0817 185.771 28.399C186.256 28.7163 186.627 29.148 186.884 29.694C187.145 30.2353 187.276 30.8397 187.276 31.507C187.276 32.2537 187.12 32.907 186.807 33.467C186.494 34.027 186.06 34.461 185.505 34.769C184.95 35.077 184.308 35.2287 183.58 35.224ZM183.664 33.642C184.271 33.642 184.728 33.4553 185.036 33.082C185.349 32.704 185.505 32.2023 185.505 31.577C185.505 30.9377 185.344 30.4337 185.022 30.065C184.705 29.6963 184.252 29.512 183.664 29.512C183.067 29.512 182.612 29.6963 182.299 30.065C181.986 30.4337 181.83 30.9377 181.83 31.577C181.83 32.2303 181.989 32.739 182.306 33.103C182.623 33.4623 183.076 33.642 183.664 33.642ZM188.804 35V27.44H190.491V30.422H193.886V27.44H195.573V35H193.886V32.004H190.491V35H188.804ZM197.52 35L197.513 27.44H199.2V29.96H200.047C200.257 29.96 200.493 29.9647 200.754 29.974C201.02 29.9833 201.242 30.0043 201.419 30.037C201.844 30.1303 202.205 30.2797 202.504 30.485C202.807 30.6903 203.038 30.9587 203.197 31.29C203.356 31.6213 203.435 32.0203 203.435 32.487C203.435 33.1543 203.262 33.6887 202.917 34.09C202.572 34.4867 202.089 34.7573 201.468 34.902C201.286 34.944 201.06 34.972 200.789 34.986C200.518 34.9953 200.278 35 200.068 35H197.52ZM199.2 33.677H200.215C200.318 33.677 200.432 33.6723 200.558 33.663C200.684 33.6537 200.803 33.6327 200.915 33.6C201.125 33.544 201.312 33.418 201.475 33.222C201.638 33.0213 201.72 32.7763 201.72 32.487C201.72 32.1837 201.638 31.934 201.475 31.738C201.312 31.542 201.111 31.4137 200.873 31.353C200.761 31.325 200.647 31.3063 200.53 31.297C200.418 31.2877 200.313 31.283 200.215 31.283H199.2V33.677ZM204.226 35V27.44H205.913V35H204.226ZM211.369 26.586C210.982 26.586 210.627 26.4903 210.305 26.299C209.983 26.1077 209.727 25.8533 209.535 25.536C209.344 25.214 209.248 24.857 209.248 24.465H210.564C210.564 24.689 210.641 24.8803 210.795 25.039C210.954 25.193 211.145 25.27 211.369 25.27C211.593 25.27 211.782 25.193 211.936 25.039C212.095 24.8803 212.174 24.689 212.174 24.465H213.49C213.49 24.857 213.395 25.214 213.203 25.536C213.012 25.8533 212.755 26.1077 212.433 26.299C212.111 26.4903 211.757 26.586 211.369 26.586ZM214.428 27.44V35H212.811V30.065L209.213 35H207.862V27.44H209.479V32.249L213.091 27.44H214.428ZM87.668 55.21C86.9493 55.21 86.2937 55.0583 85.701 54.755C85.1083 54.4517 84.6417 54.0363 84.301 53.509L85.631 52.62C85.9017 52.942 86.2027 53.1917 86.534 53.369C86.8653 53.5417 87.234 53.628 87.64 53.628C88.0647 53.628 88.3983 53.5347 88.641 53.348C88.8837 53.1613 89.005 52.9117 89.005 52.599C89.005 52.3237 88.9233 52.13 88.76 52.018C88.5967 51.9013 88.382 51.8313 88.116 51.808C87.85 51.7847 87.5653 51.773 87.262 51.773H86.702V50.436H87.255C87.6797 50.436 88.0343 50.387 88.319 50.289C88.6083 50.191 88.753 49.974 88.753 49.638C88.753 49.3347 88.641 49.12 88.417 48.994C88.193 48.8633 87.9317 48.798 87.633 48.798C87.269 48.798 86.9097 48.875 86.555 49.029C86.2003 49.183 85.883 49.3697 85.603 49.589L84.651 48.441C85.071 48.0677 85.54 47.7737 86.058 47.559C86.576 47.3397 87.129 47.23 87.717 47.23C88.2023 47.23 88.655 47.314 89.075 47.482C89.4997 47.65 89.8403 47.902 90.097 48.238C90.3583 48.574 90.489 48.9893 90.489 49.484C90.489 49.8387 90.412 50.1723 90.258 50.485C90.1087 50.7977 89.8683 51.094 89.537 51.374L89.516 50.828C89.7727 50.9353 89.9897 51.0847 90.167 51.276C90.349 51.4673 90.4867 51.6913 90.58 51.948C90.678 52.2047 90.727 52.4777 90.727 52.767C90.727 53.2943 90.587 53.74 90.307 54.104C90.027 54.468 89.6537 54.7433 89.187 54.93C88.725 55.1167 88.2187 55.21 87.668 55.21ZM94.3811 55.21C93.8351 55.21 93.3731 55.1073 92.9951 54.902C92.6171 54.692 92.3301 54.4143 92.1341 54.069C91.9428 53.7237 91.8471 53.3433 91.8471 52.928C91.8471 52.564 91.9078 52.2373 92.0291 51.948C92.1504 51.654 92.3371 51.402 92.5891 51.192C92.8411 50.9773 93.1678 50.8023 93.5691 50.667C93.8724 50.569 94.2271 50.4803 94.6331 50.401C95.0438 50.3217 95.4871 50.2493 95.9631 50.184C96.4438 50.114 96.9454 50.0393 97.4681 49.96L96.8661 50.303C96.8708 49.7803 96.7541 49.3953 96.5161 49.148C96.2781 48.9007 95.8768 48.777 95.3121 48.777C94.9714 48.777 94.6424 48.8563 94.3251 49.015C94.0078 49.1737 93.7861 49.4467 93.6601 49.834L92.1201 49.351C92.3068 48.7117 92.6614 48.1983 93.1841 47.811C93.7114 47.4237 94.4208 47.23 95.3121 47.23C95.9841 47.23 96.5744 47.3397 97.0831 47.559C97.5964 47.7783 97.9768 48.1377 98.2241 48.637C98.3594 48.903 98.4411 49.176 98.4691 49.456C98.4971 49.7313 98.5111 50.0323 98.5111 50.359V55H97.0341V53.362L97.2791 53.628C96.9384 54.174 96.5394 54.5753 96.0821 54.832C95.6294 55.084 95.0624 55.21 94.3811 55.21ZM94.7171 53.866C95.0998 53.866 95.4264 53.7983 95.6971 53.663C95.9678 53.5277 96.1824 53.362 96.3411 53.166C96.5044 52.97 96.6141 52.7857 96.6701 52.613C96.7588 52.3983 96.8078 52.1533 96.8171 51.878C96.8311 51.598 96.8381 51.3717 96.8381 51.199L97.3561 51.353C96.8474 51.4323 96.4111 51.5023 96.0471 51.563C95.6831 51.6237 95.3704 51.682 95.1091 51.738C94.8478 51.7893 94.6168 51.8477 94.4161 51.913C94.2201 51.983 94.0544 52.0647 93.9191 52.158C93.7838 52.2513 93.6788 52.3587 93.6041 52.48C93.5341 52.6013 93.4991 52.7437 93.4991 52.907C93.4991 53.0937 93.5458 53.2593 93.6391 53.404C93.7324 53.544 93.8678 53.656 94.0451 53.74C94.2271 53.824 94.4511 53.866 94.7171 53.866ZM100.32 55V47.44H103.757C104.004 47.44 104.235 47.454 104.45 47.482C104.664 47.51 104.849 47.545 105.003 47.587C105.367 47.6943 105.689 47.9043 105.969 48.217C106.249 48.525 106.389 48.952 106.389 49.498C106.389 49.82 106.337 50.086 106.235 50.296C106.132 50.5013 105.997 50.674 105.829 50.814C105.749 50.8793 105.668 50.9353 105.584 50.982C105.5 51.0287 105.416 51.066 105.332 51.094C105.514 51.122 105.686 51.1757 105.85 51.255C106.106 51.381 106.321 51.5677 106.494 51.815C106.671 52.0623 106.76 52.41 106.76 52.858C106.76 53.3667 106.636 53.796 106.389 54.146C106.146 54.4913 105.789 54.7317 105.318 54.867C105.145 54.9137 104.947 54.9487 104.723 54.972C104.499 54.9907 104.27 55 104.037 55H100.32ZM102.028 53.698H103.918C104.016 53.698 104.123 53.6887 104.24 53.67C104.356 53.6513 104.461 53.6257 104.555 53.593C104.723 53.5323 104.844 53.425 104.919 53.271C104.998 53.117 105.038 52.956 105.038 52.788C105.038 52.5593 104.979 52.3773 104.863 52.242C104.751 52.102 104.615 52.0087 104.457 51.962C104.363 51.9247 104.261 51.9037 104.149 51.899C104.041 51.8897 103.953 51.885 103.883 51.885H102.028V53.698ZM102.028 50.562H103.428C103.572 50.562 103.712 50.555 103.848 50.541C103.988 50.5223 104.104 50.492 104.198 50.45C104.352 50.3893 104.464 50.2867 104.534 50.142C104.608 49.9973 104.646 49.8363 104.646 49.659C104.646 49.4723 104.604 49.3043 104.52 49.155C104.44 49.001 104.312 48.8983 104.135 48.847C104.018 48.8003 103.876 48.7747 103.708 48.77C103.544 48.7653 103.439 48.763 103.393 48.763H102.028V50.562ZM111.493 55.21C110.737 55.21 110.076 55.0397 109.512 54.699C108.947 54.3583 108.508 53.8893 108.196 53.292C107.888 52.69 107.734 51.9993 107.734 51.22C107.734 50.4267 107.892 49.7313 108.21 49.134C108.527 48.5367 108.968 48.07 109.533 47.734C110.097 47.398 110.751 47.23 111.493 47.23C112.253 47.23 112.916 47.4003 113.481 47.741C114.045 48.0817 114.484 48.553 114.797 49.155C115.109 49.7523 115.266 50.4407 115.266 51.22C115.266 52.004 115.107 52.697 114.79 53.299C114.477 53.8963 114.038 54.3653 113.474 54.706C112.909 55.042 112.249 55.21 111.493 55.21ZM111.493 53.628C112.165 53.628 112.664 53.404 112.991 52.956C113.317 52.508 113.481 51.9293 113.481 51.22C113.481 50.4873 113.315 49.904 112.984 49.47C112.652 49.0313 112.155 48.812 111.493 48.812C111.04 48.812 110.667 48.9147 110.373 49.12C110.083 49.3207 109.869 49.603 109.729 49.967C109.589 50.3263 109.519 50.744 109.519 51.22C109.519 51.9527 109.684 52.5383 110.016 52.977C110.352 53.411 110.844 53.628 111.493 53.628ZM116.248 56.68V53.677C116.659 53.677 116.95 53.537 117.123 53.257C117.296 52.977 117.433 52.4917 117.536 51.801C117.601 51.3903 117.655 50.9563 117.697 50.499C117.739 50.0417 117.774 49.5587 117.802 49.05C117.835 48.5413 117.863 48.0047 117.886 47.44H123.514V53.677H124.277V56.68H122.681V55H117.837V56.68H116.248ZM118.509 53.677H121.834V48.763H119.363C119.349 49.043 119.333 49.33 119.314 49.624C119.295 49.9133 119.274 50.2027 119.251 50.492C119.228 50.7813 119.202 51.059 119.174 51.325C119.151 51.5863 119.123 51.829 119.09 52.053C119.039 52.445 118.976 52.767 118.901 53.019C118.826 53.271 118.696 53.4903 118.509 53.677Z" fill="black"/>
<path d="M59.3538 67.9391C59.5069 55.9995 53.1452 45.3562 44.1209 36.4061C35.1074 27.4659 24.3241 20.9798 12.3105 21.1115H12.2553C12.2734 21.1091 12.2924 21.1074 12.3105 21.1033C24.7631 19.4151 39.5891 21.7481 49.1609 31.2492C58.7411 40.7593 61.0716 55.5713 59.3538 67.9391ZM47.1408 63.6509L44.634 58.3309H44.5764V63.6509H40.6753V51.1028H44.5764V56.0391H44.634L47.0379 51.1028H51.4742L48.0418 56.9886L51.7946 63.6509H47.1408ZM39.1378 56.4121H35.6476V46.5586H35.5571L33.5476 56.4121H30.3054L28.352 46.5586H28.2499V56.4121H24.9327V43.8689H30.7122L32.0389 50.7289H32.1089L33.3755 43.8689H39.1378V56.4121ZM23.5031 49.1766H19.6004V40.3393H16.1613V36.6301H26.9355V40.3393H23.5031V49.1758V49.1766ZM12.0552 12V20.792C12.0371 20.7953 12.0181 20.7969 12 20.7994H12.0552V68H68V12H12.0552Z" fill="#F15C22"/>
</svg>
