<svg width="295" height="80" viewBox="0 0 295 80" fill="none" xmlns="http://www.w3.org/2000/svg">
<rect width="295" height="80" rx="4" fill="#F0F0F0"/>
<path d="M134.557 28.4751L125.473 13.0857H104.231L99.5532 21.0115H123.228V21.0152L123.236 21.0115L127.641 28.4751H134.557Z" fill="#394B89"/>
<path d="M104.52 28.4409V28.432H125.754L122.297 22.5736L98.6211 22.5744L88 40.5674L92.6786 48.4932L104.516 28.4387" fill="#AC0036"/>
<path d="M101.74 47.936L101.733 47.9315L112.35 29.9437H105.435L93.5964 49.9989L104.218 67.9927L113.574 67.9919L101.737 47.9382" fill="#394B89"/>
<path d="M117.669 60.0705L117.661 60.0749L107.044 42.0871L103.585 47.9448L115.424 68H136.666L141.344 60.0749H117.669" fill="#394B89"/>
<path d="M115.095 52.6337L118.547 58.5425H142.222L145.705 52.6426" fill="#394B89"/>
<path d="M145.726 28.4751L136.626 13.0591L127.27 13.0598L136.369 28.4751H145.726Z" fill="#394B89"/>
<path d="M169.095 32.9099V36.1809H170.221V47.1637C170.221 49.8044 170.511 51.0947 173.471 51.0947C174.372 51.0947 175.176 50.9451 175.884 50.6443V47.554C174.823 47.554 174.758 47.2837 174.758 46.4437V36.1809H175.884V32.9099H174.758V29.9988L170.221 30.8091V32.9099H169.095Z" fill="#394B89"/>
<path d="M182.994 32.6357C178.586 32.6357 177.371 34.5053 177.371 38.3764V45.3022C177.371 49.2036 178.586 51.0428 182.994 51.0428C187.402 51.0428 188.635 49.2036 188.635 45.3022V43.5244H184.092V45.8948C184.092 47.0948 184.055 47.7651 182.994 47.7651C181.932 47.7651 181.914 47.1548 181.914 45.8948V42.5059H188.635V38.3764C188.635 34.4757 187.402 32.6357 182.994 32.6357ZM182.994 35.9135C184.055 35.9135 184.092 36.5142 184.092 37.8949V39.2467H181.914V37.8949C181.914 36.5142 181.932 35.9135 182.994 35.9135Z" fill="#394B89"/>
<path d="M195.886 32.6357C191.479 32.6357 190.245 34.5053 190.245 38.3764V45.3022C190.245 49.2036 191.479 51.0428 195.886 51.0428C200.295 51.0428 201.509 49.2036 201.509 45.3022V43.5244H196.966V45.8948C196.966 47.0948 196.948 47.7651 195.886 47.7651C194.825 47.7651 194.788 47.1548 194.788 45.8948V42.5059H201.509V38.3764C201.509 34.4757 200.295 32.6357 195.886 32.6357ZM195.886 35.9135C196.948 35.9135 196.966 36.5142 196.966 37.8949V39.2467H194.788V37.8949C194.788 36.5142 194.825 35.9135 195.886 35.9135Z" fill="#394B89"/>
<path d="M203.164 50.7642H207.7V30.2689H203.164V50.7642Z" fill="#394B89"/>
<path d="M163.524 36.9024H168.108V35.5825C168.108 31.6233 166.556 29.9433 162.092 29.9433C158.115 29.9433 155.98 31.8633 155.98 35.1025C155.98 38.2224 157.579 39.6906 160.329 41.8801C161.849 43.1098 163.524 43.9216 163.524 45.6008C163.524 46.5912 162.805 47.1312 162.094 47.1312C161.124 47.1312 160.603 46.6882 160.603 45.1882V43.5342H155.948V45.0608C155.948 49.1104 157.823 51 162.125 51C166.232 51 168.27 49.0208 168.27 45.0608C168.27 42.5416 166.799 40.8913 164.665 39.332C161.916 37.2921 160.896 36.1499 160.896 35.0403C160.896 34.3499 161.414 33.6521 162.157 33.6521C163.192 33.6521 163.524 34.2521 163.524 35.5121V36.9024Z" fill="#394B89"/>
<path d="M135.295 36.9928H139.88V35.6728C139.88 31.7136 138.327 30.0336 133.864 30.0336C129.886 30.0336 127.752 31.9536 127.752 35.1928C127.752 38.3128 129.352 39.7809 132.101 41.9705C133.621 43.2001 135.295 44.0119 135.295 45.6912C135.295 46.6815 134.576 47.2215 133.865 47.2215C132.895 47.2215 132.374 46.7786 132.374 45.2786V43.6245H127.719V45.1512C127.719 49.2008 129.595 51.0903 133.896 51.0903C138.004 51.0903 140.041 49.1111 140.041 45.1512C140.041 42.632 138.57 40.9816 136.436 39.4224C133.687 37.3824 132.667 36.2402 132.667 35.1306C132.667 34.4403 133.185 33.7425 133.929 33.7425C134.963 33.7425 135.295 34.3425 135.295 35.6024V36.9928Z" fill="#AC0036"/>
<path d="M114.25 30.043V51.0982H118.869V30.043H114.25ZM121.898 30.0615L119.967 35.0984V44.2649L121.993 51.0981H127.181L122.75 38.9132L127.048 30.0615H121.898Z" fill="#AC0036"/>
<path d="M141.815 30.043V51.0611H146.624V30.043H141.815ZM147.684 30.043V33.9503H148.215C148.935 33.9503 149.502 34.811 149.502 36.4132C149.502 38.1865 148.953 38.8762 148.12 38.8762H147.684V42.8205H148.442C152.284 42.8205 154.443 41.182 154.443 36.7836C154.443 31.6355 152.522 30.043 148.499 30.043H147.684Z" fill="#AC0036"/>
</svg>
