<svg width="295" height="80" viewBox="0 0 295 80" fill="none" xmlns="http://www.w3.org/2000/svg">
<rect width="295" height="80" rx="4" fill="#F0F0F0"/>
<path d="M90.79 35V30.52L91.063 30.954C90.7877 31.1827 90.4143 31.3623 89.943 31.493C89.4717 31.619 88.97 31.682 88.438 31.682C87.5887 31.682 86.912 31.5163 86.408 31.185C85.904 30.8537 85.54 30.3963 85.316 29.813C85.092 29.2297 84.98 28.5553 84.98 27.79V24.92H86.688V27.272C86.688 27.6173 86.7067 27.958 86.744 28.294C86.786 28.6253 86.8747 28.9263 87.01 29.197C87.15 29.4677 87.3623 29.6847 87.647 29.848C87.9317 30.0067 88.3167 30.086 88.802 30.086C89.3433 30.086 89.8053 29.995 90.188 29.813C90.5707 29.631 90.8413 29.4373 91 29.232L90.79 30.079V24.92H92.484V35H90.79ZM97.8779 35.21C97.1126 35.21 96.4406 35.0443 95.8619 34.713C95.2833 34.3817 94.8306 33.922 94.5039 33.334C94.1819 32.746 94.0209 32.0693 94.0209 31.304C94.0209 30.478 94.1796 29.7617 94.4969 29.155C94.8143 28.5437 95.2553 28.07 95.8199 27.734C96.3846 27.398 97.0379 27.23 97.7799 27.23C98.5639 27.23 99.2289 27.4143 99.7749 27.783C100.326 28.147 100.734 28.6627 101 29.33C101.266 29.9973 101.366 30.7837 101.301 31.689H99.6279V31.073C99.6233 30.2517 99.4786 29.652 99.1939 29.274C98.9093 28.896 98.4613 28.707 97.8499 28.707C97.1593 28.707 96.6459 28.9217 96.3099 29.351C95.9739 29.7757 95.8059 30.3987 95.8059 31.22C95.8059 31.9853 95.9739 32.578 96.3099 32.998C96.6459 33.418 97.1359 33.628 97.7799 33.628C98.1953 33.628 98.5523 33.537 98.8509 33.355C99.1543 33.1683 99.3876 32.9 99.5509 32.55L101.217 33.054C100.928 33.7353 100.48 34.265 99.8729 34.643C99.2709 35.021 98.6059 35.21 97.8779 35.21ZM95.2739 31.689V30.415H100.475V31.689H95.2739ZM102.163 35V33.586C102.438 33.6373 102.65 33.6327 102.8 33.572C102.949 33.5067 103.061 33.3853 103.136 33.208C103.21 33.0307 103.276 32.795 103.332 32.501C103.406 32.0857 103.472 31.6073 103.528 31.066C103.588 30.5247 103.64 29.946 103.682 29.33C103.728 28.714 103.77 28.084 103.808 27.44H109.373V35H107.693V29.022H105.292C105.268 29.3253 105.24 29.666 105.208 30.044C105.175 30.4173 105.14 30.7953 105.103 31.178C105.065 31.5607 105.023 31.9247 104.977 32.27C104.935 32.6107 104.89 32.9023 104.844 33.145C104.736 33.691 104.582 34.1227 104.382 34.44C104.186 34.7573 103.91 34.9603 103.556 35.049C103.201 35.1423 102.737 35.126 102.163 35ZM115.861 35V32.48H114.51C114.338 32.48 114.121 32.4753 113.859 32.466C113.603 32.4567 113.362 32.4333 113.138 32.396C112.555 32.2887 112.072 32.0343 111.689 31.633C111.307 31.227 111.115 30.6763 111.115 29.981C111.115 29.2997 111.297 28.7513 111.661 28.336C112.025 27.9207 112.499 27.6547 113.082 27.538C113.325 27.4867 113.575 27.4587 113.831 27.454C114.093 27.4447 114.31 27.44 114.482 27.44H117.548V35H115.861ZM110.919 35L112.725 32.109H114.482L112.69 35H110.919ZM114.335 31.157H115.861V28.763H114.335C114.247 28.763 114.139 28.7677 114.013 28.777C113.887 28.7863 113.761 28.8073 113.635 28.84C113.5 28.882 113.372 28.9543 113.25 29.057C113.129 29.1597 113.029 29.288 112.949 29.442C112.87 29.596 112.83 29.771 112.83 29.967C112.83 30.261 112.914 30.506 113.082 30.702C113.255 30.8933 113.456 31.0217 113.684 31.087C113.796 31.115 113.911 31.1337 114.027 31.143C114.149 31.1523 114.251 31.157 114.335 31.157ZM122.644 35.224C121.926 35.2147 121.314 35.0537 120.81 34.741C120.306 34.4283 119.912 33.9873 119.627 33.418C119.343 32.8487 119.17 32.1767 119.109 31.402C119.081 31.0053 119.079 30.562 119.102 30.072C119.126 29.582 119.177 29.1037 119.256 28.637C119.336 28.1703 119.445 27.7737 119.585 27.447C119.73 27.1203 119.919 26.8193 120.152 26.544C120.386 26.264 120.638 26.0307 120.908 25.844C121.216 25.6293 121.55 25.4637 121.909 25.347C122.273 25.2303 122.654 25.1417 123.05 25.081C123.447 25.0157 123.855 24.9573 124.275 24.906C124.695 24.8547 125.111 24.7893 125.521 24.71L125.675 26.201C125.414 26.2663 125.111 26.3177 124.765 26.355C124.425 26.3877 124.07 26.425 123.701 26.467C123.337 26.509 122.99 26.5697 122.658 26.649C122.327 26.7283 122.04 26.845 121.797 26.999C121.461 27.2043 121.205 27.4983 121.027 27.881C120.85 28.2637 120.745 28.6673 120.712 29.092C121.002 28.6627 121.361 28.3617 121.79 28.189C122.224 28.0117 122.663 27.923 123.106 27.923C123.778 27.923 124.355 28.0817 124.835 28.399C125.321 28.7163 125.692 29.148 125.948 29.694C126.21 30.2353 126.34 30.8397 126.34 31.507C126.34 32.2537 126.184 32.907 125.871 33.467C125.559 34.027 125.125 34.461 124.569 34.769C124.014 35.077 123.372 35.2287 122.644 35.224ZM122.728 33.642C123.335 33.642 123.792 33.4553 124.1 33.082C124.413 32.704 124.569 32.2023 124.569 31.577C124.569 30.9377 124.408 30.4337 124.086 30.065C123.769 29.6963 123.316 29.512 122.728 29.512C122.131 29.512 121.676 29.6963 121.363 30.065C121.051 30.4337 120.894 30.9377 120.894 31.577C120.894 32.2303 121.053 32.739 121.37 33.103C121.688 33.4623 122.14 33.642 122.728 33.642ZM134.434 27.44V35H132.817V30.065L129.219 35H127.868V27.44H129.485V32.249L133.097 27.44H134.434ZM136.386 35V27.44H138.073V30.422H141.468V27.44H143.155V35H141.468V32.004H138.073V35H136.386ZM148.392 35.21C147.613 35.21 146.948 35.0373 146.397 34.692C145.846 34.342 145.424 33.866 145.13 33.264C144.841 32.662 144.694 31.9807 144.689 31.22C144.694 30.4453 144.845 29.7593 145.144 29.162C145.447 28.56 145.877 28.0887 146.432 27.748C146.987 27.4027 147.648 27.23 148.413 27.23C149.272 27.23 149.997 27.447 150.59 27.881C151.187 28.3103 151.577 28.8983 151.759 29.645L150.079 30.1C149.948 29.694 149.731 29.379 149.428 29.155C149.125 28.9263 148.779 28.812 148.392 28.812C147.953 28.812 147.592 28.917 147.307 29.127C147.022 29.3323 146.812 29.617 146.677 29.981C146.542 30.345 146.474 30.758 146.474 31.22C146.474 31.9387 146.635 32.5197 146.957 32.963C147.279 33.4063 147.757 33.628 148.392 33.628C148.84 33.628 149.192 33.5253 149.449 33.32C149.71 33.1147 149.906 32.8183 150.037 32.431L151.759 32.816C151.526 33.586 151.117 34.1787 150.534 34.594C149.951 35.0047 149.237 35.21 148.392 35.21ZM153.148 35L153.162 27.44H154.87V31.08L157.635 27.44H159.742L156.809 31.22L159.994 35H157.761L154.87 31.36V35H153.148ZM167.247 27.44V35H165.63V30.065L162.032 35H160.681V27.44H162.298V32.249L165.91 27.44H167.247ZM172.705 26.586C172.318 26.586 171.963 26.4903 171.641 26.299C171.319 26.1077 171.063 25.8533 170.871 25.536C170.68 25.214 170.584 24.857 170.584 24.465H171.9C171.9 24.689 171.977 24.8803 172.131 25.039C172.29 25.193 172.481 25.27 172.705 25.27C172.929 25.27 173.118 25.193 173.272 25.039C173.431 24.8803 173.51 24.689 173.51 24.465H174.826C174.826 24.857 174.731 25.214 174.539 25.536C174.348 25.8533 174.091 26.1077 173.769 26.299C173.447 26.4903 173.093 26.586 172.705 26.586ZM175.764 27.44V35H174.147V30.065L170.549 35H169.198V27.44H170.815V32.249L174.427 27.44H175.764ZM86.877 55V48.938H84.35V47.44H91.091V48.938H88.564V55H86.877ZM96.0505 55.21C95.3132 55.21 94.6948 55.035 94.1955 54.685C93.6962 54.335 93.3205 53.859 93.0685 53.257C92.8165 52.6503 92.6905 51.9713 92.6905 51.22C92.6905 50.4593 92.8165 49.778 93.0685 49.176C93.3205 48.574 93.6892 48.1003 94.1745 47.755C94.6645 47.405 95.2688 47.23 95.9875 47.23C96.7015 47.23 97.3198 47.405 97.8425 47.755C98.3698 48.1003 98.7782 48.574 99.0675 49.176C99.3568 49.7733 99.5015 50.4547 99.5015 51.22C99.5015 51.976 99.3592 52.655 99.0745 53.257C98.7898 53.859 98.3885 54.335 97.8705 54.685C97.3525 55.035 96.7458 55.21 96.0505 55.21ZM92.4035 58.36V47.44H93.8945V52.746H94.1045V58.36H92.4035ZM95.7915 53.698C96.2302 53.698 96.5918 53.5883 96.8765 53.369C97.1612 53.1497 97.3712 52.8533 97.5065 52.48C97.6465 52.102 97.7165 51.682 97.7165 51.22C97.7165 50.7627 97.6465 50.3473 97.5065 49.974C97.3665 49.596 97.1495 49.2973 96.8555 49.078C96.5615 48.854 96.1882 48.742 95.7355 48.742C95.3062 48.742 94.9562 48.847 94.6855 49.057C94.4148 49.2623 94.2142 49.5517 94.0835 49.925C93.9575 50.2937 93.8945 50.7253 93.8945 51.22C93.8945 51.71 93.9575 52.1417 94.0835 52.515C94.2142 52.8883 94.4172 53.18 94.6925 53.39C94.9725 53.5953 95.3388 53.698 95.7915 53.698ZM101.765 58.36L103.221 54.363L103.249 55.539L99.952 47.44H101.709L104.047 53.432H103.599L105.874 47.44H107.561L103.347 58.36H101.765ZM111.748 55.224C111.029 55.2147 110.418 55.0537 109.914 54.741C109.41 54.4283 109.016 53.9873 108.731 53.418C108.446 52.8487 108.274 52.1767 108.213 51.402C108.185 51.0053 108.183 50.562 108.206 50.072C108.229 49.582 108.281 49.1037 108.36 48.637C108.439 48.1703 108.549 47.7737 108.689 47.447C108.834 47.1203 109.023 46.8193 109.256 46.544C109.489 46.264 109.741 46.0307 110.012 45.844C110.32 45.6293 110.654 45.4637 111.013 45.347C111.377 45.2303 111.757 45.1417 112.154 45.081C112.551 45.0157 112.959 44.9573 113.379 44.906C113.799 44.8547 114.214 44.7893 114.625 44.71L114.779 46.201C114.518 46.2663 114.214 46.3177 113.869 46.355C113.528 46.3877 113.174 46.425 112.805 46.467C112.441 46.509 112.093 46.5697 111.762 46.649C111.431 46.7283 111.144 46.845 110.901 46.999C110.565 47.2043 110.308 47.4983 110.131 47.881C109.954 48.2637 109.849 48.6673 109.816 49.092C110.105 48.6627 110.465 48.3617 110.894 48.189C111.328 48.0117 111.767 47.923 112.21 47.923C112.882 47.923 113.458 48.0817 113.939 48.399C114.424 48.7163 114.795 49.148 115.052 49.694C115.313 50.2353 115.444 50.8397 115.444 51.507C115.444 52.2537 115.288 52.907 114.975 53.467C114.662 54.027 114.228 54.461 113.673 54.769C113.118 55.077 112.476 55.2287 111.748 55.224ZM111.832 53.642C112.439 53.642 112.896 53.4553 113.204 53.082C113.517 52.704 113.673 52.2023 113.673 51.577C113.673 50.9377 113.512 50.4337 113.19 50.065C112.873 49.6963 112.42 49.512 111.832 49.512C111.235 49.512 110.78 49.6963 110.467 50.065C110.154 50.4337 109.998 50.9377 109.998 51.577C109.998 52.2303 110.157 52.739 110.474 53.103C110.791 53.4623 111.244 53.642 111.832 53.642ZM120.325 55.21C119.569 55.21 118.909 55.0397 118.344 54.699C117.779 54.3583 117.341 53.8893 117.028 53.292C116.72 52.69 116.566 51.9993 116.566 51.22C116.566 50.4267 116.725 49.7313 117.042 49.134C117.359 48.5367 117.8 48.07 118.365 47.734C118.93 47.398 119.583 47.23 120.325 47.23C121.086 47.23 121.748 47.4003 122.313 47.741C122.878 48.0817 123.316 48.553 123.629 49.155C123.942 49.7523 124.098 50.4407 124.098 51.22C124.098 52.004 123.939 52.697 123.622 53.299C123.309 53.8963 122.871 54.3653 122.306 54.706C121.741 55.042 121.081 55.21 120.325 55.21ZM120.325 53.628C120.997 53.628 121.496 53.404 121.823 52.956C122.15 52.508 122.313 51.9293 122.313 51.22C122.313 50.4873 122.147 49.904 121.816 49.47C121.485 49.0313 120.988 48.812 120.325 48.812C119.872 48.812 119.499 48.9147 119.205 49.12C118.916 49.3207 118.701 49.603 118.561 49.967C118.421 50.3263 118.351 50.744 118.351 51.22C118.351 51.9527 118.517 52.5383 118.848 52.977C119.184 53.411 119.676 53.628 120.325 53.628ZM125.626 55V47.44H132.192V55H130.505V49.022H127.313V55H125.626ZM137.791 55.21C137.053 55.21 136.435 55.035 135.936 54.685C135.436 54.335 135.061 53.859 134.809 53.257C134.557 52.6503 134.431 51.9713 134.431 51.22C134.431 50.4593 134.557 49.778 134.809 49.176C135.061 48.574 135.429 48.1003 135.915 47.755C136.405 47.405 137.009 47.23 137.728 47.23C138.442 47.23 139.06 47.405 139.583 47.755C140.11 48.1003 140.518 48.574 140.808 49.176C141.097 49.7733 141.242 50.4547 141.242 51.22C141.242 51.976 141.099 52.655 140.815 53.257C140.53 53.859 140.129 54.335 139.611 54.685C139.093 55.035 138.486 55.21 137.791 55.21ZM134.144 58.36V47.44H135.635V52.746H135.845V58.36H134.144ZM137.532 53.698C137.97 53.698 138.332 53.5883 138.617 53.369C138.901 53.1497 139.111 52.8533 139.247 52.48C139.387 52.102 139.457 51.682 139.457 51.22C139.457 50.7627 139.387 50.3473 139.247 49.974C139.107 49.596 138.89 49.2973 138.596 49.078C138.302 48.854 137.928 48.742 137.476 48.742C137.046 48.742 136.696 48.847 136.426 49.057C136.155 49.2623 135.954 49.5517 135.824 49.925C135.698 50.2937 135.635 50.7253 135.635 51.22C135.635 51.71 135.698 52.1417 135.824 52.515C135.954 52.8883 136.157 53.18 136.433 53.39C136.713 53.5953 137.079 53.698 137.532 53.698ZM146.124 55.21C145.368 55.21 144.707 55.0397 144.143 54.699C143.578 54.3583 143.139 53.8893 142.827 53.292C142.519 52.69 142.365 51.9993 142.365 51.22C142.365 50.4267 142.523 49.7313 142.841 49.134C143.158 48.5367 143.599 48.07 144.164 47.734C144.728 47.398 145.382 47.23 146.124 47.23C146.884 47.23 147.547 47.4003 148.112 47.741C148.676 48.0817 149.115 48.553 149.428 49.155C149.74 49.7523 149.897 50.4407 149.897 51.22C149.897 52.004 149.738 52.697 149.421 53.299C149.108 53.8963 148.669 54.3653 148.105 54.706C147.54 55.042 146.88 55.21 146.124 55.21ZM146.124 53.628C146.796 53.628 147.295 53.404 147.622 52.956C147.948 52.508 148.112 51.9293 148.112 51.22C148.112 50.4873 147.946 49.904 147.615 49.47C147.283 49.0313 146.786 48.812 146.124 48.812C145.671 48.812 145.298 48.9147 145.004 49.12C144.714 49.3207 144.5 49.603 144.36 49.967C144.22 50.3263 144.15 50.744 144.15 51.22C144.15 51.9527 144.315 52.5383 144.647 52.977C144.983 53.411 145.475 53.628 146.124 53.628ZM151.425 55L151.439 47.44H153.147V51.08L155.912 47.44H158.019L155.086 51.22L158.271 55H156.038L153.147 51.36V55H151.425ZM161.086 55.21C160.54 55.21 160.078 55.1073 159.7 54.902C159.322 54.692 159.035 54.4143 158.839 54.069C158.648 53.7237 158.552 53.3433 158.552 52.928C158.552 52.564 158.613 52.2373 158.734 51.948C158.856 51.654 159.042 51.402 159.294 51.192C159.546 50.9773 159.873 50.8023 160.274 50.667C160.578 50.569 160.932 50.4803 161.338 50.401C161.749 50.3217 162.192 50.2493 162.668 50.184C163.149 50.114 163.651 50.0393 164.173 49.96L163.571 50.303C163.576 49.7803 163.459 49.3953 163.221 49.148C162.983 48.9007 162.582 48.777 162.017 48.777C161.677 48.777 161.348 48.8563 161.03 49.015C160.713 49.1737 160.491 49.4467 160.365 49.834L158.825 49.351C159.012 48.7117 159.367 48.1983 159.889 47.811C160.417 47.4237 161.126 47.23 162.017 47.23C162.689 47.23 163.28 47.3397 163.788 47.559C164.302 47.7783 164.682 48.1377 164.929 48.637C165.065 48.903 165.146 49.176 165.174 49.456C165.202 49.7313 165.216 50.0323 165.216 50.359V55H163.739V53.362L163.984 53.628C163.644 54.174 163.245 54.5753 162.787 54.832C162.335 55.084 161.768 55.21 161.086 55.21ZM161.422 53.866C161.805 53.866 162.132 53.7983 162.402 53.663C162.673 53.5277 162.888 53.362 163.046 53.166C163.21 52.97 163.319 52.7857 163.375 52.613C163.464 52.3983 163.513 52.1533 163.522 51.878C163.536 51.598 163.543 51.3717 163.543 51.199L164.061 51.353C163.553 51.4323 163.116 51.5023 162.752 51.563C162.388 51.6237 162.076 51.682 161.814 51.738C161.553 51.7893 161.322 51.8477 161.121 51.913C160.925 51.983 160.76 52.0647 160.624 52.158C160.489 52.2513 160.384 52.3587 160.309 52.48C160.239 52.6013 160.204 52.7437 160.204 52.907C160.204 53.0937 160.251 53.2593 160.344 53.404C160.438 53.544 160.573 53.656 160.75 53.74C160.932 53.824 161.156 53.866 161.422 53.866ZM168.936 55V48.938H166.409V47.44H173.15V48.938H170.623V55H168.936ZM174.462 55V47.44H176.149V50.422H179.544V47.44H181.231V55H179.544V52.004H176.149V55H174.462ZM183.178 55L183.171 47.44H184.858V49.96H185.705C185.915 49.96 186.151 49.9647 186.412 49.974C186.678 49.9833 186.9 50.0043 187.077 50.037C187.502 50.1303 187.863 50.2797 188.162 50.485C188.465 50.6903 188.696 50.9587 188.855 51.29C189.014 51.6213 189.093 52.0203 189.093 52.487C189.093 53.1543 188.92 53.6887 188.575 54.09C188.23 54.4867 187.747 54.7573 187.126 54.902C186.944 54.944 186.718 54.972 186.447 54.986C186.176 54.9953 185.936 55 185.726 55H183.178ZM184.858 53.677H185.873C185.976 53.677 186.09 53.6723 186.216 53.663C186.342 53.6537 186.461 53.6327 186.573 53.6C186.783 53.544 186.97 53.418 187.133 53.222C187.296 53.0213 187.378 52.7763 187.378 52.487C187.378 52.1837 187.296 51.934 187.133 51.738C186.97 51.542 186.769 51.4137 186.531 51.353C186.419 51.325 186.305 51.3063 186.188 51.297C186.076 51.2877 185.971 51.283 185.873 51.283H184.858V53.677ZM189.884 55V47.44H191.571V55H189.884ZM197.028 46.586C196.64 46.586 196.286 46.4903 195.964 46.299C195.642 46.1077 195.385 45.8533 195.194 45.536C195.002 45.214 194.907 44.857 194.907 44.465H196.223C196.223 44.689 196.3 44.8803 196.454 45.039C196.612 45.193 196.804 45.27 197.028 45.27C197.252 45.27 197.441 45.193 197.595 45.039C197.753 44.8803 197.833 44.689 197.833 44.465H199.149C199.149 44.857 199.053 45.214 198.862 45.536C198.67 45.8533 198.414 46.1077 198.092 46.299C197.77 46.4903 197.415 46.586 197.028 46.586ZM200.087 47.44V55H198.47V50.065L194.872 55H193.521V47.44H195.138V52.249L198.75 47.44H200.087ZM207.543 55.21C206.824 55.21 206.169 55.0583 205.576 54.755C204.983 54.4517 204.517 54.0363 204.176 53.509L205.506 52.62C205.777 52.942 206.078 53.1917 206.409 53.369C206.74 53.5417 207.109 53.628 207.515 53.628C207.94 53.628 208.273 53.5347 208.516 53.348C208.759 53.1613 208.88 52.9117 208.88 52.599C208.88 52.3237 208.798 52.13 208.635 52.018C208.472 51.9013 208.257 51.8313 207.991 51.808C207.725 51.7847 207.44 51.773 207.137 51.773H206.577V50.436H207.13C207.555 50.436 207.909 50.387 208.194 50.289C208.483 50.191 208.628 49.974 208.628 49.638C208.628 49.3347 208.516 49.12 208.292 48.994C208.068 48.8633 207.807 48.798 207.508 48.798C207.144 48.798 206.785 48.875 206.43 49.029C206.075 49.183 205.758 49.3697 205.478 49.589L204.526 48.441C204.946 48.0677 205.415 47.7737 205.933 47.559C206.451 47.3397 207.004 47.23 207.592 47.23C208.077 47.23 208.53 47.314 208.95 47.482C209.375 47.65 209.715 47.902 209.972 48.238C210.233 48.574 210.364 48.9893 210.364 49.484C210.364 49.8387 210.287 50.1723 210.133 50.485C209.984 50.7977 209.743 51.094 209.412 51.374L209.391 50.828C209.648 50.9353 209.865 51.0847 210.042 51.276C210.224 51.4673 210.362 51.6913 210.455 51.948C210.553 52.2047 210.602 52.4777 210.602 52.767C210.602 53.2943 210.462 53.74 210.182 54.104C209.902 54.468 209.529 54.7433 209.062 54.93C208.6 55.1167 208.094 55.21 207.543 55.21ZM214.256 55.21C213.71 55.21 213.248 55.1073 212.87 54.902C212.492 54.692 212.205 54.4143 212.009 54.069C211.818 53.7237 211.722 53.3433 211.722 52.928C211.722 52.564 211.783 52.2373 211.904 51.948C212.025 51.654 212.212 51.402 212.464 51.192C212.716 50.9773 213.043 50.8023 213.444 50.667C213.747 50.569 214.102 50.4803 214.508 50.401C214.919 50.3217 215.362 50.2493 215.838 50.184C216.319 50.114 216.82 50.0393 217.343 49.96L216.741 50.303C216.746 49.7803 216.629 49.3953 216.391 49.148C216.153 48.9007 215.752 48.777 215.187 48.777C214.846 48.777 214.517 48.8563 214.2 49.015C213.883 49.1737 213.661 49.4467 213.535 49.834L211.995 49.351C212.182 48.7117 212.536 48.1983 213.059 47.811C213.586 47.4237 214.296 47.23 215.187 47.23C215.859 47.23 216.449 47.3397 216.958 47.559C217.471 47.7783 217.852 48.1377 218.099 48.637C218.234 48.903 218.316 49.176 218.344 49.456C218.372 49.7313 218.386 50.0323 218.386 50.359V55H216.909V53.362L217.154 53.628C216.813 54.174 216.414 54.5753 215.957 54.832C215.504 55.084 214.937 55.21 214.256 55.21ZM214.592 53.866C214.975 53.866 215.301 53.7983 215.572 53.663C215.843 53.5277 216.057 53.362 216.216 53.166C216.379 52.97 216.489 52.7857 216.545 52.613C216.634 52.3983 216.683 52.1533 216.692 51.878C216.706 51.598 216.713 51.3717 216.713 51.199L217.231 51.353C216.722 51.4323 216.286 51.5023 215.922 51.563C215.558 51.6237 215.245 51.682 214.984 51.738C214.723 51.7893 214.492 51.8477 214.291 51.913C214.095 51.983 213.929 52.0647 213.794 52.158C213.659 52.2513 213.554 52.3587 213.479 52.48C213.409 52.6013 213.374 52.7437 213.374 52.907C213.374 53.0937 213.421 53.2593 213.514 53.404C213.607 53.544 213.743 53.656 213.92 53.74C214.102 53.824 214.326 53.866 214.592 53.866ZM220.195 55V47.44H223.632C223.879 47.44 224.11 47.454 224.325 47.482C224.539 47.51 224.724 47.545 224.878 47.587C225.242 47.6943 225.564 47.9043 225.844 48.217C226.124 48.525 226.264 48.952 226.264 49.498C226.264 49.82 226.212 50.086 226.11 50.296C226.007 50.5013 225.872 50.674 225.704 50.814C225.624 50.8793 225.543 50.9353 225.459 50.982C225.375 51.0287 225.291 51.066 225.207 51.094C225.389 51.122 225.561 51.1757 225.725 51.255C225.981 51.381 226.196 51.5677 226.369 51.815C226.546 52.0623 226.635 52.41 226.635 52.858C226.635 53.3667 226.511 53.796 226.264 54.146C226.021 54.4913 225.664 54.7317 225.193 54.867C225.02 54.9137 224.822 54.9487 224.598 54.972C224.374 54.9907 224.145 55 223.912 55H220.195ZM221.903 53.698H223.793C223.891 53.698 223.998 53.6887 224.115 53.67C224.231 53.6513 224.336 53.6257 224.43 53.593C224.598 53.5323 224.719 53.425 224.794 53.271C224.873 53.117 224.913 52.956 224.913 52.788C224.913 52.5593 224.854 52.3773 224.738 52.242C224.626 52.102 224.49 52.0087 224.332 51.962C224.238 51.9247 224.136 51.9037 224.024 51.899C223.916 51.8897 223.828 51.885 223.758 51.885H221.903V53.698ZM221.903 50.562H223.303C223.447 50.562 223.587 50.555 223.723 50.541C223.863 50.5223 223.979 50.492 224.073 50.45C224.227 50.3893 224.339 50.2867 224.409 50.142C224.483 49.9973 224.521 49.8363 224.521 49.659C224.521 49.4723 224.479 49.3043 224.395 49.155C224.315 49.001 224.187 48.8983 224.01 48.847C223.893 48.8003 223.751 48.7747 223.583 48.77C223.419 48.7653 223.314 48.763 223.268 48.763H221.903V50.562ZM231.368 55.21C230.612 55.21 229.951 55.0397 229.387 54.699C228.822 54.3583 228.383 53.8893 228.071 53.292C227.763 52.69 227.609 51.9993 227.609 51.22C227.609 50.4267 227.767 49.7313 228.085 49.134C228.402 48.5367 228.843 48.07 229.408 47.734C229.972 47.398 230.626 47.23 231.368 47.23C232.128 47.23 232.791 47.4003 233.356 47.741C233.92 48.0817 234.359 48.553 234.672 49.155C234.984 49.7523 235.141 50.4407 235.141 51.22C235.141 52.004 234.982 52.697 234.665 53.299C234.352 53.8963 233.913 54.3653 233.349 54.706C232.784 55.042 232.124 55.21 231.368 55.21ZM231.368 53.628C232.04 53.628 232.539 53.404 232.866 52.956C233.192 52.508 233.356 51.9293 233.356 51.22C233.356 50.4873 233.19 49.904 232.859 49.47C232.527 49.0313 232.03 48.812 231.368 48.812C230.915 48.812 230.542 48.9147 230.248 49.12C229.958 49.3207 229.744 49.603 229.604 49.967C229.464 50.3263 229.394 50.744 229.394 51.22C229.394 51.9527 229.559 52.5383 229.891 52.977C230.227 53.411 230.719 53.628 231.368 53.628ZM236.123 56.68V53.677C236.534 53.677 236.825 53.537 236.998 53.257C237.171 52.977 237.308 52.4917 237.411 51.801C237.476 51.3903 237.53 50.9563 237.572 50.499C237.614 50.0417 237.649 49.5587 237.677 49.05C237.71 48.5413 237.738 48.0047 237.761 47.44H243.389V53.677H244.152V56.68H242.556V55H237.712V56.68H236.123ZM238.384 53.677H241.709V48.763H239.238C239.224 49.043 239.208 49.33 239.189 49.624C239.17 49.9133 239.149 50.2027 239.126 50.492C239.103 50.7813 239.077 51.059 239.049 51.325C239.026 51.5863 238.998 51.829 238.965 52.053C238.914 52.445 238.851 52.767 238.776 53.019C238.701 53.271 238.571 53.4903 238.384 53.677Z" fill="black"/>
<path d="M59.3538 67.9391C59.5069 55.9995 53.1452 45.3562 44.1209 36.4061C35.1074 27.4659 24.3241 20.9798 12.3105 21.1115H12.2553C12.2734 21.1091 12.2924 21.1074 12.3105 21.1033C24.7631 19.4151 39.5891 21.7481 49.1609 31.2492C58.7411 40.7593 61.0716 55.5713 59.3538 67.9391ZM47.1408 63.6509L44.634 58.3309H44.5764V63.6509H40.6753V51.1028H44.5764V56.0391H44.634L47.0379 51.1028H51.4742L48.0418 56.9886L51.7946 63.6509H47.1408ZM39.1378 56.4121H35.6476V46.5586H35.5571L33.5476 56.4121H30.3054L28.352 46.5586H28.2499V56.4121H24.9327V43.8689H30.7122L32.0389 50.7289H32.1089L33.3755 43.8689H39.1378V56.4121ZM23.5031 49.1766H19.6004V40.3393H16.1613V36.6301H26.9355V40.3393H23.5031V49.1758V49.1766ZM12.0552 12V20.792C12.0371 20.7953 12.0181 20.7969 12 20.7994H12.0552V68H68V12H12.0552Z" fill="#F15C22"/>
</svg>
