<svg width="8" height="8" viewBox="0 0 8 8" fill="none" xmlns="http://www.w3.org/2000/svg">
<path d="M7.28022 0.123519C7.44491 -0.0411732 7.71179 -0.0411732 7.87648 0.123519C8.04106 0.288221 8.04113 0.555132 7.87648 0.719786L4.59601 3.99976L7.87648 7.28024C8.04117 7.44493 8.04117 7.71182 7.87648 7.87651C7.71178 8.04114 7.44489 8.04118 7.28022 7.87651L3.99975 4.59603L0.719783 7.87651C0.55513 8.04116 0.28822 8.04109 0.123519 7.87651C-0.041173 7.71182 -0.041173 7.44493 0.123519 7.28024L3.40348 3.99976L0.123519 0.719786C-0.0411543 0.555112 -0.0411168 0.288217 0.123519 0.123519C0.288211 -0.0411732 0.555091 -0.0411732 0.719783 0.123519L3.99975 3.40349L7.28022 0.123519Z" fill="black"/>
</svg>
