<svg width="11" height="6" viewBox="0 0 11 6" fill="none" xmlns="http://www.w3.org/2000/svg">
<path d="M9.83694 0.193736C10.1031 -0.0644484 10.5345 -0.0645354 10.8005 0.193736C11.0665 0.452018 11.0665 0.870795 10.8005 1.12908L5.98187 5.80643C5.94858 5.83874 5.91254 5.86682 5.87473 5.89105C5.83693 5.91526 5.7973 5.93563 5.75627 5.95176C5.6948 5.97595 5.63038 5.99093 5.56528 5.99698C5.52191 6.00101 5.47823 6.001 5.43485 5.99698C5.2828 5.98291 5.13473 5.91941 5.01827 5.80643L0.19959 1.12908C-0.0665299 0.870762 -0.06653 0.452051 0.19959 0.193736C0.46571 -0.0645785 0.897072 -0.0645787 1.16319 0.193736L5.50007 4.40341L9.83694 0.193736Z" fill="white"/>
</svg>
