<svg width="48" height="48" viewBox="0 0 48 48" fill="none" xmlns="http://www.w3.org/2000/svg">
<rect width="48" height="48" rx="14" fill="#E44F19"/>
<path d="M41 20V46.127C38.9408 47.3182 36.55 48 34 48H14C11.45 48 9.05922 47.3182 7 46.127V27.5L14 20H41Z" fill="#F2F2F2"/>
<path d="M30.528 31.2422C30.8647 30.9192 31.4106 30.9193 31.7474 31.2422C32.0842 31.5654 32.0842 32.0897 31.7474 32.4128L23.0501 40.7576L22.9849 40.8141C22.8719 40.9027 22.7409 40.9597 22.6048 40.9849C22.4963 41.005 22.3844 41.005 22.2758 40.9849C22.1127 40.9546 21.9569 40.8788 21.8306 40.7576L17.2526 36.3651C16.9158 36.042 16.9158 35.5177 17.2526 35.1946C17.5893 34.8716 18.1353 34.8716 18.472 35.1946L22.4398 39.002L30.528 31.2422Z" fill="#E44F19"/>
<path d="M14 27.5V20L7 27.5H14Z" fill="black"/>
<path d="M29.9869 10.8654L28.8538 16.5842C28.8313 16.7039 28.773 16.8109 28.6889 16.8867C28.6049 16.9626 28.5003 17.0026 28.3932 16.9999H19.5675C19.4604 17.0026 19.3558 16.9626 19.2717 16.8867C19.1876 16.8109 19.1293 16.7039 19.1069 16.5842L18.0106 10.8654C17.9921 10.7687 17.9979 10.6681 18.0272 10.575C18.0566 10.482 18.1083 10.4003 18.1764 10.3392C18.2447 10.278 18.3268 10.2401 18.4132 10.2298C18.4996 10.2196 18.5868 10.2374 18.6647 10.2814L21.3547 11.7703L23.5842 7.26671C23.6244 7.18575 23.6826 7.1184 23.753 7.07154C23.8234 7.02469 23.9035 7 23.9849 7C24.0664 7 24.1464 7.02469 24.2168 7.07154C24.2873 7.1184 24.3455 7.18575 24.3857 7.26671L26.6151 11.7755L29.3236 10.2761C29.4021 10.2286 29.4909 10.208 29.5793 10.2168C29.6678 10.2256 29.7521 10.2634 29.8222 10.3257C29.8922 10.3879 29.9451 10.472 29.9743 10.5677C30.0035 10.6635 30.0079 10.7668 29.9869 10.8654Z" fill="#F2F2F2"/>
</svg>
