<svg width="48" height="48" viewBox="0 0 48 48" fill="none" xmlns="http://www.w3.org/2000/svg">
<path d="M34 0C41.732 0 48 6.26801 48 14V25H37.2627L42.459 28L34.9941 30L40.5 35.5059L27.5 28H33L28.5 25H16.6816C11.403 25 7.12329 29.279 7.12305 34.5576C7.12305 39.8364 11.4028 44.1162 16.6816 44.1162H43.6768C41.1627 46.5217 37.7542 48 34 48H14C6.26801 48 0 41.732 0 34V14C5.15406e-07 6.26801 6.26801 0 14 0H34Z" fill="#E44F19"/>
<path d="M16.1377 26.2695C20.6807 26.2695 24.364 29.9522 24.3643 34.4951C24.3643 39.0383 20.6809 42.7217 16.1377 42.7217C11.5946 42.7216 7.91211 39.0382 7.91211 34.4951C7.91235 29.9522 11.5948 26.2696 16.1377 26.2695Z" fill="#E44F19"/>
<path d="M27.2639 16.3728C27.4777 16.3728 27.6921 16.2951 27.8612 16.1383L31.4275 12.8308C31.6082 12.6631 31.7105 12.4272 31.7088 12.1804C31.707 11.9336 31.6019 11.6992 31.4187 11.5339L27.7547 8.22642C27.3944 7.90123 26.8386 7.9297 26.5134 8.29006C26.1882 8.65041 26.2166 9.20623 26.577 9.53142L29.528 12.1952L26.6663 14.8495C26.3105 15.1796 26.2894 15.7358 26.6195 16.0916C26.7925 16.2783 27.028 16.3728 27.2639 16.3728Z" fill="white"/>
<path d="M23.6537 20.6292H30.8418C31.3273 20.6292 31.7207 20.2358 31.7207 19.7503C31.7207 19.2648 31.3273 18.8714 30.8418 18.8714H23.6537C22.057 18.8714 20.7579 17.5724 20.7579 15.9756C20.7579 14.3788 22.057 13.0797 23.6537 13.0797H30.8418C31.3273 13.0797 31.7207 12.6863 31.7207 12.2008C31.7207 11.7153 31.3273 11.3219 30.8418 11.3219H23.6537C21.0877 11.3219 19.0001 13.4095 19.0001 15.9756C19.0001 18.5416 21.0877 20.6292 23.6537 20.6292Z" fill="white"/>
</svg>
