<svg width="48" height="48" viewBox="0 0 48 48" fill="none" xmlns="http://www.w3.org/2000/svg">
<rect width="48" height="48" rx="14" fill="#E44F19"/>
<path d="M39 24C39 22.0302 38.612 20.0796 37.8582 18.2597C37.1044 16.4399 35.9995 14.7863 34.6066 13.3934C33.2137 12.0005 31.5601 10.8956 29.7403 10.1418C27.9204 9.38799 25.9698 9 24 9L24 24H39Z" fill="black"/>
<path d="M24 9C21.0333 9 18.1332 9.87973 15.6665 11.528C13.1997 13.1762 11.2771 15.5189 10.1418 18.2597C9.0065 21.0006 8.70945 24.0166 9.28823 26.9264C9.86701 29.8361 11.2956 32.5088 13.3934 34.6066C15.4912 36.7044 18.1639 38.133 21.0737 38.7118C23.9834 39.2906 26.9994 38.9935 29.7403 37.8582C32.4812 36.7229 34.8238 34.8003 36.4721 32.3336C38.1203 29.8668 39 26.9667 39 24L24 24L24 9Z" fill="#F2F2F2"/>
</svg>
