<svg width="48" height="48" viewBox="0 0 48 48" fill="none" xmlns="http://www.w3.org/2000/svg">
<path d="M34 0C34.595 0 35.1814 0.0363597 35.7568 0.108398L14.7578 21.1084C11.0256 24.8411 11.0254 30.8934 14.7578 34.626C18.4904 38.3585 24.5427 38.3582 28.2754 34.626L48 14.9014V34C48 41.732 41.732 48 34 48H14C6.26801 48 0 41.732 0 34V14C0.000132457 6.26813 6.2681 0 14 0H34Z" fill="#E44F19"/>
<path d="M15.2715 22.3906C18.484 19.1781 23.6928 19.1781 26.9053 22.3906C30.1176 25.6031 30.1177 30.812 26.9053 34.0244C23.6928 37.2364 18.4838 37.2366 15.2715 34.0244C12.0591 30.8121 12.0595 25.6032 15.2715 22.3906Z" fill="#E44F19"/>
<path d="M13.795 14.8193L12.5086 14.4509C11.9293 14.2872 11.4016 13.9773 10.976 13.5508C10.5504 13.1243 10.2412 12.5954 10.0778 12.0149L9.71023 10.7257C9.69174 10.6806 9.6603 10.642 9.61988 10.6149C9.57946 10.5877 9.53191 10.5732 9.48325 10.5732C9.43459 10.5732 9.38704 10.5877 9.34662 10.6149C9.3062 10.642 9.27475 10.6806 9.25627 10.7257L8.88866 12.0149C8.72534 12.5954 8.41609 13.1243 7.9905 13.5508C7.5649 13.9773 7.03721 14.2872 6.45792 14.4509L5.17152 14.8193C5.12213 14.8334 5.07866 14.8632 5.0477 14.9042C5.01675 14.9453 5 14.9953 5 15.0468C5 15.0982 5.01675 15.1483 5.0477 15.1893C5.07866 15.2304 5.12213 15.2602 5.17152 15.2743L6.45792 15.6427C7.03721 15.8063 7.5649 16.1163 7.9905 16.5428C8.41609 16.9693 8.72534 17.4981 8.88866 18.0787L9.25627 19.3678C9.27029 19.4173 9.30003 19.4609 9.341 19.4919C9.38196 19.523 9.43191 19.5397 9.48325 19.5397C9.53459 19.5397 9.58454 19.523 9.6255 19.4919C9.66646 19.4609 9.69621 19.4173 9.71023 19.3678L10.0778 18.0787C10.2412 17.4981 10.5504 16.9693 10.976 16.5428C11.4016 16.1163 11.9293 15.8063 12.5086 15.6427L13.795 15.2743C13.8444 15.2602 13.8878 15.2304 13.9188 15.1893C13.9498 15.1483 13.9665 15.0982 13.9665 15.0468C13.9665 14.9953 13.9498 14.9453 13.9188 14.9042C13.8878 14.8632 13.8444 14.8334 13.795 14.8193Z" fill="#F2F2F2"/>
<path d="M18.8852 7.41453L18.0244 7.16801C17.6368 7.05849 17.2837 6.8511 16.9989 6.56569C16.7141 6.28029 16.5072 5.92642 16.3979 5.53794L16.1519 4.67527C16.1395 4.64509 16.1185 4.61928 16.0914 4.60111C16.0644 4.58294 16.0326 4.57324 16 4.57324C15.9674 4.57324 15.9356 4.58294 15.9086 4.60111C15.8815 4.61928 15.8605 4.64509 15.8481 4.67527L15.6021 5.53794C15.4928 5.92642 15.2859 6.28029 15.0011 6.56569C14.7163 6.8511 14.3632 7.05849 13.9756 7.16801L13.1148 7.41453C13.0817 7.42393 13.0526 7.44388 13.0319 7.47135C13.0112 7.49882 13 7.53231 13 7.56675C13 7.60118 13.0112 7.63467 13.0319 7.66214C13.0526 7.68961 13.0817 7.70956 13.1148 7.71896L13.9756 7.96548C14.3632 8.07501 14.7163 8.28239 15.0011 8.5678C15.2859 8.8532 15.4928 9.20707 15.6021 9.59555L15.8481 10.4582C15.8575 10.4913 15.8774 10.5205 15.9048 10.5413C15.9322 10.562 15.9656 10.5732 16 10.5732C16.0344 10.5732 16.0678 10.562 16.0952 10.5413C16.1226 10.5205 16.1425 10.4913 16.1519 10.4582L16.3979 9.59555C16.5072 9.20707 16.7141 8.8532 16.9989 8.5678C17.2837 8.28239 17.6368 8.07501 18.0244 7.96548L18.8852 7.71896C18.9183 7.70956 18.9474 7.68961 18.9681 7.66214C18.9888 7.63467 19 7.60118 19 7.56675C19 7.53231 18.9888 7.49882 18.9681 7.47135C18.9474 7.44388 18.9183 7.42393 18.8852 7.41453Z" fill="#F2F2F2"/>
</svg>
