<svg width="48" height="48" viewBox="0 0 48 48" fill="none" xmlns="http://www.w3.org/2000/svg">
<path d="M34 -0.00341797C41.732 -0.00341797 48 6.2646 48 13.9966V33.9966C48 36.1802 47.499 38.2465 46.6074 40.0884L38.7393 32.2202C36.9612 30.4425 34.0777 30.4423 32.2998 32.2202C30.5227 33.9981 30.5225 36.8808 32.2998 38.6587L40.1943 46.5532C40.0458 46.6266 39.8965 46.6989 39.7451 46.7671L25.1982 32.2202C23.4202 30.4425 20.5367 30.4423 18.7588 32.2202C16.9817 33.9981 16.9815 36.8808 18.7588 38.6587L28.0967 47.9966H27.4355L11.6582 32.2202C9.88013 30.4425 6.99668 30.4423 5.21875 32.2202C3.44161 33.9981 3.44147 36.8809 5.21875 38.6587L14.5566 47.9966H14C6.26801 47.9966 0 41.7286 0 33.9966V13.9966C5.15406e-07 6.2646 6.26801 -0.00341797 14 -0.00341797H34Z" fill="#E44F19"/>
<path d="M5.50586 32.4644C7.036 30.9342 9.51756 30.9344 11.0479 32.4644C12.5777 33.9946 12.578 36.4762 11.0479 38.0063C9.5177 39.5362 7.03605 39.5361 5.50586 38.0063C3.97605 36.4762 3.97603 33.9945 5.50586 32.4644Z" fill="#E44F19"/>
<path d="M19.0459 32.4644C20.576 30.9342 23.0576 30.9344 24.5879 32.4644C26.1177 33.9946 26.118 36.4762 24.5879 38.0063C23.0577 39.5362 20.5761 39.5361 19.0459 38.0063C17.5161 36.4762 17.5161 33.9945 19.0459 32.4644Z" fill="#E44F19"/>
<path d="M32.5869 32.4644C34.1171 30.9342 36.5986 30.9344 38.1289 32.4644C39.6588 33.9946 39.659 36.4762 38.1289 38.0063C36.5988 39.5362 34.1171 39.5361 32.5869 38.0063C31.0571 36.4762 31.0571 33.9945 32.5869 32.4644Z" fill="#E44F19"/>
<path d="M14 23.5075V10C14 9.44772 14.4477 9 15 9H34C34.5523 9 35 9.44771 35 10V23.4898C35 23.9151 34.731 24.2939 34.3295 24.434L24.4532 27.8806C24.2322 27.9577 23.9911 27.9549 23.7719 27.8725L14.6482 24.4436C14.2582 24.2971 14 23.9241 14 23.5075Z" fill="black"/>
<path d="M20.3743 20.325V18.0875H18V16.9062H20.3743V14.675H21.6278V16.9062H23.9889V18.0875H21.6278V20.325H20.3743Z" fill="#F2F2F2"/>
<path d="M27.3685 22V14.6437L25.5778 15.675V14.0125L27.3685 13H29V22H27.3685Z" fill="#F2F2F2"/>
</svg>
